<svg width="419" height="269" viewBox="0 0 419 269" fill="none" xmlns="http://www.w3.org/2000/svg">
<path d="M0 66C0 63.7909 1.79086 62 4 62H182C184.209 62 186 63.7909 186 66V190C186 192.209 184.209 194 182 194H4C1.79086 194 0 192.209 0 190V66Z" fill="#292929"/>
<path d="M17.9339 150.942V149.92L22.7919 147.675V148.936L19.3402 150.417L19.3793 150.349V150.513L19.3402 150.445L22.7919 151.926V153.187L17.9339 150.942ZM60.7802 151.624L55.9222 153.869V152.608L59.3739 151.127L59.3349 151.195V151.031L59.3739 151.099L55.9222 149.618V148.357L60.7802 150.602V151.624Z" fill="white"/>
<path d="M24.4458 154V146.727H29.1049V147.832H25.7633V149.806H28.7853V150.911H25.7633V154H24.4458ZM32.2273 154.107C31.6946 154.107 31.233 153.989 30.8423 153.755C30.4517 153.521 30.1487 153.193 29.9332 152.771C29.7202 152.35 29.6136 151.857 29.6136 151.294C29.6136 150.731 29.7202 150.237 29.9332 149.813C30.1487 149.389 30.4517 149.06 30.8423 148.826C31.233 148.592 31.6946 148.474 32.2273 148.474C32.7599 148.474 33.2216 148.592 33.6122 148.826C34.0028 149.06 34.3047 149.389 34.5178 149.813C34.7332 150.237 34.8409 150.731 34.8409 151.294C34.8409 151.857 34.7332 152.35 34.5178 152.771C34.3047 153.193 34.0028 153.521 33.6122 153.755C33.2216 153.989 32.7599 154.107 32.2273 154.107ZM32.2344 153.077C32.5232 153.077 32.7647 152.997 32.9588 152.839C33.1529 152.678 33.2973 152.462 33.392 152.192C33.4891 151.923 33.5376 151.622 33.5376 151.29C33.5376 150.957 33.4891 150.655 33.392 150.385C33.2973 150.113 33.1529 149.896 32.9588 149.735C32.7647 149.574 32.5232 149.494 32.2344 149.494C31.9384 149.494 31.6922 149.574 31.4957 149.735C31.3016 149.896 31.156 150.113 31.0589 150.385C30.9643 150.655 30.9169 150.957 30.9169 151.29C30.9169 151.622 30.9643 151.923 31.0589 152.192C31.156 152.462 31.3016 152.678 31.4957 152.839C31.6922 152.997 31.9384 153.077 32.2344 153.077ZM38.3113 154.107C37.7786 154.107 37.3169 153.989 36.9263 153.755C36.5357 153.521 36.2327 153.193 36.0172 152.771C35.8042 152.35 35.6976 151.857 35.6976 151.294C35.6976 150.731 35.8042 150.237 36.0172 149.813C36.2327 149.389 36.5357 149.06 36.9263 148.826C37.3169 148.592 37.7786 148.474 38.3113 148.474C38.8439 148.474 39.3056 148.592 39.6962 148.826C40.0868 149.06 40.3887 149.389 40.6017 149.813C40.8172 150.237 40.9249 150.731 40.9249 151.294C40.9249 151.857 40.8172 152.35 40.6017 152.771C40.3887 153.193 40.0868 153.521 39.6962 153.755C39.3056 153.989 38.8439 154.107 38.3113 154.107ZM38.3184 153.077C38.6072 153.077 38.8487 152.997 39.0428 152.839C39.2369 152.678 39.3813 152.462 39.476 152.192C39.5731 151.923 39.6216 151.622 39.6216 151.29C39.6216 150.957 39.5731 150.655 39.476 150.385C39.3813 150.113 39.2369 149.896 39.0428 149.735C38.8487 149.574 38.6072 149.494 38.3184 149.494C38.0224 149.494 37.7762 149.574 37.5797 149.735C37.3856 149.896 37.24 150.113 37.1429 150.385C37.0482 150.655 37.0009 150.957 37.0009 151.29C37.0009 151.622 37.0482 151.923 37.1429 152.192C37.24 152.462 37.3856 152.678 37.5797 152.839C37.7762 152.997 38.0224 153.077 38.3184 153.077ZM44.7397 148.545V149.54H41.604V148.545H44.7397ZM42.3782 147.239H43.6637V152.359C43.6637 152.532 43.6897 152.665 43.7418 152.757C43.7963 152.847 43.8673 152.909 43.9549 152.942C44.0425 152.975 44.1396 152.991 44.2461 152.991C44.3266 152.991 44.4 152.986 44.4663 152.974C44.5349 152.962 44.587 152.951 44.6225 152.942L44.8391 153.947C44.7705 153.97 44.6722 153.996 44.5444 154.025C44.4189 154.053 44.265 154.07 44.0827 154.075C43.7608 154.084 43.4708 154.036 43.2127 153.929C42.9547 153.82 42.7499 153.652 42.5984 153.425C42.4492 153.197 42.3758 152.913 42.3782 152.572V147.239ZM48.171 154.107C47.6241 154.107 47.1518 153.993 46.7541 153.766C46.3587 153.536 46.0545 153.212 45.8414 152.793C45.6284 152.371 45.5218 151.875 45.5218 151.305C45.5218 150.744 45.6284 150.251 45.8414 149.827C46.0569 149.401 46.3575 149.07 46.7434 148.833C47.1293 148.594 47.5827 148.474 48.1035 148.474C48.4397 148.474 48.7569 148.529 49.0552 148.638C49.3559 148.744 49.621 148.91 49.8507 149.135C50.0827 149.36 50.265 149.646 50.3975 149.994C50.5301 150.34 50.5964 150.752 50.5964 151.23V151.624H46.1255V150.758H49.3642C49.3618 150.512 49.3085 150.293 49.2044 150.101C49.1002 149.907 48.9546 149.754 48.7676 149.643C48.5829 149.531 48.3675 149.476 48.1213 149.476C47.8585 149.476 47.6277 149.54 47.4288 149.668C47.2299 149.793 47.0749 149.959 46.9636 150.165C46.8547 150.368 46.7991 150.592 46.7967 150.836V151.592C46.7967 151.91 46.8547 152.182 46.9707 152.409C47.0867 152.634 47.2489 152.807 47.4572 152.928C47.6655 153.046 47.9094 153.105 48.1887 153.105C48.3758 153.105 48.545 153.079 48.6966 153.027C48.8481 152.973 48.9795 152.893 49.0907 152.789C49.202 152.685 49.286 152.556 49.3429 152.402L50.5431 152.537C50.4674 152.854 50.323 153.131 50.1099 153.368C49.8992 153.602 49.6293 153.785 49.3002 153.915C48.9712 154.043 48.5948 154.107 48.171 154.107ZM51.6839 154V148.545H52.9304V149.455H52.9872C53.0866 149.14 53.2571 148.897 53.4986 148.727C53.7424 148.554 54.0206 148.467 54.3331 148.467C54.4041 148.467 54.4834 148.471 54.571 148.478C54.661 148.483 54.7356 148.491 54.7947 148.503V149.685C54.7403 149.666 54.6539 149.65 54.5355 149.636C54.4195 149.619 54.3071 149.611 54.1982 149.611C53.9638 149.611 53.7531 149.662 53.5661 149.763C53.3814 149.863 53.2358 150.001 53.1293 150.179C53.0227 150.357 52.9695 150.561 52.9695 150.793V154H51.6839Z" fill="#537298"/>
<path d="M8.93395 102.942V101.92L13.7919 99.6754V100.936L10.3402 102.417L10.3793 102.349V102.513L10.3402 102.445L13.7919 103.926V105.187L8.93395 102.942ZM53.2743 103.624L48.4164 105.869V104.608L51.8681 103.127L51.829 103.195V103.031L51.8681 103.099L48.4164 101.618V100.357L53.2743 102.602V103.624Z" fill="white"/>
<path d="M15.4458 106V98.7273H16.7633V104.896H19.9664V106H15.4458ZM22.6227 106.11C22.277 106.11 21.9657 106.049 21.6887 105.925C21.4141 105.8 21.1963 105.615 21.0353 105.371C20.8767 105.128 20.7974 104.827 20.7974 104.469C20.7974 104.162 20.8542 103.907 20.9679 103.706C21.0815 103.505 21.2366 103.344 21.4331 103.223C21.6296 103.102 21.8509 103.011 22.0971 102.95C22.3457 102.886 22.6026 102.839 22.8677 102.811C23.1873 102.778 23.4466 102.748 23.6454 102.722C23.8443 102.694 23.9887 102.651 24.0787 102.594C24.171 102.535 24.2172 102.444 24.2172 102.321V102.3C24.2172 102.032 24.1378 101.825 23.9792 101.678C23.8206 101.531 23.5922 101.458 23.2939 101.458C22.979 101.458 22.7292 101.527 22.5446 101.664C22.3623 101.801 22.2392 101.964 22.1752 102.151L20.975 101.98C21.0697 101.649 21.2259 101.372 21.4437 101.149C21.6615 100.924 21.9279 100.756 22.2427 100.645C22.5576 100.531 22.9056 100.474 23.2868 100.474C23.5495 100.474 23.8111 100.505 24.0716 100.567C24.332 100.628 24.5699 100.73 24.7853 100.872C25.0008 101.012 25.1736 101.202 25.3038 101.444C25.4364 101.685 25.5027 101.987 25.5027 102.349V106H24.2669V105.251H24.2243C24.1461 105.402 24.036 105.544 23.894 105.677C23.7543 105.807 23.5779 105.912 23.3649 105.993C23.1542 106.071 22.9068 106.11 22.6227 106.11ZM22.9565 105.165C23.2145 105.165 23.4383 105.115 23.6277 105.013C23.8171 104.909 23.9627 104.771 24.0645 104.601C24.1686 104.43 24.2207 104.245 24.2207 104.043V103.401C24.1805 103.434 24.1118 103.464 24.0147 103.493C23.92 103.521 23.8135 103.546 23.6951 103.567C23.5768 103.589 23.4596 103.608 23.3436 103.624C23.2276 103.641 23.127 103.655 23.0417 103.667C22.85 103.693 22.6783 103.736 22.5268 103.795C22.3753 103.854 22.2557 103.937 22.1681 104.043C22.0806 104.147 22.0368 104.282 22.0368 104.448C22.0368 104.685 22.1232 104.864 22.296 104.984C22.4688 105.105 22.689 105.165 22.9565 105.165ZM27.399 108.045C27.2238 108.045 27.0616 108.031 26.9125 108.003C26.7657 107.977 26.6485 107.946 26.5609 107.911L26.8592 106.909C27.0462 106.964 27.2131 106.99 27.3599 106.987C27.5067 106.985 27.6357 106.939 27.747 106.849C27.8606 106.761 27.9565 106.614 28.0346 106.408L28.1447 106.114L26.1667 100.545H27.5304L28.7875 104.665H28.8443L30.1049 100.545H31.4721L29.2882 106.661C29.1864 106.949 29.0514 107.197 28.8833 107.403C28.7153 107.611 28.5093 107.77 28.2654 107.879C28.024 107.99 27.7351 108.045 27.399 108.045ZM34.5554 106.107C34.0227 106.107 33.5611 105.989 33.1705 105.755C32.7798 105.521 32.4768 105.193 32.2614 104.771C32.0483 104.35 31.9418 103.857 31.9418 103.294C31.9418 102.731 32.0483 102.237 32.2614 101.813C32.4768 101.389 32.7798 101.06 33.1705 100.826C33.5611 100.592 34.0227 100.474 34.5554 100.474C35.0881 100.474 35.5497 100.592 35.9403 100.826C36.331 101.06 36.6328 101.389 36.8459 101.813C37.0613 102.237 37.169 102.731 37.169 103.294C37.169 103.857 37.0613 104.35 36.8459 104.771C36.6328 105.193 36.331 105.521 35.9403 105.755C35.5497 105.989 35.0881 106.107 34.5554 106.107ZM34.5625 105.077C34.8513 105.077 35.0928 104.997 35.2869 104.839C35.4811 104.678 35.6255 104.462 35.7202 104.192C35.8172 103.923 35.8658 103.622 35.8658 103.29C35.8658 102.957 35.8172 102.655 35.7202 102.385C35.6255 102.113 35.4811 101.896 35.2869 101.735C35.0928 101.574 34.8513 101.494 34.5625 101.494C34.2666 101.494 34.0204 101.574 33.8239 101.735C33.6297 101.896 33.4841 102.113 33.3871 102.385C33.2924 102.655 33.245 102.957 33.245 103.29C33.245 103.622 33.2924 103.923 33.3871 104.192C33.4841 104.462 33.6297 104.678 33.8239 104.839C34.0204 104.997 34.2666 105.077 34.5625 105.077ZM41.7367 103.706V100.545H43.0222V106H41.7757V105.031H41.7189C41.5958 105.336 41.3934 105.586 41.1117 105.78C40.8323 105.974 40.4879 106.071 40.0783 106.071C39.7208 106.071 39.4048 105.992 39.1301 105.833C38.8579 105.672 38.6448 105.439 38.4909 105.134C38.3371 104.826 38.2601 104.454 38.2601 104.018V100.545H39.5456V103.82C39.5456 104.165 39.6403 104.44 39.8297 104.643C40.0191 104.847 40.2677 104.949 40.5755 104.949C40.7649 104.949 40.9483 104.903 41.1259 104.81C41.3034 104.718 41.449 104.581 41.5627 104.398C41.6787 104.214 41.7367 103.983 41.7367 103.706ZM47.0678 100.545V101.54H43.9322V100.545H47.0678ZM44.7063 99.2386H45.9918V104.359C45.9918 104.532 46.0179 104.665 46.07 104.757C46.1244 104.847 46.1954 104.909 46.283 104.942C46.3706 104.975 46.4677 104.991 46.5742 104.991C46.6547 104.991 46.7281 104.986 46.7944 104.974C46.863 104.962 46.9151 104.951 46.9506 104.942L47.1673 105.947C47.0986 105.97 47.0004 105.996 46.8725 106.025C46.747 106.053 46.5932 106.07 46.4109 106.075C46.0889 106.084 45.7989 106.036 45.5408 105.929C45.2828 105.82 45.078 105.652 44.9265 105.425C44.7773 105.197 44.704 104.913 44.7063 104.572V99.2386Z" fill="#537298"/>
<path d="M17.4144 136.624V135.602L22.2724 133.357V134.618L18.8207 136.099L18.8597 136.031V136.195L18.8207 136.127L22.2724 137.608V138.869L17.4144 136.624ZM52.4189 136.624L47.5609 138.869V137.608L51.0126 136.127L50.9735 136.195V136.031L51.0126 136.099L47.5609 134.618V133.357L52.4189 135.602V136.624ZM53.6857 136.06V135.438C54.0882 135.438 54.3687 135.357 54.5273 135.193C54.6883 135.027 54.7688 134.759 54.7688 134.387V133.482C54.7688 133.081 54.8185 132.754 54.918 132.498C55.0198 132.242 55.1677 132.043 55.3619 131.901C55.556 131.759 55.7927 131.661 56.0721 131.607C56.3514 131.55 56.6687 131.521 57.0238 131.521V132.509C56.7444 132.509 56.5302 132.548 56.381 132.626C56.2319 132.701 56.1289 132.819 56.0721 132.977C56.0176 133.136 55.9904 133.338 55.9904 133.585V134.749C55.9904 134.932 55.9596 135.102 55.8981 135.261C55.8365 135.419 55.7241 135.559 55.5607 135.68C55.3974 135.798 55.1642 135.892 54.8612 135.96C54.5605 136.027 54.1687 136.06 53.6857 136.06ZM57.0238 140.545C56.6687 140.545 56.3514 140.516 56.0721 140.46C55.7927 140.405 55.556 140.307 55.3619 140.165C55.1677 140.023 55.0198 139.824 54.918 139.568C54.8185 139.313 54.7688 138.985 54.7688 138.585V137.683C54.7688 137.311 54.6883 137.043 54.5273 136.88C54.3687 136.714 54.0882 136.631 53.6857 136.631V136.01C54.1687 136.01 54.5605 136.044 54.8612 136.113C55.1642 136.179 55.3974 136.273 55.5607 136.393C55.7241 136.512 55.8365 136.65 55.8981 136.809C55.9596 136.968 55.9904 137.137 55.9904 137.317V138.482C55.9904 138.728 56.0176 138.93 56.0721 139.089C56.1289 139.247 56.2319 139.366 56.381 139.444C56.5302 139.522 56.7444 139.561 57.0238 139.561V140.545ZM53.6857 136.631V135.438H54.8114V136.631H53.6857ZM100.007 136.01V136.631C99.6043 136.631 99.3226 136.714 99.1616 136.88C99.003 137.043 98.9237 137.311 98.9237 137.683V138.585C98.9237 138.985 98.8728 139.313 98.771 139.568C98.6715 139.824 98.5247 140.023 98.3306 140.165C98.1365 140.307 97.8997 140.405 97.6204 140.46C97.341 140.516 97.0238 140.545 96.6687 140.545V139.561C96.948 139.561 97.1623 139.522 97.3114 139.444C97.4606 139.366 97.5624 139.247 97.6168 139.089C97.6737 138.93 97.7021 138.728 97.7021 138.482V137.317C97.7021 137.137 97.7328 136.968 97.7944 136.809C97.8559 136.65 97.9684 136.512 98.1317 136.393C98.2951 136.273 98.5271 136.179 98.8278 136.113C99.1308 136.044 99.5238 136.01 100.007 136.01ZM96.6687 131.521C97.0238 131.521 97.341 131.55 97.6204 131.607C97.8997 131.661 98.1365 131.759 98.3306 131.901C98.5247 132.043 98.6715 132.242 98.771 132.498C98.8728 132.754 98.9237 133.081 98.9237 133.482V134.387C98.9237 134.759 99.003 135.027 99.1616 135.193C99.3226 135.357 99.6043 135.438 100.007 135.438V136.06C99.5238 136.06 99.1308 136.027 98.8278 135.96C98.5271 135.892 98.2951 135.798 98.1317 135.68C97.9684 135.559 97.8559 135.419 97.7944 135.261C97.7328 135.102 97.7021 134.932 97.7021 134.749V133.585C97.7021 133.338 97.6737 133.136 97.6168 132.977C97.5624 132.819 97.4606 132.701 97.3114 132.626C97.1623 132.548 96.948 132.509 96.6687 132.509V131.521ZM100.007 135.438V136.631H98.881V135.438H100.007ZM101.272 136.624V135.602L106.13 133.357V134.618L102.678 136.099L102.717 136.031V136.195L102.678 136.127L106.13 137.608V138.869L101.272 136.624ZM110.696 131.386L108.352 140.094H107.226L109.57 131.386H110.696ZM140.065 136.624L135.207 138.869V137.608L138.659 136.127L138.62 136.195V136.031L138.659 136.099L135.207 134.618V133.357L140.065 135.602V136.624Z" fill="white"/>
<path d="M23.8695 139V133.545H25.0982V134.472H25.1621C25.2757 134.16 25.464 133.916 25.7267 133.741C25.9895 133.563 26.3032 133.474 26.6678 133.474C27.0371 133.474 27.3484 133.564 27.6017 133.744C27.8574 133.922 28.0373 134.165 28.1415 134.472H28.1983C28.3191 134.169 28.5227 133.928 28.8091 133.748C29.098 133.566 29.44 133.474 29.8354 133.474C30.3373 133.474 30.7469 133.633 31.0641 133.95C31.3813 134.268 31.54 134.73 31.54 135.339V139H30.2509V135.538C30.2509 135.199 30.1609 134.952 29.981 134.795C29.8011 134.637 29.5809 134.558 29.3205 134.558C29.0104 134.558 28.7677 134.655 28.5925 134.849C28.4197 135.04 28.3333 135.29 28.3333 135.598V139H27.0726V135.484C27.0726 135.203 26.9874 134.978 26.8169 134.81C26.6489 134.642 26.4287 134.558 26.1564 134.558C25.9718 134.558 25.8037 134.605 25.6522 134.7C25.5007 134.792 25.3799 134.923 25.29 135.094C25.2 135.262 25.155 135.458 25.155 135.683V139H23.8695ZM34.4137 139.11C34.0681 139.11 33.7567 139.049 33.4798 138.925C33.2051 138.8 32.9873 138.615 32.8263 138.371C32.6677 138.128 32.5884 137.827 32.5884 137.469C32.5884 137.162 32.6452 136.907 32.7589 136.706C32.8725 136.505 33.0276 136.344 33.2241 136.223C33.4206 136.102 33.6419 136.011 33.8881 135.95C34.1367 135.886 34.3936 135.839 34.6587 135.811C34.9783 135.778 35.2376 135.748 35.4364 135.722C35.6353 135.694 35.7797 135.651 35.8697 135.594C35.962 135.535 36.0082 135.444 36.0082 135.321V135.3C36.0082 135.032 35.9289 134.825 35.7702 134.678C35.6116 134.531 35.3832 134.458 35.0849 134.458C34.77 134.458 34.5202 134.527 34.3356 134.664C34.1533 134.801 34.0302 134.964 33.9663 135.151L32.766 134.98C32.8607 134.649 33.0169 134.372 33.2347 134.149C33.4525 133.924 33.7189 133.756 34.0337 133.645C34.3486 133.531 34.6966 133.474 35.0778 133.474C35.3406 133.474 35.6022 133.505 35.8626 133.567C36.123 133.628 36.3609 133.73 36.5763 133.872C36.7918 134.012 36.9646 134.202 37.0948 134.444C37.2274 134.685 37.2937 134.987 37.2937 135.349V139H36.0579V138.251H36.0153C35.9371 138.402 35.8271 138.544 35.685 138.677C35.5453 138.807 35.369 138.912 35.1559 138.993C34.9452 139.071 34.6978 139.11 34.4137 139.11ZM34.7475 138.165C35.0056 138.165 35.2293 138.115 35.4187 138.013C35.6081 137.909 35.7537 137.771 35.8555 137.601C35.9596 137.43 36.0117 137.245 36.0117 137.043V136.401C35.9715 136.434 35.9028 136.464 35.8058 136.493C35.7111 136.521 35.6045 136.546 35.4862 136.567C35.3678 136.589 35.2506 136.608 35.1346 136.624C35.0186 136.641 34.918 136.655 34.8327 136.667C34.641 136.693 34.4693 136.736 34.3178 136.795C34.1663 136.854 34.0468 136.937 33.9592 137.043C33.8716 137.147 33.8278 137.282 33.8278 137.448C33.8278 137.685 33.9142 137.864 34.087 137.984C34.2598 138.105 34.48 138.165 34.7475 138.165ZM38.5863 139V133.545H39.8718V139H38.5863ZM39.2326 132.771C39.029 132.771 38.8538 132.704 38.707 132.569C38.5603 132.432 38.4869 132.267 38.4869 132.075C38.4869 131.881 38.5603 131.717 38.707 131.582C38.8538 131.444 39.029 131.376 39.2326 131.376C39.4386 131.376 39.6138 131.444 39.7582 131.582C39.9049 131.717 39.9783 131.881 39.9783 132.075C39.9783 132.267 39.9049 132.432 39.7582 132.569C39.6138 132.704 39.4386 132.771 39.2326 132.771ZM42.4792 135.804V139H41.1937V133.545H42.4224V134.472H42.4863C42.6118 134.167 42.8118 133.924 43.0865 133.744C43.3635 133.564 43.7056 133.474 44.1127 133.474C44.4892 133.474 44.8171 133.555 45.0964 133.716C45.3781 133.877 45.5959 134.11 45.7498 134.415C45.9061 134.721 45.983 135.091 45.9806 135.527V139H44.6951V135.726C44.6951 135.361 44.6004 135.076 44.411 134.87C44.224 134.664 43.9648 134.561 43.6333 134.561C43.4084 134.561 43.2084 134.611 43.0332 134.71C42.8604 134.807 42.7243 134.948 42.6248 135.133C42.5278 135.317 42.4792 135.541 42.4792 135.804ZM111.516 139V133.545H112.745V134.472H112.809C112.922 134.16 113.11 133.916 113.373 133.741C113.636 133.563 113.95 133.474 114.314 133.474C114.684 133.474 114.995 133.564 115.248 133.744C115.504 133.922 115.684 134.165 115.788 134.472H115.845C115.966 134.169 116.169 133.928 116.456 133.748C116.744 133.566 117.087 133.474 117.482 133.474C117.984 133.474 118.393 133.633 118.711 133.95C119.028 134.268 119.186 134.73 119.186 135.339V139H117.897V135.538C117.897 135.199 117.807 134.952 117.627 134.795C117.448 134.637 117.227 134.558 116.967 134.558C116.657 134.558 116.414 134.655 116.239 134.849C116.066 135.04 115.98 135.29 115.98 135.598V139H114.719V135.484C114.719 135.203 114.634 134.978 114.463 134.81C114.295 134.642 114.075 134.558 113.803 134.558C113.618 134.558 113.45 134.605 113.299 134.7C113.147 134.792 113.026 134.923 112.936 135.094C112.846 135.262 112.801 135.458 112.801 135.683V139H111.516ZM122.06 139.11C121.715 139.11 121.403 139.049 121.126 138.925C120.852 138.8 120.634 138.615 120.473 138.371C120.314 138.128 120.235 137.827 120.235 137.469C120.235 137.162 120.292 136.907 120.405 136.706C120.519 136.505 120.674 136.344 120.871 136.223C121.067 136.102 121.288 136.011 121.535 135.95C121.783 135.886 122.04 135.839 122.305 135.811C122.625 135.778 122.884 135.748 123.083 135.722C123.282 135.694 123.426 135.651 123.516 135.594C123.608 135.535 123.655 135.444 123.655 135.321V135.3C123.655 135.032 123.575 134.825 123.417 134.678C123.258 134.531 123.03 134.458 122.731 134.458C122.416 134.458 122.167 134.527 121.982 134.664C121.8 134.801 121.677 134.964 121.613 135.151L120.412 134.98C120.507 134.649 120.663 134.372 120.881 134.149C121.099 133.924 121.365 133.756 121.68 133.645C121.995 133.531 122.343 133.474 122.724 133.474C122.987 133.474 123.249 133.505 123.509 133.567C123.769 133.628 124.007 133.73 124.223 133.872C124.438 134.012 124.611 134.202 124.741 134.444C124.874 134.685 124.94 134.987 124.94 135.349V139H123.704V138.251H123.662C123.584 138.402 123.474 138.544 123.331 138.677C123.192 138.807 123.015 138.912 122.802 138.993C122.592 139.071 122.344 139.11 122.06 139.11ZM122.394 138.165C122.652 138.165 122.876 138.115 123.065 138.013C123.255 137.909 123.4 137.771 123.502 137.601C123.606 137.43 123.658 137.245 123.658 137.043V136.401C123.618 136.434 123.549 136.464 123.452 136.493C123.358 136.521 123.251 136.546 123.133 136.567C123.014 136.589 122.897 136.608 122.781 136.624C122.665 136.641 122.564 136.655 122.479 136.667C122.287 136.693 122.116 136.736 121.964 136.795C121.813 136.854 121.693 136.937 121.606 137.043C121.518 137.147 121.474 137.282 121.474 137.448C121.474 137.685 121.561 137.864 121.733 137.984C121.906 138.105 122.126 138.165 122.394 138.165ZM126.233 139V133.545H127.518V139H126.233ZM126.879 132.771C126.675 132.771 126.5 132.704 126.354 132.569C126.207 132.432 126.133 132.267 126.133 132.075C126.133 131.881 126.207 131.717 126.354 131.582C126.5 131.444 126.675 131.376 126.879 131.376C127.085 131.376 127.26 131.444 127.405 131.582C127.551 131.717 127.625 131.881 127.625 132.075C127.625 132.267 127.551 132.432 127.405 132.569C127.26 132.704 127.085 132.771 126.879 132.771ZM130.126 135.804V139H128.84V133.545H130.069V134.472H130.133C130.258 134.167 130.458 133.924 130.733 133.744C131.01 133.564 131.352 133.474 131.759 133.474C132.136 133.474 132.464 133.555 132.743 133.716C133.025 133.877 133.242 134.11 133.396 134.415C133.553 134.721 133.629 135.091 133.627 135.527V139H132.342V135.726C132.342 135.361 132.247 135.076 132.058 134.87C131.871 134.664 131.611 134.561 131.28 134.561C131.055 134.561 130.855 134.611 130.68 134.71C130.507 134.807 130.371 134.948 130.271 135.133C130.174 135.317 130.126 135.541 130.126 135.804Z" fill="#537298"/>
<path d="M60.2624 139.107C59.7179 139.107 59.2504 138.987 58.8597 138.748C58.4715 138.509 58.172 138.179 57.9613 137.757C57.753 137.333 57.6488 136.846 57.6488 136.294C57.6488 135.74 57.7553 135.251 57.9684 134.827C58.1815 134.401 58.4821 134.07 58.8704 133.833C59.261 133.594 59.7227 133.474 60.2553 133.474C60.698 133.474 61.0898 133.556 61.4308 133.719C61.774 133.88 62.0475 134.109 62.2511 134.405C62.4547 134.698 62.5707 135.042 62.5991 135.435H61.3704C61.3207 135.172 61.2023 134.953 61.0153 134.778C60.8306 134.6 60.5832 134.511 60.2731 134.511C60.0103 134.511 59.7795 134.582 59.5806 134.724C59.3817 134.864 59.2267 135.065 59.1154 135.328C59.0065 135.591 58.9521 135.906 58.9521 136.273C58.9521 136.644 59.0065 136.964 59.1154 137.232C59.2243 137.497 59.377 137.701 59.5735 137.846C59.7724 137.988 60.0056 138.059 60.2731 138.059C60.4625 138.059 60.6317 138.023 60.7809 137.952C60.9324 137.879 61.0591 137.774 61.1609 137.636C61.2627 137.499 61.3325 137.332 61.3704 137.136H62.5991C62.5683 137.522 62.4547 137.864 62.2582 138.162C62.0617 138.458 61.7942 138.69 61.4556 138.858C61.1171 139.024 60.7193 139.107 60.2624 139.107ZM64.9402 135.804V139H63.6547V131.727H64.9118V134.472H64.9757C65.1035 134.165 65.3012 133.922 65.5687 133.744C65.8386 133.564 66.1819 133.474 66.5985 133.474C66.9773 133.474 67.3076 133.554 67.5893 133.712C67.871 133.871 68.0888 134.103 68.2427 134.408C68.399 134.714 68.4771 135.087 68.4771 135.527V139H67.1916V135.726C67.1916 135.359 67.0969 135.074 66.9075 134.87C66.7205 134.664 66.4577 134.561 66.1191 134.561C65.8919 134.561 65.6883 134.611 65.5083 134.71C65.3308 134.807 65.1911 134.948 65.0893 135.133C64.9899 135.317 64.9402 135.541 64.9402 135.804ZM69.7875 139V133.545H71.073V139H69.7875ZM70.4338 132.771C70.2302 132.771 70.055 132.704 69.9082 132.569C69.7614 132.432 69.688 132.267 69.688 132.075C69.688 131.881 69.7614 131.717 69.9082 131.582C70.055 131.444 70.2302 131.376 70.4338 131.376C70.6397 131.376 70.8149 131.444 70.9593 131.582C71.1061 131.717 71.1795 131.881 71.1795 132.075C71.1795 132.267 71.1061 132.432 70.9593 132.569C70.8149 132.704 70.6397 132.771 70.4338 132.771ZM73.6804 131.727V139H72.3949V131.727H73.6804ZM77.0265 139.096C76.598 139.096 76.2144 138.986 75.8759 138.766C75.5373 138.545 75.2698 138.226 75.0733 137.807C74.8768 137.388 74.7786 136.879 74.7786 136.28C74.7786 135.674 74.878 135.162 75.0769 134.746C75.2781 134.327 75.5492 134.011 75.8901 133.798C76.231 133.582 76.611 133.474 77.03 133.474C77.3496 133.474 77.6124 133.529 77.8184 133.638C78.0243 133.744 78.1877 133.873 78.3084 134.025C78.4292 134.174 78.5227 134.315 78.589 134.447H78.6422V131.727H79.9313V139H78.6671V138.141H78.589C78.5227 138.273 78.4268 138.414 78.3013 138.563C78.1758 138.71 78.0101 138.835 77.8042 138.94C77.5982 139.044 77.339 139.096 77.0265 139.096ZM77.3851 138.041C77.6574 138.041 77.8894 137.968 78.0811 137.821C78.2729 137.672 78.4185 137.465 78.5179 137.2C78.6174 136.934 78.6671 136.625 78.6671 136.273C78.6671 135.92 78.6174 135.613 78.5179 135.353C78.4209 135.093 78.2765 134.89 78.0847 134.746C77.8953 134.601 77.6621 134.529 77.3851 134.529C77.0987 134.529 76.8596 134.604 76.6678 134.753C76.476 134.902 76.3316 135.108 76.2346 135.371C76.1375 135.634 76.089 135.934 76.089 136.273C76.089 136.614 76.1375 136.918 76.2346 137.185C76.334 137.451 76.4796 137.66 76.6713 137.814C76.8655 137.965 77.1034 138.041 77.3851 138.041ZM81.3011 139V133.545H82.5476V134.455H82.6044C82.7038 134.14 82.8743 133.897 83.1158 133.727C83.3596 133.554 83.6378 133.467 83.9503 133.467C84.0213 133.467 84.1006 133.471 84.1882 133.478C84.2782 133.483 84.3527 133.491 84.4119 133.503V134.685C84.3575 134.666 84.2711 134.65 84.1527 134.636C84.0367 134.619 83.9242 134.611 83.8153 134.611C83.581 134.611 83.3703 134.662 83.1832 134.763C82.9986 134.863 82.853 135.001 82.7464 135.179C82.6399 135.357 82.5866 135.561 82.5866 135.793V139H81.3011ZM87.4561 139.107C86.9093 139.107 86.437 138.993 86.0392 138.766C85.6439 138.536 85.3397 138.212 85.1266 137.793C84.9135 137.371 84.807 136.875 84.807 136.305C84.807 135.744 84.9135 135.251 85.1266 134.827C85.342 134.401 85.6427 134.07 86.0286 133.833C86.4145 133.594 86.8678 133.474 87.3887 133.474C87.7248 133.474 88.0421 133.529 88.3404 133.638C88.641 133.744 88.9062 133.91 89.1358 134.135C89.3678 134.36 89.5501 134.646 89.6827 134.994C89.8153 135.34 89.8816 135.752 89.8816 136.23V136.624H85.4107V135.758H88.6493C88.647 135.512 88.5937 135.293 88.4895 135.101C88.3854 134.907 88.2398 134.754 88.0527 134.643C87.8681 134.531 87.6526 134.476 87.4064 134.476C87.1436 134.476 86.9128 134.54 86.714 134.668C86.5151 134.793 86.36 134.959 86.2488 135.165C86.1399 135.368 86.0842 135.592 86.0819 135.836V136.592C86.0819 136.91 86.1399 137.182 86.2559 137.409C86.3719 137.634 86.534 137.807 86.7424 137.928C86.9507 138.046 87.1945 138.105 87.4739 138.105C87.6609 138.105 87.8302 138.079 87.9817 138.027C88.1332 137.973 88.2646 137.893 88.3759 137.789C88.4872 137.685 88.5712 137.556 88.628 137.402L89.8283 137.537C89.7525 137.854 89.6081 138.131 89.3951 138.368C89.1844 138.602 88.9145 138.785 88.5854 138.915C88.2563 139.043 87.8799 139.107 87.4561 139.107ZM92.2546 135.804V139H90.9691V133.545H92.1978V134.472H92.2617C92.3872 134.167 92.5872 133.924 92.8619 133.744C93.1388 133.564 93.4809 133.474 93.8881 133.474C94.2646 133.474 94.5924 133.555 94.8718 133.716C95.1535 133.877 95.3713 134.11 95.5252 134.415C95.6815 134.721 95.7584 135.091 95.756 135.527V139H94.4705V135.726C94.4705 135.361 94.3758 135.076 94.1864 134.87C93.9994 134.664 93.7402 134.561 93.4087 134.561C93.1838 134.561 92.9838 134.611 92.8086 134.71C92.6358 134.807 92.4996 134.948 92.4002 135.133C92.3031 135.317 92.2546 135.541 92.2546 135.804Z" fill="#C63BD2"/>
<path d="M17.9339 120.942V119.92L22.7919 117.675V118.936L19.3402 120.417L19.3793 120.349V120.513L19.3402 120.445L22.7919 121.926V123.187L17.9339 120.942ZM87.6942 121.624L82.8363 123.869V122.608L86.288 121.127L86.2489 121.195V121.031L86.288 121.099L82.8363 119.618V118.357L87.6942 120.602V121.624Z" fill="white"/>
<path d="M30.4224 116.727V124H29.2505L25.8237 119.046H25.7633V124H24.4458V116.727H25.6248L29.0481 121.685H29.112V116.727H30.4224ZM33.3707 124.11C33.0251 124.11 32.7138 124.049 32.4368 123.925C32.1622 123.8 31.9444 123.615 31.7834 123.371C31.6248 123.128 31.5455 122.827 31.5455 122.469C31.5455 122.162 31.6023 121.907 31.7159 121.706C31.8295 121.505 31.9846 121.344 32.1811 121.223C32.3776 121.102 32.599 121.011 32.8452 120.95C33.0938 120.886 33.3506 120.839 33.6158 120.811C33.9354 120.778 34.1946 120.748 34.3935 120.722C34.5923 120.694 34.7367 120.651 34.8267 120.594C34.919 120.535 34.9652 120.444 34.9652 120.321V120.3C34.9652 120.032 34.8859 119.825 34.7273 119.678C34.5687 119.531 34.3402 119.458 34.0419 119.458C33.727 119.458 33.4773 119.527 33.2926 119.664C33.1103 119.801 32.9872 119.964 32.9233 120.151L31.723 119.98C31.8177 119.649 31.974 119.372 32.1918 119.149C32.4096 118.924 32.6759 118.756 32.9908 118.645C33.3056 118.531 33.6536 118.474 34.0348 118.474C34.2976 118.474 34.5592 118.505 34.8196 118.567C35.08 118.628 35.3179 118.73 35.5334 118.872C35.7488 119.012 35.9216 119.202 36.0518 119.444C36.1844 119.685 36.2507 119.987 36.2507 120.349V124H35.0149V123.251H34.9723C34.8942 123.402 34.7841 123.544 34.642 123.677C34.5024 123.807 34.326 123.912 34.1129 123.993C33.9022 124.071 33.6548 124.11 33.3707 124.11ZM33.7045 123.165C33.9626 123.165 34.1863 123.115 34.3757 123.013C34.5651 122.909 34.7107 122.771 34.8125 122.601C34.9167 122.43 34.9688 122.245 34.9688 122.043V121.401C34.9285 121.434 34.8598 121.464 34.7628 121.493C34.6681 121.521 34.5616 121.546 34.4432 121.567C34.3248 121.589 34.2076 121.608 34.0916 121.624C33.9756 121.641 33.875 121.655 33.7898 121.667C33.598 121.693 33.4264 121.736 33.2749 121.795C33.1233 121.854 33.0038 121.937 32.9162 122.043C32.8286 122.147 32.7848 122.282 32.7848 122.448C32.7848 122.685 32.8712 122.864 33.044 122.984C33.2169 123.105 33.437 123.165 33.7045 123.165ZM42.2202 118.545L40.2777 124H38.8572L36.9148 118.545H38.2855L39.5391 122.597H39.5959L40.853 118.545H42.2202ZM43.1097 124V118.545H44.3952V124H43.1097ZM43.756 117.771C43.5524 117.771 43.3772 117.704 43.2305 117.569C43.0837 117.432 43.0103 117.267 43.0103 117.075C43.0103 116.881 43.0837 116.717 43.2305 116.582C43.3772 116.444 43.5524 116.376 43.756 116.376C43.962 116.376 44.1372 116.444 44.2816 116.582C44.4284 116.717 44.5018 116.881 44.5018 117.075C44.5018 117.267 44.4284 117.432 44.2816 117.569C44.1372 117.704 43.962 117.771 43.756 117.771ZM48.0893 126.159C47.6277 126.159 47.2311 126.096 46.8997 125.971C46.5682 125.848 46.3019 125.682 46.1007 125.474C45.8994 125.265 45.7598 125.035 45.6816 124.781L46.8393 124.501C46.8914 124.607 46.9672 124.713 47.0666 124.817C47.166 124.923 47.2998 125.011 47.4679 125.08C47.6383 125.151 47.8526 125.186 48.1106 125.186C48.4752 125.186 48.777 125.097 49.0162 124.92C49.2553 124.745 49.3748 124.456 49.3748 124.053V123.02H49.3109C49.2446 123.152 49.1475 123.289 49.0197 123.428C48.8942 123.568 48.7273 123.685 48.519 123.78C48.313 123.875 48.0538 123.922 47.7413 123.922C47.3223 123.922 46.9423 123.824 46.6014 123.627C46.2628 123.428 45.993 123.132 45.7917 122.739C45.5929 122.344 45.4934 121.849 45.4934 121.255C45.4934 120.656 45.5929 120.151 45.7917 119.739C45.993 119.324 46.264 119.011 46.6049 118.798C46.9458 118.582 47.3258 118.474 47.7449 118.474C48.0645 118.474 48.3272 118.529 48.5332 118.638C48.7415 118.744 48.9073 118.873 49.0304 119.025C49.1535 119.174 49.247 119.315 49.3109 119.447H49.3819V118.545H50.6497V124.089C50.6497 124.555 50.5384 124.941 50.3159 125.246C50.0933 125.552 49.7891 125.78 49.4032 125.932C49.0173 126.083 48.5794 126.159 48.0893 126.159ZM48.1 122.913C48.3722 122.913 48.6042 122.847 48.796 122.714C48.9877 122.582 49.1333 122.391 49.2328 122.143C49.3322 121.894 49.3819 121.596 49.3819 121.248C49.3819 120.905 49.3322 120.604 49.2328 120.346C49.1357 120.088 48.9913 119.888 48.7995 119.746C48.6101 119.601 48.377 119.529 48.1 119.529C47.8135 119.529 47.5744 119.604 47.3826 119.753C47.1909 119.902 47.0465 120.107 46.9494 120.367C46.8523 120.625 46.8038 120.919 46.8038 121.248C46.8038 121.582 46.8523 121.874 46.9494 122.125C47.0488 122.374 47.1944 122.568 47.3862 122.707C47.5803 122.845 47.8182 122.913 48.1 122.913ZM53.5368 124.11C53.1911 124.11 52.8798 124.049 52.6028 123.925C52.3282 123.8 52.1104 123.615 51.9494 123.371C51.7908 123.128 51.7115 122.827 51.7115 122.469C51.7115 122.162 51.7683 121.907 51.8819 121.706C51.9956 121.505 52.1506 121.344 52.3471 121.223C52.5436 121.102 52.765 121.011 53.0112 120.95C53.2598 120.886 53.5166 120.839 53.7818 120.811C54.1014 120.778 54.3606 120.748 54.5595 120.722C54.7583 120.694 54.9028 120.651 54.9927 120.594C55.085 120.535 55.1312 120.444 55.1312 120.321V120.3C55.1312 120.032 55.0519 119.825 54.8933 119.678C54.7347 119.531 54.5062 119.458 54.2079 119.458C53.8931 119.458 53.6433 119.527 53.4586 119.664C53.2763 119.801 53.1532 119.964 53.0893 120.151L51.889 119.98C51.9837 119.649 52.14 119.372 52.3578 119.149C52.5756 118.924 52.8419 118.756 53.1568 118.645C53.4717 118.531 53.8197 118.474 54.2008 118.474C54.4636 118.474 54.7252 118.505 54.9856 118.567C55.246 118.628 55.484 118.73 55.6994 118.872C55.9148 119.012 56.0877 119.202 56.2179 119.444C56.3504 119.685 56.4167 119.987 56.4167 120.349V124H55.1809V123.251H55.1383C55.0602 123.402 54.9501 123.544 54.8081 123.677C54.6684 123.807 54.492 123.912 54.2789 123.993C54.0682 124.071 53.8208 124.11 53.5368 124.11ZM53.8706 123.165C54.1286 123.165 54.3523 123.115 54.5417 123.013C54.7311 122.909 54.8767 122.771 54.9785 122.601C55.0827 122.43 55.1348 122.245 55.1348 122.043V121.401C55.0945 121.434 55.0259 121.464 54.9288 121.493C54.8341 121.521 54.7276 121.546 54.6092 121.567C54.4908 121.589 54.3736 121.608 54.2576 121.624C54.1416 121.641 54.041 121.655 53.9558 121.667C53.764 121.693 53.5924 121.736 53.4409 121.795C53.2894 121.854 53.1698 121.937 53.0822 122.043C52.9946 122.147 52.9508 122.282 52.9508 122.448C52.9508 122.685 53.0372 122.864 53.21 122.984C53.3829 123.105 53.603 123.165 53.8706 123.165ZM60.4331 118.545V119.54H57.2974V118.545H60.4331ZM58.0716 117.239H59.3571V122.359C59.3571 122.532 59.3831 122.665 59.4352 122.757C59.4896 122.847 59.5607 122.909 59.6483 122.942C59.7359 122.975 59.8329 122.991 59.9395 122.991C60.0199 122.991 60.0933 122.986 60.1596 122.974C60.2283 122.962 60.2804 122.951 60.3159 122.942L60.5325 123.947C60.4638 123.97 60.3656 123.996 60.2377 124.025C60.1123 124.053 59.9584 124.07 59.7761 124.075C59.4541 124.084 59.1641 124.036 58.9061 123.929C58.648 123.82 58.4432 123.652 58.2917 123.425C58.1426 123.197 58.0692 122.913 58.0716 122.572V117.239ZM61.5082 124V118.545H62.7937V124H61.5082ZM62.1545 117.771C61.9509 117.771 61.7757 117.704 61.6289 117.569C61.4821 117.432 61.4087 117.267 61.4087 117.075C61.4087 116.881 61.4821 116.717 61.6289 116.582C61.7757 116.444 61.9509 116.376 62.1545 116.376C62.3604 116.376 62.5356 116.444 62.68 116.582C62.8268 116.717 62.9002 116.881 62.9002 117.075C62.9002 117.267 62.8268 117.432 62.68 117.569C62.5356 117.704 62.3604 117.771 62.1545 117.771ZM66.4949 124.107C65.9622 124.107 65.5005 123.989 65.1099 123.755C64.7193 123.521 64.4163 123.193 64.2008 122.771C63.9877 122.35 63.8812 121.857 63.8812 121.294C63.8812 120.731 63.9877 120.237 64.2008 119.813C64.4163 119.389 64.7193 119.06 65.1099 118.826C65.5005 118.592 65.9622 118.474 66.4949 118.474C67.0275 118.474 67.4892 118.592 67.8798 118.826C68.2704 119.06 68.5723 119.389 68.7853 119.813C69.0008 120.237 69.1085 120.731 69.1085 121.294C69.1085 121.857 69.0008 122.35 68.7853 122.771C68.5723 123.193 68.2704 123.521 67.8798 123.755C67.4892 123.989 67.0275 124.107 66.4949 124.107ZM66.502 123.077C66.7908 123.077 67.0323 122.997 67.2264 122.839C67.4205 122.678 67.5649 122.462 67.6596 122.192C67.7567 121.923 67.8052 121.622 67.8052 121.29C67.8052 120.957 67.7567 120.655 67.6596 120.385C67.5649 120.113 67.4205 119.896 67.2264 119.735C67.0323 119.574 66.7908 119.494 66.502 119.494C66.206 119.494 65.9598 119.574 65.7633 119.735C65.5692 119.896 65.4236 120.113 65.3265 120.385C65.2318 120.655 65.1845 120.957 65.1845 121.29C65.1845 121.622 65.2318 121.923 65.3265 122.192C65.4236 122.462 65.5692 122.678 65.7633 122.839C65.9598 122.997 66.206 123.077 66.502 123.077ZM71.4851 120.804V124H70.1996V118.545H71.4283V119.472H71.4922C71.6177 119.167 71.8177 118.924 72.0923 118.744C72.3693 118.564 72.7114 118.474 73.1186 118.474C73.495 118.474 73.8229 118.555 74.1023 118.716C74.384 118.877 74.6018 119.11 74.7557 119.415C74.9119 119.721 74.9889 120.091 74.9865 120.527V124H73.701V120.726C73.701 120.361 73.6063 120.076 73.4169 119.87C73.2299 119.664 72.9706 119.561 72.6392 119.561C72.4143 119.561 72.2143 119.611 72.0391 119.71C71.8662 119.807 71.7301 119.948 71.6307 120.133C71.5336 120.317 71.4851 120.541 71.4851 120.804ZM81.7425 116.386L79.3988 125.094H78.2731L80.6168 116.386H81.7425Z" fill="#537298"/>
<path d="M8.93395 169.624V168.602L13.7919 166.357V167.618L10.3402 169.099L10.3793 169.031V169.195L10.3402 169.127L13.7919 170.608V171.869L8.93395 169.624ZM18.3578 164.386L16.014 173.094H14.8883L17.2321 164.386H18.3578ZM57.0634 169.624L52.2054 171.869V170.608L55.6571 169.127L55.6181 169.195V169.031L55.6571 169.099L52.2054 167.618V166.357L57.0634 168.602V169.624Z" fill="white"/>
<path d="M19.2349 172V164.727H20.5524V170.896H23.7555V172H19.2349ZM26.4118 172.11C26.0661 172.11 25.7548 172.049 25.4778 171.925C25.2032 171.8 24.9854 171.615 24.8244 171.371C24.6658 171.128 24.5865 170.827 24.5865 170.469C24.5865 170.162 24.6433 169.907 24.7569 169.706C24.8706 169.505 25.0256 169.344 25.2221 169.223C25.4186 169.102 25.64 169.011 25.8862 168.95C26.1348 168.886 26.3916 168.839 26.6568 168.811C26.9764 168.778 27.2356 168.748 27.4345 168.722C27.6333 168.694 27.7778 168.651 27.8677 168.594C27.96 168.535 28.0062 168.444 28.0062 168.321V168.3C28.0062 168.032 27.9269 167.825 27.7683 167.678C27.6097 167.531 27.3812 167.458 27.0829 167.458C26.7681 167.458 26.5183 167.527 26.3336 167.664C26.1513 167.801 26.0282 167.964 25.9643 168.151L24.764 167.98C24.8587 167.649 25.015 167.372 25.2328 167.149C25.4506 166.924 25.7169 166.756 26.0318 166.645C26.3467 166.531 26.6947 166.474 27.0758 166.474C27.3386 166.474 27.6002 166.505 27.8606 166.567C28.121 166.628 28.359 166.73 28.5744 166.872C28.7898 167.012 28.9627 167.202 29.0929 167.444C29.2254 167.685 29.2917 167.987 29.2917 168.349V172H28.0559V171.251H28.0133C27.9352 171.402 27.8251 171.544 27.6831 171.677C27.5434 171.807 27.367 171.912 27.1539 171.993C26.9432 172.071 26.6958 172.11 26.4118 172.11ZM26.7456 171.165C27.0036 171.165 27.2273 171.115 27.4167 171.013C27.6061 170.909 27.7517 170.771 27.8535 170.601C27.9577 170.43 28.0098 170.245 28.0098 170.043V169.401C27.9695 169.434 27.9009 169.464 27.8038 169.493C27.7091 169.521 27.6026 169.546 27.4842 169.567C27.3658 169.589 27.2486 169.608 27.1326 169.624C27.0166 169.641 26.916 169.655 26.8308 169.667C26.639 169.693 26.4674 169.736 26.3159 169.795C26.1644 169.854 26.0448 169.937 25.9572 170.043C25.8696 170.147 25.8258 170.282 25.8258 170.448C25.8258 170.685 25.9122 170.864 26.085 170.984C26.2579 171.105 26.478 171.165 26.7456 171.165ZM31.188 174.045C31.0128 174.045 30.8507 174.031 30.7015 174.003C30.5547 173.977 30.4376 173.946 30.35 173.911L30.6483 172.909C30.8353 172.964 31.0022 172.99 31.149 172.987C31.2958 172.985 31.4248 172.939 31.536 172.849C31.6497 172.761 31.7456 172.614 31.8237 172.408L31.9338 172.114L29.9558 166.545H31.3194L32.5765 170.665H32.6333L33.894 166.545H35.2612L33.0772 172.661C32.9754 172.949 32.8405 173.197 32.6724 173.403C32.5043 173.611 32.2984 173.77 32.0545 173.879C31.813 173.99 31.5242 174.045 31.188 174.045ZM38.3445 172.107C37.8118 172.107 37.3501 171.989 36.9595 171.755C36.5689 171.521 36.2659 171.193 36.0504 170.771C35.8374 170.35 35.7308 169.857 35.7308 169.294C35.7308 168.731 35.8374 168.237 36.0504 167.813C36.2659 167.389 36.5689 167.06 36.9595 166.826C37.3501 166.592 37.8118 166.474 38.3445 166.474C38.8771 166.474 39.3388 166.592 39.7294 166.826C40.12 167.06 40.4219 167.389 40.6349 167.813C40.8504 168.237 40.9581 168.731 40.9581 169.294C40.9581 169.857 40.8504 170.35 40.6349 170.771C40.4219 171.193 40.12 171.521 39.7294 171.755C39.3388 171.989 38.8771 172.107 38.3445 172.107ZM38.3516 171.077C38.6404 171.077 38.8819 170.997 39.076 170.839C39.2701 170.678 39.4145 170.462 39.5092 170.192C39.6063 169.923 39.6548 169.622 39.6548 169.29C39.6548 168.957 39.6063 168.655 39.5092 168.385C39.4145 168.113 39.2701 167.896 39.076 167.735C38.8819 167.574 38.6404 167.494 38.3516 167.494C38.0556 167.494 37.8094 167.574 37.6129 167.735C37.4188 167.896 37.2732 168.113 37.1761 168.385C37.0814 168.655 37.0341 168.957 37.0341 169.29C37.0341 169.622 37.0814 169.923 37.1761 170.192C37.2732 170.462 37.4188 170.678 37.6129 170.839C37.8094 170.997 38.0556 171.077 38.3516 171.077ZM45.5257 169.706V166.545H46.8113V172H45.5648V171.031H45.508C45.3849 171.336 45.1825 171.586 44.9007 171.78C44.6214 171.974 44.2769 172.071 43.8674 172.071C43.5099 172.071 43.1938 171.992 42.9192 171.833C42.647 171.672 42.4339 171.439 42.28 171.134C42.1261 170.826 42.0492 170.454 42.0492 170.018V166.545H43.3347V169.82C43.3347 170.165 43.4294 170.44 43.6188 170.643C43.8082 170.847 44.0568 170.949 44.3645 170.949C44.5539 170.949 44.7374 170.903 44.915 170.81C45.0925 170.718 45.2381 170.581 45.3517 170.398C45.4677 170.214 45.5257 169.983 45.5257 169.706ZM50.8569 166.545V167.54H47.7212V166.545H50.8569ZM48.4954 165.239H49.7809V170.359C49.7809 170.532 49.8069 170.665 49.859 170.757C49.9135 170.847 49.9845 170.909 50.0721 170.942C50.1597 170.975 50.2567 170.991 50.3633 170.991C50.4438 170.991 50.5172 170.986 50.5835 170.974C50.6521 170.962 50.7042 170.951 50.7397 170.942L50.9563 171.947C50.8877 171.97 50.7894 171.996 50.6616 172.025C50.5361 172.053 50.3822 172.07 50.1999 172.075C49.878 172.084 49.5879 172.036 49.3299 171.929C49.0719 171.82 48.8671 171.652 48.7156 171.425C48.5664 171.197 48.493 170.913 48.4954 170.572V165.239Z" fill="#537298"/>
<rect x="233" width="186" height="269" rx="4" fill="#3C3C3C"/>
<path d="M236 4H417V20H236V4Z" fill="#212121"/>
<path d="M236 227H417V265H236V227Z" fill="#212121"/>
<path d="M236 31H417V216H236V31Z" fill="#212121"/>
<path d="M249.274 7L245 13.0812L247.408 17V14.5411L246.603 13.0812L249.274 8.42857V7Z" fill="#909497"/>
<path d="M250.684 17L255 10.9188L252.568 7V9.45887L253.381 10.9188L250.684 15.631V17Z" fill="#909497"/>
<path d="M247.906 17L251.245 7L251.837 8.42857L249.4 15.6048L247.906 17Z" fill="#909497"/>
<path d="M249.274 232L245 238.081L247.408 242V239.541L246.603 238.081L249.274 233.429V232Z" fill="#909497"/>
<path d="M250.684 242L255 235.919L252.568 232V234.459L253.381 235.919L250.684 240.631V242Z" fill="#909497"/>
<path d="M247.906 242L251.245 232L251.837 233.429L249.4 240.605L247.906 242Z" fill="#909497"/>
<rect x="259" y="9" width="22" height="5" fill="#909497"/>
<rect x="245" y="75" width="22" height="5" fill="#909497"/>
<rect x="269" y="75" width="22" height="5" fill="#909497"/>
<rect x="245" y="43" width="44" height="9" fill="#909497"/>
<rect x="245" y="103" width="44" height="9" fill="#909497"/>
<rect x="338" y="43" width="67" height="37" fill="#909497"/>
<rect x="326" y="121" width="79" height="41" fill="#909497"/>
<rect x="326" y="165" width="79" height="41" fill="#909497"/>
<rect x="245" y="121" width="79" height="41" fill="#909497"/>
<rect x="245" y="165" width="79" height="41" fill="#909497"/>
<rect x="245" y="55" width="20" height="2" fill="#909497"/>
<rect x="245" y="115" width="20" height="2" fill="#909497"/>
<rect x="245" y="59" width="27" height="2" fill="#909497"/>
<rect x="245" y="63" width="27" height="2" fill="#909497"/>
<rect x="245" y="67" width="27" height="2" fill="#909497"/>
<circle cx="246" cy="72" r="1" fill="#909497"/>
<circle cx="249" cy="72" r="1" fill="#909497"/>
<circle cx="252" cy="72" r="1" fill="#909497"/>
<path d="M3 67C3 65.8954 3.89543 65 5 65H180C181.105 65 182 65.8954 182 67V83H3V67Z" fill="#212121"/>
<path d="M45.9425 72.1811H44.6143C44.5765 71.9633 44.5066 71.7704 44.4048 71.6023C44.303 71.4318 44.1764 71.2874 44.0249 71.169C43.8733 71.0507 43.7005 70.9619 43.5064 70.9027C43.3146 70.8411 43.1075 70.8104 42.8849 70.8104C42.4896 70.8104 42.1392 70.9098 41.8338 71.1087C41.5284 71.3052 41.2893 71.594 41.1165 71.9751C40.9437 72.3539 40.8572 72.8168 40.8572 73.3636C40.8572 73.92 40.9437 74.3887 41.1165 74.7699C41.2917 75.1487 41.5308 75.4351 41.8338 75.6293C42.1392 75.821 42.4884 75.9169 42.8814 75.9169C43.0992 75.9169 43.3028 75.8885 43.4922 75.8317C43.6839 75.7725 43.8556 75.6861 44.0071 75.5724C44.161 75.4588 44.29 75.3191 44.3942 75.1534C44.5007 74.9877 44.5741 74.7983 44.6143 74.5852L45.9425 74.5923C45.8928 74.938 45.785 75.2623 45.6193 75.5653C45.456 75.8684 45.2417 76.1359 44.9766 76.3679C44.7114 76.5975 44.4013 76.7775 44.0462 76.9077C43.6911 77.0355 43.2969 77.0994 42.8636 77.0994C42.2244 77.0994 41.6539 76.9515 41.152 76.6555C40.6501 76.3596 40.2547 75.9323 39.9659 75.3736C39.6771 74.8149 39.5327 74.1449 39.5327 73.3636C39.5327 72.58 39.6783 71.91 39.9695 71.3537C40.2607 70.795 40.6572 70.3677 41.1591 70.0717C41.661 69.7758 42.2292 69.6278 42.8636 69.6278C43.2685 69.6278 43.6449 69.6847 43.9929 69.7983C44.3409 69.9119 44.651 70.0788 44.9233 70.299C45.1955 70.5168 45.4193 70.7843 45.5945 71.1016C45.772 71.4164 45.888 71.7763 45.9425 72.1811ZM49.4714 77.1065C48.9387 77.1065 48.4771 76.9893 48.0865 76.755C47.6958 76.5206 47.3928 76.1927 47.1774 75.7713C46.9643 75.3499 46.8578 74.8575 46.8578 74.294C46.8578 73.7306 46.9643 73.237 47.1774 72.8132C47.3928 72.3894 47.6958 72.0604 48.0865 71.826C48.4771 71.5916 48.9387 71.4744 49.4714 71.4744C50.0041 71.4744 50.4657 71.5916 50.8564 71.826C51.247 72.0604 51.5488 72.3894 51.7619 72.8132C51.9773 73.237 52.085 73.7306 52.085 74.294C52.085 74.8575 51.9773 75.3499 51.7619 75.7713C51.5488 76.1927 51.247 76.5206 50.8564 76.755C50.4657 76.9893 50.0041 77.1065 49.4714 77.1065ZM49.4785 76.0767C49.7673 76.0767 50.0088 75.9974 50.2029 75.8388C50.3971 75.6778 50.5415 75.4624 50.6362 75.1925C50.7333 74.9226 50.7818 74.6219 50.7818 74.2905C50.7818 73.9567 50.7333 73.6548 50.6362 73.3849C50.5415 73.1127 50.3971 72.8961 50.2029 72.7351C50.0088 72.5741 49.7673 72.4936 49.4785 72.4936C49.1826 72.4936 48.9364 72.5741 48.7399 72.7351C48.5458 72.8961 48.4002 73.1127 48.3031 73.3849C48.2084 73.6548 48.161 73.9567 48.161 74.2905C48.161 74.6219 48.2084 74.9226 48.3031 75.1925C48.4002 75.4624 48.5458 75.6778 48.7399 75.8388C48.9364 75.9974 49.1826 76.0767 49.4785 76.0767ZM53.1761 77V71.5455H54.4048V72.4723H54.4688C54.5824 72.1598 54.7706 71.916 55.0334 71.7408C55.2962 71.5632 55.6098 71.4744 55.9744 71.4744C56.3438 71.4744 56.6551 71.5644 56.9084 71.7443C57.1641 71.9219 57.344 72.1645 57.4482 72.4723H57.505C57.6257 72.1693 57.8293 71.9278 58.1158 71.7479C58.4046 71.5656 58.7467 71.4744 59.142 71.4744C59.6439 71.4744 60.0535 71.633 60.3707 71.9503C60.688 72.2675 60.8466 72.7304 60.8466 73.3388V77H59.5575V73.5376C59.5575 73.1991 59.4676 72.9517 59.2876 72.7955C59.1077 72.6368 58.8875 72.5575 58.6271 72.5575C58.317 72.5575 58.0743 72.6546 57.8991 72.8487C57.7263 73.0405 57.6399 73.2902 57.6399 73.598V77H56.3793V73.4844C56.3793 73.2027 56.294 72.9777 56.1236 72.8097C55.9555 72.6416 55.7353 72.5575 55.4631 72.5575C55.2784 72.5575 55.1103 72.6049 54.9588 72.6996C54.8073 72.7919 54.6866 72.9233 54.5966 73.0938C54.5066 73.2618 54.4616 73.4583 54.4616 73.6832V77H53.1761ZM62.1507 79.0455V71.5455H63.415V72.4474H63.4895C63.5558 72.3149 63.6493 72.174 63.7701 72.0249C63.8908 71.8733 64.0542 71.7443 64.2601 71.6378C64.4661 71.5289 64.7289 71.4744 65.0485 71.4744C65.4699 71.4744 65.8498 71.5821 66.1884 71.7976C66.5293 72.0107 66.7992 72.3267 66.998 72.7457C67.1993 73.1624 67.2999 73.6738 67.2999 74.2798C67.2999 74.8788 67.2016 75.3878 67.0051 75.8068C66.8087 76.2259 66.5411 76.5455 66.2026 76.7656C65.8641 76.9858 65.4805 77.0959 65.052 77.0959C64.7395 77.0959 64.4803 77.0438 64.2743 76.9396C64.0684 76.8355 63.9026 76.71 63.7772 76.5632C63.6541 76.4141 63.5582 76.2732 63.4895 76.1406H63.4363V79.0455H62.1507ZM63.4114 74.2727C63.4114 74.6255 63.4611 74.9344 63.5605 75.1996C63.6623 75.4647 63.8079 75.6719 63.9973 75.821C64.1891 75.9678 64.4211 76.0412 64.6934 76.0412C64.9775 76.0412 65.2154 75.9654 65.4071 75.8139C65.5989 75.66 65.7433 75.4505 65.8404 75.1854C65.9398 74.9179 65.9895 74.6136 65.9895 74.2727C65.9895 73.9342 65.941 73.6335 65.8439 73.3707C65.7469 73.108 65.6025 72.902 65.4107 72.7528C65.2189 72.6037 64.9798 72.5291 64.6934 72.5291C64.4187 72.5291 64.1855 72.6013 63.9938 72.7457C63.802 72.8902 63.6564 73.0926 63.557 73.353C63.4599 73.6134 63.4114 73.92 63.4114 74.2727ZM70.78 77.1065C70.2473 77.1065 69.7857 76.9893 69.3951 76.755C69.0044 76.5206 68.7014 76.1927 68.486 75.7713C68.2729 75.3499 68.1664 74.8575 68.1664 74.294C68.1664 73.7306 68.2729 73.237 68.486 72.8132C68.7014 72.3894 69.0044 72.0604 69.3951 71.826C69.7857 71.5916 70.2473 71.4744 70.78 71.4744C71.3127 71.4744 71.7743 71.5916 72.165 71.826C72.5556 72.0604 72.8574 72.3894 73.0705 72.8132C73.2859 73.237 73.3936 73.7306 73.3936 74.294C73.3936 74.8575 73.2859 75.3499 73.0705 75.7713C72.8574 76.1927 72.5556 76.5206 72.165 76.755C71.7743 76.9893 71.3127 77.1065 70.78 77.1065ZM70.7871 76.0767C71.0759 76.0767 71.3174 75.9974 71.5115 75.8388C71.7057 75.6778 71.8501 75.4624 71.9448 75.1925C72.0418 74.9226 72.0904 74.6219 72.0904 74.2905C72.0904 73.9567 72.0418 73.6548 71.9448 73.3849C71.8501 73.1127 71.7057 72.8961 71.5115 72.7351C71.3174 72.5741 71.0759 72.4936 70.7871 72.4936C70.4912 72.4936 70.245 72.5741 70.0485 72.7351C69.8543 72.8961 69.7087 73.1127 69.6117 73.3849C69.517 73.6548 69.4696 73.9567 69.4696 74.2905C69.4696 74.6219 69.517 74.9226 69.6117 75.1925C69.7087 75.4624 69.8543 75.6778 70.0485 75.8388C70.245 75.9974 70.4912 76.0767 70.7871 76.0767ZM75.7702 73.804V77H74.4847V71.5455H75.7134V72.4723H75.7773C75.9028 72.1669 76.1029 71.9242 76.3775 71.7443C76.6545 71.5644 76.9966 71.4744 77.4038 71.4744C77.7802 71.4744 78.1081 71.5549 78.3874 71.7159C78.6692 71.8769 78.887 72.1101 79.0408 72.4155C79.1971 72.7209 79.274 73.0914 79.2717 73.527V77H77.9862V73.7259C77.9862 73.3613 77.8915 73.076 77.7021 72.87C77.515 72.6641 77.2558 72.5611 76.9244 72.5611C76.6995 72.5611 76.4994 72.6108 76.3242 72.7102C76.1514 72.8073 76.0153 72.9482 75.9158 73.1328C75.8188 73.3175 75.7702 73.5412 75.7702 73.804ZM82.9933 77.1065C82.4464 77.1065 81.9741 76.9929 81.5763 76.7656C81.181 76.536 80.8768 76.2116 80.6637 75.7926C80.4506 75.3712 80.3441 74.8752 80.3441 74.3047C80.3441 73.7436 80.4506 73.2512 80.6637 72.8274C80.8791 72.4013 81.1798 72.0698 81.5657 71.8331C81.9516 71.594 82.4049 71.4744 82.9258 71.4744C83.262 71.4744 83.5792 71.5289 83.8775 71.6378C84.1781 71.7443 84.4433 71.91 84.6729 72.1349C84.9049 72.3598 85.0872 72.6463 85.2198 72.9943C85.3524 73.34 85.4187 73.7519 85.4187 74.2301V74.6243H80.9478V73.7578H84.1864C84.1841 73.5116 84.1308 73.2926 84.0266 73.1009C83.9225 72.9067 83.7769 72.754 83.5898 72.6428C83.4052 72.5315 83.1897 72.4759 82.9435 72.4759C82.6808 72.4759 82.4499 72.5398 82.2511 72.6676C82.0522 72.7931 81.8971 72.9588 81.7859 73.1648C81.677 73.3684 81.6213 73.5921 81.619 73.8359V74.5923C81.619 74.9096 81.677 75.1818 81.793 75.4091C81.909 75.634 82.0711 75.8068 82.2795 75.9276C82.4878 76.0459 82.7317 76.1051 83.011 76.1051C83.198 76.1051 83.3673 76.0791 83.5188 76.027C83.6703 75.9725 83.8017 75.8932 83.913 75.7891C84.0243 75.6849 84.1083 75.5559 84.1651 75.402L85.3654 75.5369C85.2897 75.8542 85.1452 76.1312 84.9322 76.3679C84.7215 76.6023 84.4516 76.7846 84.1225 76.9148C83.7934 77.0426 83.417 77.1065 82.9933 77.1065ZM87.7917 73.804V77H86.5062V71.5455H87.7349V72.4723H87.7988C87.9243 72.1669 88.1243 71.9242 88.399 71.7443C88.676 71.5644 89.0181 71.4744 89.4252 71.4744C89.8017 71.4744 90.1296 71.5549 90.4089 71.7159C90.6906 71.8769 90.9084 72.1101 91.0623 72.4155C91.2186 72.7209 91.2955 73.0914 91.2931 73.527V77H90.0076V73.7259C90.0076 73.3613 89.9129 73.076 89.7235 72.87C89.5365 72.6641 89.2773 72.5611 88.9458 72.5611C88.7209 72.5611 88.5209 72.6108 88.3457 72.7102C88.1729 72.8073 88.0368 72.9482 87.9373 73.1328C87.8403 73.3175 87.7917 73.5412 87.7917 73.804ZM95.3237 71.5455V72.5398H92.188V71.5455H95.3237ZM92.9622 70.2386H94.2477V75.3594C94.2477 75.5322 94.2737 75.6648 94.3258 75.7571C94.3803 75.8471 94.4513 75.9086 94.5389 75.9418C94.6265 75.9749 94.7235 75.9915 94.8301 75.9915C94.9106 75.9915 94.984 75.9856 95.0502 75.9737C95.1189 75.9619 95.171 75.9512 95.2065 75.9418L95.4231 76.9467C95.3545 76.9704 95.2562 76.9964 95.1284 77.0249C95.0029 77.0533 94.849 77.0698 94.6667 77.0746C94.3448 77.084 94.0547 77.0355 93.7967 76.929C93.5386 76.8201 93.3339 76.652 93.1824 76.4247C93.0332 76.1974 92.9598 75.9134 92.9622 75.5724V70.2386Z" fill="white"/>
<circle cx="10" cy="74" r="2" fill="#9E1948"/>
<circle cx="21" cy="74" r="2" fill="#D9BD04"/>
<circle cx="32" cy="74" r="2" fill="#14A800"/>
<rect x="258" y="234" width="22" height="5" fill="#909497"/>
<rect x="245" y="246" width="46" height="14" fill="#909497"/>
<rect x="344" y="9" width="10" height="5" fill="#909497"/>
<rect x="310" y="236" width="12" height="3" fill="#909497"/>
<rect x="310" y="242" width="10" height="3" fill="#909497"/>
<rect x="335" y="242" width="10" height="3" fill="#909497"/>
<rect x="360" y="242" width="10" height="3" fill="#909497"/>
<rect x="385" y="242" width="10" height="3" fill="#909497"/>
<rect x="335" y="247" width="10" height="3" fill="#909497"/>
<rect x="360" y="247" width="10" height="3" fill="#909497"/>
<rect x="385" y="247" width="10" height="3" fill="#909497"/>
<rect x="335" y="252" width="10" height="3" fill="#909497"/>
<rect x="360" y="252" width="10" height="3" fill="#909497"/>
<rect x="385" y="252" width="10" height="3" fill="#909497"/>
<rect x="335" y="257" width="10" height="3" fill="#909497"/>
<rect x="310" y="247" width="10" height="3" fill="#909497"/>
<rect x="310" y="252" width="10" height="3" fill="#909497"/>
<rect x="361" y="9" width="10" height="5" fill="#909497"/>
<rect x="335" y="236" width="12" height="3" fill="#909497"/>
<rect x="360" y="236" width="12" height="3" fill="#909497"/>
<rect x="385" y="236" width="12" height="3" fill="#909497"/>
<rect x="378" y="9" width="10" height="5" fill="#909497"/>
<rect x="395" y="9" width="10" height="5" fill="#909497"/>
<path d="M91.1667 122C91.1667 122.736 91.7636 123.333 92.5 123.333C93.2364 123.333 93.8333 122.736 93.8333 122C93.8333 121.264 93.2364 120.667 92.5 120.667C91.7636 120.667 91.1667 121.264 91.1667 122ZM196 122V122.25H196.25V122H196ZM196 12.5V12.25H195.75V12.5H196ZM228.5 12.5L226 11.0566V13.9434L228.5 12.5ZM92.5 122V122.25H196V122V121.75H92.5V122ZM196 122H196.25V12.5H196H195.75V122H196ZM196 12.5V12.75H226.25V12.5V12.25H196V12.5Z" fill="#909497"/>
<path d="M90.6667 150C90.6667 149.264 91.2636 148.667 92 148.667C92.7364 148.667 93.3333 149.264 93.3333 150C93.3333 150.736 92.7364 151.333 92 151.333C91.2636 151.333 90.6667 150.736 90.6667 150ZM195.5 150V149.75H195.75V150H195.5ZM195.5 252V252.25H195.25V252H195.5ZM228 252L225.5 253.443V250.557L228 252ZM92 150V149.75H195.5V150V150.25H92V150ZM195.5 150H195.75V252H195.5H195.25V150H195.5ZM195.5 252V251.75H225.75V252V252.25H195.5V252Z" fill="#909497"/>
<path d="M143.167 136.5C143.167 137.236 143.764 137.833 144.5 137.833C145.236 137.833 145.833 137.236 145.833 136.5C145.833 135.764 145.236 135.167 144.5 135.167C143.764 135.167 143.167 135.764 143.167 136.5ZM208.5 47.5V47.25H208.25V47.5H208.5ZM225.5 47.5L223 46.0566V48.9434L225.5 47.5ZM208.5 207H208.25V207.25H208.5V207ZM225.5 207L223 205.557V208.443L225.5 207ZM144.5 136.5V136.75H208.5V136.5V136.25H144.5V136.5ZM208.5 136.5H208.75V47.5H208.5H208.25V136.5H208.5ZM208.5 47.5V47.75H223.25V47.5V47.25H208.5V47.5ZM208.5 136.5H208.25V207H208.5H208.75V136.5H208.5ZM208.5 207V207.25H223.25V207V206.75H208.5V207Z" fill="#909497"/>
</svg>
