<svg width="565" height="233" viewBox="0 0 565 233" fill="none" xmlns="http://www.w3.org/2000/svg">
<g opacity="0.3" filter="url(#filter0_d_144_458)" style="mix-blend-mode:color-dodge">
<path d="M155 119.121L130.708 119.121M130.708 119.121L122.231 119.121C112.573 119.121 103.779 124.684 99.6416 133.411L94.1181 145.061L88.5946 156.71C84.457 165.437 75.6629 171 66.005 171L12 171M130.708 119.121L117.393 91.0377C113.256 82.311 104.425 76.748 94.7674 76.748C85.1095 76.748 76.2791 71.1851 72.1415 62.4584L67.3203 52.2897C63.1827 43.5629 54.3886 38 44.7307 38L15.3611 38M94.1181 145.061L83.2365 122.11C80.5984 116.546 74.9912 112.999 68.8333 112.999M46.5278 112.999L68.8333 112.999M68.8333 112.999L67.3203 109.807C63.1827 101.081 54.3886 95.5178 44.7307 95.5178L19.3333 95.5178" stroke="url(#paint0_radial_144_458)" shape-rendering="crispEdges"/>
</g>
<g opacity="0.3" filter="url(#filter1_d_144_458)" style="mix-blend-mode:color-dodge">
<path d="M410 110.879H434.292M553 59H498.995C489.337 59 480.543 64.5629 476.405 73.2897L470.882 84.9395M434.292 110.879H442.769C452.427 110.879 461.221 105.316 465.358 96.5892L470.882 84.9395M434.292 110.879L447.607 138.962C451.744 147.689 460.575 153.252 470.233 153.252C479.891 153.252 488.721 158.815 492.858 167.542L497.68 177.71C501.817 186.437 510.611 192 520.269 192H549.639M470.882 84.9395L481.763 107.89C484.402 113.454 490.009 117.001 496.167 117.001M518.472 117.001H496.167M496.167 117.001L497.68 120.193C501.817 128.919 510.611 134.482 520.269 134.482H545.667" stroke="url(#paint1_radial_144_458)" shape-rendering="crispEdges"/>
</g>
<rect x="155.001" width="255" height="233" fill="url(#paint2_radial_144_458)"/>
<g clip-path="url(#clip0_144_458)">
<rect x="210" y="22" width="0.5" height="0.5" transform="rotate(-180 210 22)" fill="#FAFFDD" fill-opacity="0.5"/>
<rect x="301" y="2" width="0.5" height="0.5" transform="rotate(-180 301 2)" fill="#FAFFDD" fill-opacity="0.3"/>
<rect x="355" y="38" width="0.5" height="0.5" transform="rotate(-180 355 38)" fill="#FAFFDD" fill-opacity="0.3"/>
<rect x="335" y="50" width="0.5" height="0.5" transform="rotate(-180 335 50)" fill="#FAFFDD" fill-opacity="0.3"/>
<rect x="319" y="113" width="0.5" height="0.5" transform="rotate(-180 319 113)" fill="#FAFFDD" fill-opacity="0.3"/>
<rect x="215" y="57" width="0.5" height="0.5" transform="rotate(-180 215 57)" fill="#FAFFDD"/>
<rect x="309" y="20" width="0.5" height="0.5" transform="rotate(-180 309 20)" fill="#FAFFDD" fill-opacity="0.5"/>
<rect x="352" y="75" width="0.5" height="0.5" transform="rotate(-180 352 75)" fill="#FAFFDD" fill-opacity="0.3"/>
<rect x="273" y="19" width="0.5" height="0.5" transform="rotate(-180 273 19)" fill="#FAFFDD"/>
<rect x="269" y="3" width="0.5" height="0.5" transform="rotate(-180 269 3)" fill="#FAFFDD"/>
<rect x="233" y="84" width="0.5" height="0.5" transform="rotate(-180 233 84)" fill="#FAFFDD" fill-opacity="0.5"/>
<rect x="298" y="37" width="1" height="1" fill="#FAFFDD" fill-opacity="0.4"/>
<rect x="275" y="64" width="1" height="1" fill="#FAFFDD" fill-opacity="0.4"/>
<circle cx="354" cy="32" r="2" fill="#14A800"/>
</g>
<path d="M359.861 36V27.2727H361.442V34.6747H365.286V36H359.861ZM367.189 36V29.4545H368.732V36H367.189ZM367.965 28.5256C367.721 28.5256 367.511 28.4446 367.334 28.2827C367.158 28.1179 367.07 27.9205 367.07 27.6903C367.07 27.4574 367.158 27.2599 367.334 27.098C367.511 26.9332 367.721 26.8509 367.965 26.8509C368.212 26.8509 368.422 26.9332 368.596 27.098C368.772 27.2599 368.86 27.4574 368.86 27.6903C368.86 27.9205 368.772 28.1179 368.596 28.2827C368.422 28.4446 368.212 28.5256 367.965 28.5256ZM376.765 29.4545L374.434 36H372.729L370.399 29.4545H372.043L373.548 34.3168H373.616L375.124 29.4545H376.765ZM381.108 36.1278C380.451 36.1278 379.885 35.9915 379.407 35.7188C378.933 35.4432 378.568 35.054 378.312 34.5511C378.056 34.0455 377.929 33.4503 377.929 32.7656C377.929 32.0923 378.056 31.5014 378.312 30.9929C378.571 30.4815 378.931 30.0838 379.394 29.7997C379.858 29.5128 380.402 29.3693 381.027 29.3693C381.43 29.3693 381.811 29.4347 382.169 29.5653C382.529 29.6932 382.848 29.892 383.123 30.1619C383.402 30.4318 383.62 30.7756 383.779 31.1932C383.938 31.608 384.018 32.1023 384.018 32.6761V33.1491H378.653V32.1094H382.539C382.537 31.8139 382.473 31.5511 382.348 31.321C382.223 31.0881 382.048 30.9048 381.823 30.7713C381.602 30.6378 381.343 30.571 381.048 30.571C380.733 30.571 380.456 30.6477 380.217 30.8011C379.978 30.9517 379.792 31.1506 379.659 31.3977C379.528 31.642 379.461 31.9105 379.458 32.2031V33.1108C379.458 33.4915 379.528 33.8182 379.667 34.0909C379.806 34.3608 380.001 34.5682 380.251 34.7131C380.501 34.8551 380.794 34.9261 381.129 34.9261C381.353 34.9261 381.556 34.8949 381.738 34.8324C381.92 34.767 382.078 34.6719 382.211 34.5469C382.345 34.4219 382.446 34.267 382.514 34.0824L383.954 34.2443C383.863 34.625 383.69 34.9574 383.434 35.2415C383.181 35.5227 382.858 35.7415 382.463 35.8977C382.068 36.0511 381.616 36.1278 381.108 36.1278Z" fill="#D9D9D9"/>
<circle cx="283.001" cy="111" r="50" fill="#D9D9D9"/>
<circle cx="283.001" cy="111" r="45" fill="#242424"/>
<rect x="281" y="60" width="2" height="7" fill="#242424"/>
<path d="M271.046 97.4602C272.12 97.4687 273.194 97.6733 274.268 98.0739C275.341 98.4744 276.322 99.1392 277.208 100.068C278.094 100.989 278.806 102.246 279.343 103.839C279.88 105.433 280.148 107.432 280.148 109.835C280.148 112.162 279.927 114.229 279.483 116.036C279.049 117.834 278.418 119.351 277.591 120.587C276.773 121.822 275.776 122.76 274.6 123.399C273.432 124.038 272.111 124.358 270.637 124.358C269.171 124.358 267.863 124.068 266.712 123.489C265.57 122.901 264.633 122.087 263.9 121.047C263.175 119.999 262.711 118.784 262.506 117.403H265.625C265.907 118.605 266.465 119.598 267.3 120.382C268.144 121.158 269.256 121.545 270.637 121.545C272.657 121.545 274.25 120.663 275.418 118.899C276.594 117.135 277.182 114.642 277.182 111.42H276.978C276.5 112.136 275.934 112.754 275.277 113.274C274.621 113.794 273.893 114.195 273.091 114.476C272.29 114.757 271.438 114.898 270.535 114.898C269.035 114.898 267.658 114.527 266.405 113.786C265.161 113.036 264.164 112.009 263.414 110.705C262.672 109.392 262.302 107.892 262.302 106.205C262.302 104.602 262.66 103.136 263.375 101.807C264.1 100.469 265.114 99.4034 266.418 98.6108C267.731 97.8182 269.273 97.4347 271.046 97.4602ZM271.046 100.273C269.972 100.273 269.005 100.541 268.144 101.078C267.292 101.607 266.614 102.322 266.111 103.226C265.617 104.121 265.37 105.114 265.37 106.205C265.37 107.295 265.608 108.288 266.086 109.183C266.572 110.07 267.232 110.777 268.067 111.305C268.911 111.825 269.87 112.085 270.944 112.085C271.753 112.085 272.508 111.928 273.206 111.612C273.905 111.288 274.515 110.849 275.035 110.295C275.563 109.733 275.976 109.098 276.275 108.391C276.573 107.675 276.722 106.929 276.722 106.153C276.722 105.131 276.475 104.172 275.981 103.277C275.495 102.382 274.822 101.658 273.961 101.104C273.108 100.55 272.137 100.273 271.046 100.273ZM293.511 97.4602C294.585 97.4687 295.659 97.6733 296.732 98.0739C297.806 98.4744 298.786 99.1392 299.673 100.068C300.559 100.989 301.271 102.246 301.808 103.839C302.345 105.433 302.613 107.432 302.613 109.835C302.613 112.162 302.391 114.229 301.948 116.036C301.514 117.834 300.883 119.351 300.056 120.587C299.238 121.822 298.241 122.76 297.065 123.399C295.897 124.038 294.576 124.358 293.102 124.358C291.636 124.358 290.328 124.068 289.177 123.489C288.035 122.901 287.097 122.087 286.364 121.047C285.64 119.999 285.176 118.784 284.971 117.403H288.09C288.372 118.605 288.93 119.598 289.765 120.382C290.609 121.158 291.721 121.545 293.102 121.545C295.122 121.545 296.715 120.663 297.883 118.899C299.059 117.135 299.647 114.642 299.647 111.42H299.443C298.965 112.136 298.399 112.754 297.742 113.274C297.086 113.794 296.357 114.195 295.556 114.476C294.755 114.757 293.903 114.898 292.999 114.898C291.499 114.898 290.123 114.527 288.87 113.786C287.626 113.036 286.629 112.009 285.879 110.705C285.137 109.392 284.766 107.892 284.766 106.205C284.766 104.602 285.124 103.136 285.84 101.807C286.565 100.469 287.579 99.4034 288.883 98.6108C290.195 97.8182 291.738 97.4347 293.511 97.4602ZM293.511 100.273C292.437 100.273 291.47 100.541 290.609 101.078C289.757 101.607 289.079 102.322 288.576 103.226C288.082 104.121 287.835 105.114 287.835 106.205C287.835 107.295 288.073 108.288 288.551 109.183C289.036 110.07 289.697 110.777 290.532 111.305C291.376 111.825 292.335 112.085 293.409 112.085C294.218 112.085 294.972 111.928 295.671 111.612C296.37 111.288 296.98 110.849 297.499 110.295C298.028 109.733 298.441 109.098 298.739 108.391C299.038 107.675 299.187 106.929 299.187 106.153C299.187 105.131 298.94 104.172 298.445 103.277C297.96 102.382 297.286 101.658 296.426 101.104C295.573 100.55 294.602 100.273 293.511 100.273Z" fill="#D9D9D9"/>
<path d="M189.861 36V27.2727H195.452V28.598H191.442V30.9673H195.068V32.2926H191.442V36H189.861ZM199.249 36.1321C198.834 36.1321 198.46 36.0582 198.128 35.9105C197.799 35.7599 197.537 35.5384 197.344 35.2457C197.154 34.9531 197.058 34.5923 197.058 34.1634C197.058 33.794 197.127 33.4886 197.263 33.2472C197.399 33.0057 197.585 32.8125 197.821 32.6676C198.057 32.5227 198.323 32.4134 198.618 32.3395C198.916 32.2628 199.225 32.2074 199.543 32.1733C199.926 32.1335 200.237 32.098 200.476 32.0668C200.715 32.0327 200.888 31.9815 200.996 31.9134C201.107 31.8423 201.162 31.733 201.162 31.5852V31.5597C201.162 31.2386 201.067 30.9901 200.877 30.8139C200.686 30.6378 200.412 30.5497 200.054 30.5497C199.676 30.5497 199.377 30.6321 199.155 30.7969C198.936 30.9616 198.789 31.1562 198.712 31.3807L197.272 31.1761C197.385 30.7784 197.573 30.446 197.834 30.179C198.095 29.9091 198.415 29.7074 198.793 29.5739C199.171 29.4375 199.588 29.3693 200.046 29.3693C200.361 29.3693 200.675 29.4062 200.987 29.4801C201.3 29.554 201.585 29.6761 201.844 29.8466C202.102 30.0142 202.31 30.2429 202.466 30.5327C202.625 30.8224 202.705 31.1847 202.705 31.6193V36H201.222V35.1009H201.171C201.077 35.2827 200.945 35.4531 200.774 35.6122C200.607 35.7685 200.395 35.8949 200.139 35.9915C199.887 36.0852 199.59 36.1321 199.249 36.1321ZM199.649 34.9986C199.959 34.9986 200.227 34.9375 200.455 34.8153C200.682 34.6903 200.857 34.5256 200.979 34.321C201.104 34.1165 201.166 33.8935 201.166 33.652V32.8807C201.118 32.9205 201.036 32.9574 200.919 32.9915C200.806 33.0256 200.678 33.0554 200.536 33.081C200.394 33.1065 200.253 33.1293 200.114 33.1491C199.975 33.169 199.854 33.1861 199.752 33.2003C199.522 33.2315 199.316 33.2827 199.134 33.3537C198.952 33.4247 198.808 33.5241 198.703 33.652C198.598 33.777 198.546 33.9389 198.546 34.1378C198.546 34.4219 198.649 34.6364 198.857 34.7812C199.064 34.9261 199.328 34.9986 199.649 34.9986ZM210.029 31.1847L208.623 31.3381C208.583 31.196 208.514 31.0625 208.414 30.9375C208.318 30.8125 208.187 30.7116 208.022 30.6349C207.857 30.5582 207.656 30.5199 207.417 30.5199C207.096 30.5199 206.826 30.5895 206.607 30.7287C206.391 30.8679 206.285 31.0483 206.288 31.2699C206.285 31.4602 206.354 31.6151 206.497 31.7344C206.641 31.8537 206.88 31.9517 207.212 32.0284L208.329 32.267C208.948 32.4006 209.408 32.6122 209.71 32.902C210.014 33.1918 210.167 33.571 210.17 34.0398C210.167 34.4517 210.046 34.8153 209.808 35.1307C209.572 35.4432 209.244 35.6875 208.823 35.8636C208.403 36.0398 207.92 36.1278 207.374 36.1278C206.573 36.1278 205.928 35.9602 205.44 35.625C204.951 35.2869 204.66 34.8168 204.566 34.2145L206.07 34.0696C206.139 34.3651 206.283 34.5881 206.505 34.7386C206.727 34.8892 207.015 34.9645 207.37 34.9645C207.737 34.9645 208.031 34.8892 208.252 34.7386C208.477 34.5881 208.589 34.402 208.589 34.1804C208.589 33.9929 208.516 33.8381 208.372 33.7159C208.229 33.5937 208.008 33.5 207.707 33.4347L206.59 33.2003C205.962 33.0696 205.498 32.8494 205.197 32.5398C204.896 32.2273 204.747 31.8324 204.749 31.3551C204.747 30.9517 204.856 30.6023 205.077 30.3068C205.302 30.0085 205.613 29.7784 206.011 29.6165C206.411 29.4517 206.873 29.3693 207.396 29.3693C208.163 29.3693 208.766 29.5327 209.207 29.8594C209.65 30.1861 209.924 30.6278 210.029 31.1847ZM215.31 29.4545V30.6477H211.548V29.4545H215.31ZM212.476 27.8864H214.019V34.0312C214.019 34.2386 214.05 34.3977 214.113 34.5085C214.178 34.6165 214.263 34.6903 214.369 34.7301C214.474 34.7699 214.59 34.7898 214.718 34.7898C214.815 34.7898 214.903 34.7827 214.982 34.7685C215.065 34.7543 215.127 34.7415 215.17 34.7301L215.43 35.9361C215.347 35.9645 215.229 35.9957 215.076 36.0298C214.925 36.0639 214.741 36.0838 214.522 36.0895C214.136 36.1009 213.788 36.0426 213.478 35.9148C213.168 35.7841 212.923 35.5824 212.741 35.3097C212.562 35.0369 212.474 34.696 212.476 34.2869V27.8864ZM220.845 36V27.2727H224.118C224.788 27.2727 225.351 27.3977 225.805 27.6477C226.263 27.8977 226.608 28.2415 226.841 28.679C227.077 29.1136 227.195 29.608 227.195 30.1619C227.195 30.7216 227.077 31.2187 226.841 31.6534C226.605 32.0881 226.257 32.4304 225.797 32.6804C225.337 32.9276 224.77 33.0511 224.097 33.0511H221.928V31.7514H223.884C224.276 31.7514 224.597 31.6832 224.847 31.5469C225.097 31.4105 225.281 31.223 225.401 30.9844C225.523 30.7457 225.584 30.4716 225.584 30.1619C225.584 29.8523 225.523 29.5795 225.401 29.3438C225.281 29.108 225.095 28.9247 224.842 28.794C224.592 28.6605 224.27 28.5938 223.875 28.5938H222.426V36H220.845ZM231.904 36.1278C231.247 36.1278 230.681 35.9915 230.203 35.7188C229.729 35.4432 229.364 35.054 229.108 34.5511C228.852 34.0455 228.725 33.4503 228.725 32.7656C228.725 32.0923 228.852 31.5014 229.108 30.9929C229.367 30.4815 229.727 30.0838 230.191 29.7997C230.654 29.5128 231.198 29.3693 231.823 29.3693C232.226 29.3693 232.607 29.4347 232.965 29.5653C233.325 29.6932 233.644 29.892 233.919 30.1619C234.198 30.4318 234.416 30.7756 234.575 31.1932C234.735 31.608 234.814 32.1023 234.814 32.6761V33.1491H229.449V32.1094H233.335C233.333 31.8139 233.269 31.5511 233.144 31.321C233.019 31.0881 232.844 30.9048 232.62 30.7713C232.398 30.6378 232.139 30.571 231.844 30.571C231.529 30.571 231.252 30.6477 231.013 30.8011C230.774 30.9517 230.588 31.1506 230.455 31.3977C230.324 31.642 230.257 31.9105 230.254 32.2031V33.1108C230.254 33.4915 230.324 33.8182 230.463 34.0909C230.602 34.3608 230.797 34.5682 231.047 34.7131C231.297 34.8551 231.59 34.9261 231.925 34.9261C232.149 34.9261 232.352 34.8949 232.534 34.8324C232.716 34.767 232.874 34.6719 233.007 34.5469C233.141 34.4219 233.242 34.267 233.31 34.0824L234.75 34.2443C234.659 34.625 234.486 34.9574 234.23 35.2415C233.977 35.5227 233.654 35.7415 233.259 35.8977C232.864 36.0511 232.412 36.1278 231.904 36.1278ZM236.719 36V29.4545H238.215V30.5455H238.283C238.402 30.1676 238.607 29.8764 238.897 29.6719C239.189 29.4645 239.523 29.3608 239.898 29.3608C239.983 29.3608 240.079 29.3651 240.184 29.3736C240.292 29.3793 240.381 29.3892 240.452 29.4034V30.8224C240.387 30.7997 240.283 30.7798 240.141 30.7628C240.002 30.7429 239.867 30.733 239.736 30.733C239.455 30.733 239.202 30.794 238.978 30.9162C238.756 31.0355 238.581 31.2017 238.454 31.4148C238.326 31.6278 238.262 31.8736 238.262 32.152V36H236.719ZM245.744 29.4545V30.6477H241.875V29.4545H245.744ZM242.842 36V28.8366C242.842 28.3963 242.933 28.0298 243.115 27.7372C243.299 27.4446 243.546 27.2259 243.856 27.081C244.166 26.9361 244.51 26.8636 244.887 26.8636C245.154 26.8636 245.392 26.8849 245.599 26.9276C245.806 26.9702 245.96 27.0085 246.059 27.0426L245.752 28.2358C245.687 28.2159 245.605 28.196 245.505 28.1761C245.406 28.1534 245.295 28.142 245.173 28.142C244.886 28.142 244.683 28.2116 244.563 28.3509C244.447 28.4872 244.389 28.6832 244.389 28.9389V36H242.842ZM250.161 36.1278C249.522 36.1278 248.968 35.9872 248.499 35.706C248.03 35.4247 247.667 35.0312 247.408 34.5256C247.152 34.0199 247.025 33.429 247.025 32.7528C247.025 32.0767 247.152 31.4844 247.408 30.9759C247.667 30.4673 248.03 30.0724 248.499 29.7912C248.968 29.5099 249.522 29.3693 250.161 29.3693C250.8 29.3693 251.354 29.5099 251.823 29.7912C252.292 30.0724 252.654 30.4673 252.91 30.9759C253.168 31.4844 253.297 32.0767 253.297 32.7528C253.297 33.429 253.168 34.0199 252.91 34.5256C252.654 35.0312 252.292 35.4247 251.823 35.706C251.354 35.9872 250.8 36.1278 250.161 36.1278ZM250.17 34.892C250.516 34.892 250.806 34.7969 251.039 34.6065C251.272 34.4134 251.445 34.1548 251.559 33.831C251.675 33.5071 251.733 33.1463 251.733 32.7486C251.733 32.348 251.675 31.9858 251.559 31.6619C251.445 31.3352 251.272 31.0753 251.039 30.8821C250.806 30.6889 250.516 30.5923 250.17 30.5923C249.814 30.5923 249.519 30.6889 249.283 30.8821C249.05 31.0753 248.875 31.3352 248.759 31.6619C248.645 31.9858 248.589 32.348 248.589 32.7486C248.589 33.1463 248.645 33.5071 248.759 33.831C248.875 34.1548 249.05 34.4134 249.283 34.6065C249.519 34.7969 249.814 34.892 250.17 34.892ZM255.207 36V29.4545H256.702V30.5455H256.771C256.89 30.1676 257.094 29.8764 257.384 29.6719C257.677 29.4645 258.011 29.3608 258.386 29.3608C258.471 29.3608 258.566 29.3651 258.671 29.3736C258.779 29.3793 258.869 29.3892 258.94 29.4034V30.8224C258.874 30.7997 258.771 30.7798 258.629 30.7628C258.489 30.7429 258.354 30.733 258.224 30.733C257.942 30.733 257.69 30.794 257.465 30.9162C257.244 31.0355 257.069 31.2017 256.941 31.4148C256.813 31.6278 256.749 31.8736 256.749 32.152V36H255.207ZM260.564 36V29.4545H262.039V30.5668H262.116C262.252 30.1918 262.478 29.8991 262.793 29.6889C263.109 29.4759 263.485 29.3693 263.922 29.3693C264.366 29.3693 264.739 29.4773 265.043 29.6932C265.35 29.9062 265.566 30.1974 265.691 30.5668H265.759C265.904 30.2031 266.148 29.9134 266.492 29.6974C266.839 29.4787 267.249 29.3693 267.724 29.3693C268.326 29.3693 268.817 29.5597 269.198 29.9403C269.579 30.321 269.769 30.8764 269.769 31.6065V36H268.222V31.8452C268.222 31.4389 268.114 31.142 267.898 30.9545C267.682 30.7642 267.418 30.669 267.106 30.669C266.734 30.669 266.442 30.7855 266.232 31.0185C266.025 31.2486 265.921 31.5483 265.921 31.9176V36H264.408V31.7812C264.408 31.4432 264.306 31.1733 264.101 30.9716C263.9 30.7699 263.636 30.669 263.309 30.669C263.087 30.669 262.886 30.7259 262.704 30.8395C262.522 30.9503 262.377 31.108 262.269 31.3125C262.161 31.5142 262.107 31.75 262.107 32.0199V36H260.564ZM273.818 36.1321C273.403 36.1321 273.029 36.0582 272.697 35.9105C272.367 35.7599 272.106 35.5384 271.913 35.2457C271.722 34.9531 271.627 34.5923 271.627 34.1634C271.627 33.794 271.695 33.4886 271.832 33.2472C271.968 33.0057 272.154 32.8125 272.39 32.6676C272.626 32.5227 272.891 32.4134 273.187 32.3395C273.485 32.2628 273.793 32.2074 274.112 32.1733C274.495 32.1335 274.806 32.098 275.045 32.0668C275.283 32.0327 275.457 31.9815 275.565 31.9134C275.675 31.8423 275.731 31.733 275.731 31.5852V31.5597C275.731 31.2386 275.636 30.9901 275.445 30.8139C275.255 30.6378 274.981 30.5497 274.623 30.5497C274.245 30.5497 273.945 30.6321 273.724 30.7969C273.505 30.9616 273.357 31.1562 273.281 31.3807L271.84 31.1761C271.954 30.7784 272.141 30.446 272.403 30.179C272.664 29.9091 272.984 29.7074 273.362 29.5739C273.739 29.4375 274.157 29.3693 274.614 29.3693C274.93 29.3693 275.244 29.4062 275.556 29.4801C275.869 29.554 276.154 29.6761 276.413 29.8466C276.671 30.0142 276.879 30.2429 277.035 30.5327C277.194 30.8224 277.274 31.1847 277.274 31.6193V36H275.791V35.1009H275.739C275.646 35.2827 275.514 35.4531 275.343 35.6122C275.175 35.7685 274.964 35.8949 274.708 35.9915C274.455 36.0852 274.158 36.1321 273.818 36.1321ZM274.218 34.9986C274.528 34.9986 274.796 34.9375 275.024 34.8153C275.251 34.6903 275.425 34.5256 275.548 34.321C275.673 34.1165 275.735 33.8935 275.735 33.652V32.8807C275.687 32.9205 275.604 32.9574 275.488 32.9915C275.374 33.0256 275.247 33.0554 275.104 33.081C274.962 33.1065 274.822 33.1293 274.683 33.1491C274.543 33.169 274.423 33.1861 274.32 33.2003C274.09 33.2315 273.884 33.2827 273.702 33.3537C273.521 33.4247 273.377 33.5241 273.272 33.652C273.167 33.777 273.114 33.9389 273.114 34.1378C273.114 34.4219 273.218 34.6364 273.425 34.7812C273.633 34.9261 273.897 34.9986 274.218 34.9986ZM280.967 32.1648V36H279.425V29.4545H280.899V30.5668H280.976C281.126 30.2003 281.366 29.9091 281.696 29.6932C282.028 29.4773 282.439 29.3693 282.927 29.3693C283.379 29.3693 283.773 29.4659 284.108 29.6591C284.446 29.8523 284.707 30.1321 284.892 30.4986C285.079 30.8651 285.172 31.3097 285.169 31.8324V36H283.626V32.071C283.626 31.6335 283.513 31.2912 283.285 31.044C283.061 30.7969 282.75 30.6733 282.352 30.6733C282.082 30.6733 281.842 30.733 281.632 30.8523C281.425 30.9687 281.261 31.1378 281.142 31.3594C281.026 31.581 280.967 31.8494 280.967 32.1648ZM290.192 36.1278C289.539 36.1278 288.978 35.9844 288.509 35.6974C288.043 35.4105 287.684 35.0142 287.431 34.5085C287.181 34 287.056 33.4148 287.056 32.7528C287.056 32.0881 287.184 31.5014 287.439 30.9929C287.695 30.4815 288.056 30.0838 288.522 29.7997C288.991 29.5128 289.545 29.3693 290.184 29.3693C290.715 29.3693 291.185 29.4673 291.594 29.6634C292.006 29.8565 292.334 30.1307 292.579 30.4858C292.823 30.8381 292.962 31.25 292.996 31.7216H291.522C291.462 31.4062 291.32 31.1435 291.096 30.9332C290.874 30.7202 290.577 30.6136 290.205 30.6136C289.89 30.6136 289.613 30.6989 289.374 30.8693C289.135 31.0369 288.949 31.2784 288.816 31.5938C288.685 31.9091 288.62 32.2869 288.62 32.7273C288.62 33.1733 288.685 33.5568 288.816 33.8778C288.947 34.196 289.13 34.4418 289.366 34.6151C289.604 34.7855 289.884 34.8707 290.205 34.8707C290.432 34.8707 290.635 34.8281 290.814 34.7429C290.996 34.6548 291.148 34.5284 291.27 34.3636C291.393 34.1989 291.476 33.9986 291.522 33.7628H292.996C292.959 34.2259 292.823 34.6364 292.587 34.9943C292.351 35.3494 292.03 35.6278 291.624 35.8295C291.218 36.0284 290.741 36.1278 290.192 36.1278ZM297.761 36.1278C297.104 36.1278 296.538 35.9915 296.06 35.7188C295.586 35.4432 295.221 35.054 294.965 34.5511C294.71 34.0455 294.582 33.4503 294.582 32.7656C294.582 32.0923 294.71 31.5014 294.965 30.9929C295.224 30.4815 295.585 30.0838 296.048 29.7997C296.511 29.5128 297.055 29.3693 297.68 29.3693C298.083 29.3693 298.464 29.4347 298.822 29.5653C299.183 29.6932 299.501 29.892 299.776 30.1619C300.055 30.4318 300.273 30.7756 300.433 31.1932C300.592 31.608 300.671 32.1023 300.671 32.6761V33.1491H295.306V32.1094H299.192C299.19 31.8139 299.126 31.5511 299.001 31.321C298.876 31.0881 298.701 30.9048 298.477 30.7713C298.255 30.6378 297.996 30.571 297.701 30.571C297.386 30.571 297.109 30.6477 296.87 30.8011C296.631 30.9517 296.445 31.1506 296.312 31.3977C296.181 31.642 296.114 31.9105 296.112 32.2031V33.1108C296.112 33.4915 296.181 33.8182 296.32 34.0909C296.46 34.3608 296.654 34.5682 296.904 34.7131C297.154 34.8551 297.447 34.9261 297.782 34.9261C298.006 34.9261 298.21 34.8949 298.391 34.8324C298.573 34.767 298.731 34.6719 298.864 34.5469C298.998 34.4219 299.099 34.267 299.167 34.0824L300.607 34.2443C300.516 34.625 300.343 34.9574 300.087 35.2415C299.835 35.5227 299.511 35.7415 299.116 35.8977C298.721 36.0511 298.269 36.1278 297.761 36.1278Z" fill="#D9D9D9"/>
<path d="M206.66 206.636C206.66 207.577 206.484 208.382 206.132 209.053C205.782 209.72 205.305 210.232 204.7 210.587C204.098 210.942 203.414 211.119 202.65 211.119C201.886 211.119 201.201 210.942 200.596 210.587C199.994 210.229 199.517 209.716 199.164 209.048C198.815 208.378 198.64 207.574 198.64 206.636C198.64 205.696 198.815 204.892 199.164 204.224C199.517 203.554 199.994 203.041 200.596 202.686C201.201 202.331 201.886 202.153 202.65 202.153C203.414 202.153 204.098 202.331 204.7 202.686C205.305 203.041 205.782 203.554 206.132 204.224C206.484 204.892 206.66 205.696 206.66 206.636ZM205.071 206.636C205.071 205.974 204.967 205.416 204.759 204.962C204.555 204.504 204.271 204.159 203.907 203.926C203.544 203.69 203.125 203.572 202.65 203.572C202.176 203.572 201.757 203.69 201.393 203.926C201.029 204.159 200.744 204.504 200.536 204.962C200.332 205.416 200.23 205.974 200.23 206.636C200.23 207.298 200.332 207.858 200.536 208.315C200.744 208.77 201.029 209.115 201.393 209.351C201.757 209.584 202.176 209.7 202.65 209.7C203.125 209.7 203.544 209.584 203.907 209.351C204.271 209.115 204.555 208.77 204.759 208.315C204.967 207.858 205.071 207.298 205.071 206.636ZM208.687 213.455V204.455H210.204V205.537H210.293C210.373 205.378 210.485 205.209 210.63 205.03C210.775 204.848 210.971 204.693 211.218 204.565C211.465 204.435 211.78 204.369 212.164 204.369C212.67 204.369 213.125 204.499 213.532 204.757C213.941 205.013 214.265 205.392 214.503 205.895C214.745 206.395 214.866 207.009 214.866 207.736C214.866 208.455 214.748 209.065 214.512 209.568C214.276 210.071 213.955 210.455 213.549 210.719C213.143 210.983 212.682 211.115 212.168 211.115C211.793 211.115 211.482 211.053 211.235 210.928C210.988 210.803 210.789 210.652 210.638 210.476C210.491 210.297 210.375 210.128 210.293 209.969H210.229V213.455H208.687ZM210.199 207.727C210.199 208.151 210.259 208.521 210.378 208.839C210.5 209.158 210.675 209.406 210.902 209.585C211.133 209.761 211.411 209.849 211.738 209.849C212.079 209.849 212.364 209.759 212.594 209.577C212.824 209.392 212.998 209.141 213.114 208.822C213.233 208.501 213.293 208.136 213.293 207.727C213.293 207.321 213.235 206.96 213.118 206.645C213.002 206.33 212.829 206.082 212.598 205.903C212.368 205.724 212.081 205.635 211.738 205.635C211.408 205.635 211.128 205.722 210.898 205.895C210.668 206.068 210.493 206.311 210.374 206.624C210.258 206.936 210.199 207.304 210.199 207.727ZM220.055 204.455V205.648H216.292V204.455H220.055ZM217.221 202.886H218.764V209.031C218.764 209.239 218.795 209.398 218.858 209.509C218.923 209.616 219.008 209.69 219.113 209.73C219.218 209.77 219.335 209.79 219.463 209.79C219.559 209.79 219.647 209.783 219.727 209.768C219.809 209.754 219.872 209.741 219.914 209.73L220.174 210.936C220.092 210.964 219.974 210.996 219.821 211.03C219.67 211.064 219.485 211.084 219.267 211.089C218.88 211.101 218.532 211.043 218.223 210.915C217.913 210.784 217.667 210.582 217.485 210.31C217.306 210.037 217.218 209.696 217.221 209.287V202.886ZM221.945 211V204.455H223.488V211H221.945ZM222.721 203.526C222.476 203.526 222.266 203.445 222.09 203.283C221.914 203.118 221.826 202.92 221.826 202.69C221.826 202.457 221.914 202.26 222.09 202.098C222.266 201.933 222.476 201.851 222.721 201.851C222.968 201.851 223.178 201.933 223.351 202.098C223.528 202.26 223.616 202.457 223.616 202.69C223.616 202.92 223.528 203.118 223.351 203.283C223.178 203.445 222.968 203.526 222.721 203.526ZM225.674 211V204.455H227.148V205.567H227.225C227.362 205.192 227.587 204.899 227.903 204.689C228.218 204.476 228.595 204.369 229.032 204.369C229.475 204.369 229.849 204.477 230.153 204.693C230.46 204.906 230.675 205.197 230.8 205.567H230.869C231.014 205.203 231.258 204.913 231.602 204.697C231.948 204.479 232.359 204.369 232.833 204.369C233.435 204.369 233.927 204.56 234.308 204.94C234.688 205.321 234.879 205.876 234.879 206.607V211H233.332V206.845C233.332 206.439 233.224 206.142 233.008 205.955C232.792 205.764 232.528 205.669 232.215 205.669C231.843 205.669 231.552 205.786 231.342 206.018C231.134 206.249 231.031 206.548 231.031 206.918V211H229.518V206.781C229.518 206.443 229.416 206.173 229.211 205.972C229.009 205.77 228.745 205.669 228.418 205.669C228.197 205.669 227.995 205.726 227.813 205.839C227.631 205.95 227.487 206.108 227.379 206.312C227.271 206.514 227.217 206.75 227.217 207.02V211H225.674ZM237.044 211V204.455H238.586V211H237.044ZM237.819 203.526C237.575 203.526 237.365 203.445 237.188 203.283C237.012 203.118 236.924 202.92 236.924 202.69C236.924 202.457 237.012 202.26 237.188 202.098C237.365 201.933 237.575 201.851 237.819 201.851C238.066 201.851 238.277 201.933 238.45 202.098C238.626 202.26 238.714 202.457 238.714 202.69C238.714 202.92 238.626 203.118 238.45 203.283C238.277 203.445 238.066 203.526 237.819 203.526ZM240.687 211V210.02L244.062 205.788V205.733H240.798V204.455H245.95V205.507L242.737 209.666V209.722H246.061V211H240.687ZM250.821 211.128C250.165 211.128 249.598 210.991 249.121 210.719C248.646 210.443 248.281 210.054 248.026 209.551C247.77 209.045 247.642 208.45 247.642 207.766C247.642 207.092 247.77 206.501 248.026 205.993C248.284 205.482 248.645 205.084 249.108 204.8C249.571 204.513 250.115 204.369 250.74 204.369C251.143 204.369 251.524 204.435 251.882 204.565C252.243 204.693 252.561 204.892 252.837 205.162C253.115 205.432 253.334 205.776 253.493 206.193C253.652 206.608 253.732 207.102 253.732 207.676V208.149H248.366V207.109H252.253C252.25 206.814 252.186 206.551 252.061 206.321C251.936 206.088 251.761 205.905 251.537 205.771C251.315 205.638 251.057 205.571 250.761 205.571C250.446 205.571 250.169 205.648 249.93 205.801C249.692 205.952 249.506 206.151 249.372 206.398C249.241 206.642 249.175 206.911 249.172 207.203V208.111C249.172 208.491 249.241 208.818 249.381 209.091C249.52 209.361 249.714 209.568 249.964 209.713C250.214 209.855 250.507 209.926 250.842 209.926C251.067 209.926 251.27 209.895 251.452 209.832C251.634 209.767 251.791 209.672 251.925 209.547C252.058 209.422 252.159 209.267 252.227 209.082L253.668 209.244C253.577 209.625 253.403 209.957 253.148 210.241C252.895 210.523 252.571 210.741 252.176 210.898C251.781 211.051 251.33 211.128 250.821 211.128ZM258.066 211.115C257.551 211.115 257.091 210.983 256.685 210.719C256.279 210.455 255.958 210.071 255.722 209.568C255.486 209.065 255.368 208.455 255.368 207.736C255.368 207.009 255.487 206.395 255.726 205.895C255.968 205.392 256.293 205.013 256.702 204.757C257.111 204.499 257.567 204.369 258.07 204.369C258.453 204.369 258.769 204.435 259.016 204.565C259.263 204.693 259.459 204.848 259.604 205.03C259.749 205.209 259.861 205.378 259.941 205.537H260.004V202.273H261.551V211H260.034V209.969H259.941C259.861 210.128 259.746 210.297 259.595 210.476C259.445 210.652 259.246 210.803 258.999 210.928C258.752 211.053 258.441 211.115 258.066 211.115ZM258.496 209.849C258.823 209.849 259.101 209.761 259.331 209.585C259.561 209.406 259.736 209.158 259.855 208.839C259.975 208.521 260.034 208.151 260.034 207.727C260.034 207.304 259.975 206.936 259.855 206.624C259.739 206.311 259.566 206.068 259.335 205.895C259.108 205.722 258.828 205.635 258.496 205.635C258.152 205.635 257.865 205.724 257.635 205.903C257.405 206.082 257.232 206.33 257.115 206.645C256.999 206.96 256.941 207.321 256.941 207.727C256.941 208.136 256.999 208.501 257.115 208.822C257.235 209.141 257.409 209.392 257.639 209.577C257.872 209.759 258.158 209.849 258.496 209.849ZM270.687 204.455V205.648H266.818V204.455H270.687ZM267.785 211V203.837C267.785 203.396 267.876 203.03 268.058 202.737C268.242 202.445 268.49 202.226 268.799 202.081C269.109 201.936 269.453 201.864 269.831 201.864C270.098 201.864 270.335 201.885 270.542 201.928C270.75 201.97 270.903 202.009 271.002 202.043L270.696 203.236C270.63 203.216 270.548 203.196 270.448 203.176C270.349 203.153 270.238 203.142 270.116 203.142C269.829 203.142 269.626 203.212 269.507 203.351C269.39 203.487 269.332 203.683 269.332 203.939V211H267.785ZM275.104 211.128C274.465 211.128 273.911 210.987 273.442 210.706C272.973 210.425 272.61 210.031 272.351 209.526C272.096 209.02 271.968 208.429 271.968 207.753C271.968 207.077 272.096 206.484 272.351 205.976C272.61 205.467 272.973 205.072 273.442 204.791C273.911 204.51 274.465 204.369 275.104 204.369C275.743 204.369 276.297 204.51 276.766 204.791C277.235 205.072 277.597 205.467 277.853 205.976C278.111 206.484 278.241 207.077 278.241 207.753C278.241 208.429 278.111 209.02 277.853 209.526C277.597 210.031 277.235 210.425 276.766 210.706C276.297 210.987 275.743 211.128 275.104 211.128ZM275.113 209.892C275.459 209.892 275.749 209.797 275.982 209.607C276.215 209.413 276.388 209.155 276.502 208.831C276.618 208.507 276.677 208.146 276.677 207.749C276.677 207.348 276.618 206.986 276.502 206.662C276.388 206.335 276.215 206.075 275.982 205.882C275.749 205.689 275.459 205.592 275.113 205.592C274.758 205.592 274.462 205.689 274.226 205.882C273.993 206.075 273.819 206.335 273.702 206.662C273.589 206.986 273.532 207.348 273.532 207.749C273.532 208.146 273.589 208.507 273.702 208.831C273.819 209.155 273.993 209.413 274.226 209.607C274.462 209.797 274.758 209.892 275.113 209.892ZM280.15 211V204.455H281.646V205.545H281.714C281.833 205.168 282.038 204.876 282.327 204.672C282.62 204.464 282.954 204.361 283.329 204.361C283.414 204.361 283.509 204.365 283.614 204.374C283.722 204.379 283.812 204.389 283.883 204.403V205.822C283.817 205.8 283.714 205.78 283.572 205.763C283.433 205.743 283.298 205.733 283.167 205.733C282.886 205.733 282.633 205.794 282.408 205.916C282.187 206.036 282.012 206.202 281.884 206.415C281.756 206.628 281.692 206.874 281.692 207.152V211H280.15ZM289.084 211V204.455H290.559V205.567H290.635C290.772 205.192 290.998 204.899 291.313 204.689C291.628 204.476 292.005 204.369 292.442 204.369C292.885 204.369 293.259 204.477 293.563 204.693C293.87 204.906 294.086 205.197 294.211 205.567H294.279C294.424 205.203 294.668 204.913 295.012 204.697C295.358 204.479 295.769 204.369 296.243 204.369C296.846 204.369 297.337 204.56 297.718 204.94C298.098 205.321 298.289 205.876 298.289 206.607V211H296.742V206.845C296.742 206.439 296.634 206.142 296.418 205.955C296.202 205.764 295.938 205.669 295.625 205.669C295.253 205.669 294.962 205.786 294.752 206.018C294.544 206.249 294.441 206.548 294.441 206.918V211H292.928V206.781C292.928 206.443 292.826 206.173 292.621 205.972C292.419 205.77 292.155 205.669 291.829 205.669C291.607 205.669 291.405 205.726 291.223 205.839C291.042 205.95 290.897 206.108 290.789 206.312C290.681 206.514 290.627 206.75 290.627 207.02V211H289.084ZM303.309 211.128C302.67 211.128 302.116 210.987 301.647 210.706C301.178 210.425 300.815 210.031 300.556 209.526C300.3 209.02 300.172 208.429 300.172 207.753C300.172 207.077 300.3 206.484 300.556 205.976C300.815 205.467 301.178 205.072 301.647 204.791C302.116 204.51 302.67 204.369 303.309 204.369C303.948 204.369 304.502 204.51 304.971 204.791C305.44 205.072 305.802 205.467 306.057 205.976C306.316 206.484 306.445 207.077 306.445 207.753C306.445 208.429 306.316 209.02 306.057 209.526C305.802 210.031 305.44 210.425 304.971 210.706C304.502 210.987 303.948 211.128 303.309 211.128ZM303.317 209.892C303.664 209.892 303.954 209.797 304.187 209.607C304.42 209.413 304.593 209.155 304.707 208.831C304.823 208.507 304.881 208.146 304.881 207.749C304.881 207.348 304.823 206.986 304.707 206.662C304.593 206.335 304.42 206.075 304.187 205.882C303.954 205.689 303.664 205.592 303.317 205.592C302.962 205.592 302.667 205.689 302.431 205.882C302.198 206.075 302.023 206.335 301.907 206.662C301.793 206.986 301.736 207.348 301.736 207.749C301.736 208.146 301.793 208.507 301.907 208.831C302.023 209.155 302.198 209.413 302.431 209.607C302.667 209.797 302.962 209.892 303.317 209.892ZM310.784 211.115C310.269 211.115 309.809 210.983 309.403 210.719C308.997 210.455 308.676 210.071 308.44 209.568C308.204 209.065 308.086 208.455 308.086 207.736C308.086 207.009 308.205 206.395 308.444 205.895C308.685 205.392 309.011 205.013 309.42 204.757C309.829 204.499 310.285 204.369 310.788 204.369C311.171 204.369 311.487 204.435 311.734 204.565C311.981 204.693 312.177 204.848 312.322 205.03C312.467 205.209 312.579 205.378 312.659 205.537H312.722V202.273H314.269V211H312.752V209.969H312.659C312.579 210.128 312.464 210.297 312.313 210.476C312.163 210.652 311.964 210.803 311.717 210.928C311.47 211.053 311.159 211.115 310.784 211.115ZM311.214 209.849C311.541 209.849 311.819 209.761 312.049 209.585C312.279 209.406 312.454 209.158 312.573 208.839C312.693 208.521 312.752 208.151 312.752 207.727C312.752 207.304 312.693 206.936 312.573 206.624C312.457 206.311 312.284 206.068 312.053 205.895C311.826 205.722 311.546 205.635 311.214 205.635C310.87 205.635 310.583 205.724 310.353 205.903C310.123 206.082 309.95 206.33 309.833 206.645C309.717 206.96 309.659 207.321 309.659 207.727C309.659 208.136 309.717 208.501 309.833 208.822C309.953 209.141 310.127 209.392 310.357 209.577C310.59 209.759 310.876 209.849 311.214 209.849ZM319.411 211.128C318.755 211.128 318.188 210.991 317.711 210.719C317.236 210.443 316.871 210.054 316.615 209.551C316.36 209.045 316.232 208.45 316.232 207.766C316.232 207.092 316.36 206.501 316.615 205.993C316.874 205.482 317.235 205.084 317.698 204.8C318.161 204.513 318.705 204.369 319.33 204.369C319.733 204.369 320.114 204.435 320.472 204.565C320.833 204.693 321.151 204.892 321.426 205.162C321.705 205.432 321.924 205.776 322.083 206.193C322.242 206.608 322.321 207.102 322.321 207.676V208.149H316.956V207.109H320.843C320.84 206.814 320.776 206.551 320.651 206.321C320.526 206.088 320.351 205.905 320.127 205.771C319.905 205.638 319.647 205.571 319.351 205.571C319.036 205.571 318.759 205.648 318.52 205.801C318.282 205.952 318.096 206.151 317.962 206.398C317.831 206.642 317.765 206.911 317.762 207.203V208.111C317.762 208.491 317.831 208.818 317.971 209.091C318.11 209.361 318.304 209.568 318.554 209.713C318.804 209.855 319.097 209.926 319.432 209.926C319.657 209.926 319.86 209.895 320.042 209.832C320.223 209.767 320.381 209.672 320.515 209.547C320.648 209.422 320.749 209.267 320.817 209.082L322.257 209.244C322.167 209.625 321.993 209.957 321.738 210.241C321.485 210.523 321.161 210.741 320.766 210.898C320.371 211.051 319.919 211.128 319.411 211.128ZM324.226 211V204.455H325.722V205.545H325.79C325.91 205.168 326.114 204.876 326.404 204.672C326.697 204.464 327.03 204.361 327.405 204.361C327.491 204.361 327.586 204.365 327.691 204.374C327.799 204.379 327.888 204.389 327.959 204.403V205.822C327.894 205.8 327.79 205.78 327.648 205.763C327.509 205.743 327.374 205.733 327.243 205.733C326.962 205.733 326.709 205.794 326.485 205.916C326.263 206.036 326.089 206.202 325.961 206.415C325.833 206.628 325.769 206.874 325.769 207.152V211H324.226ZM331.127 207.165V211H329.584V204.455H331.059V205.567H331.135C331.286 205.2 331.526 204.909 331.856 204.693C332.188 204.477 332.598 204.369 333.087 204.369C333.539 204.369 333.932 204.466 334.267 204.659C334.606 204.852 334.867 205.132 335.052 205.499C335.239 205.865 335.331 206.31 335.329 206.832V211H333.786V207.071C333.786 206.634 333.672 206.291 333.445 206.044C333.221 205.797 332.909 205.673 332.512 205.673C332.242 205.673 332.002 205.733 331.792 205.852C331.584 205.969 331.421 206.138 331.302 206.359C331.185 206.581 331.127 206.849 331.127 207.165ZM342.424 211L340.575 204.455H342.147L343.298 209.057H343.357L344.534 204.455H346.089L347.265 209.031H347.329L348.462 204.455H350.039L348.185 211H346.579L345.352 206.577H345.262L344.035 211H342.424ZM354.426 211.128C353.77 211.128 353.203 210.991 352.726 210.719C352.252 210.443 351.887 210.054 351.631 209.551C351.375 209.045 351.247 208.45 351.247 207.766C351.247 207.092 351.375 206.501 351.631 205.993C351.89 205.482 352.25 205.084 352.713 204.8C353.176 204.513 353.721 204.369 354.346 204.369C354.749 204.369 355.13 204.435 355.488 204.565C355.848 204.693 356.167 204.892 356.442 205.162C356.721 205.432 356.939 205.776 357.098 206.193C357.257 206.608 357.337 207.102 357.337 207.676V208.149H351.972V207.109H355.858C355.855 206.814 355.792 206.551 355.667 206.321C355.542 206.088 355.367 205.905 355.142 205.771C354.921 205.638 354.662 205.571 354.367 205.571C354.051 205.571 353.774 205.648 353.536 205.801C353.297 205.952 353.111 206.151 352.978 206.398C352.847 206.642 352.78 206.911 352.777 207.203V208.111C352.777 208.491 352.847 208.818 352.986 209.091C353.125 209.361 353.32 209.568 353.57 209.713C353.82 209.855 354.113 209.926 354.448 209.926C354.672 209.926 354.875 209.895 355.057 209.832C355.239 209.767 355.397 209.672 355.53 209.547C355.664 209.422 355.765 209.267 355.833 209.082L357.273 209.244C357.182 209.625 357.009 209.957 356.753 210.241C356.5 210.523 356.176 210.741 355.782 210.898C355.387 211.051 354.935 211.128 354.426 211.128ZM359.31 211V202.273H360.853V205.537H360.917C360.996 205.378 361.109 205.209 361.253 205.03C361.398 204.848 361.594 204.693 361.841 204.565C362.089 204.435 362.404 204.369 362.787 204.369C363.293 204.369 363.749 204.499 364.155 204.757C364.564 205.013 364.888 205.392 365.127 205.895C365.368 206.395 365.489 207.009 365.489 207.736C365.489 208.455 365.371 209.065 365.135 209.568C364.9 210.071 364.579 210.455 364.172 210.719C363.766 210.983 363.306 211.115 362.792 211.115C362.417 211.115 362.106 211.053 361.859 210.928C361.611 210.803 361.412 210.652 361.262 210.476C361.114 210.297 360.999 210.128 360.917 209.969H360.827V211H359.31ZM360.823 207.727C360.823 208.151 360.883 208.521 361.002 208.839C361.124 209.158 361.299 209.406 361.526 209.585C361.756 209.761 362.035 209.849 362.361 209.849C362.702 209.849 362.988 209.759 363.218 209.577C363.448 209.392 363.621 209.141 363.738 208.822C363.857 208.501 363.917 208.136 363.917 207.727C363.917 207.321 363.859 206.96 363.742 206.645C363.626 206.33 363.452 206.082 363.222 205.903C362.992 205.724 362.705 205.635 362.361 205.635C362.032 205.635 361.752 205.722 361.522 205.895C361.292 206.068 361.117 206.311 360.998 206.624C360.881 206.936 360.823 207.304 360.823 207.727Z" fill="#D9D9D9"/>
<path d="M190.668 183C190.668 183.736 191.265 184.333 192.001 184.333C192.737 184.333 193.334 183.736 193.334 183C193.334 182.264 192.737 181.667 192.001 181.667C191.265 181.667 190.668 182.264 190.668 183ZM371.668 183C371.668 183.736 372.265 184.333 373.001 184.333C373.737 184.333 374.334 183.736 374.334 183C374.334 182.264 373.737 181.667 373.001 181.667C372.265 181.667 371.668 182.264 371.668 183ZM192.001 183V183.25H373.001V183V182.75H192.001V183Z" fill="#5F5F5F"/>
<path d="M177.5 32L181.5 25L180.5 30.5H186L177 38.5L181 32H177.5Z" fill="#DBFF00" fill-opacity="0.5" stroke="#E3FF3A" stroke-opacity="0.5" stroke-width="0.5"/>
<defs>
<filter id="filter0_d_144_458" x="0" y="25.5" width="167" height="158" filterUnits="userSpaceOnUse" color-interpolation-filters="sRGB">
<feFlood flood-opacity="0" result="BackgroundImageFix"/>
<feColorMatrix in="SourceAlpha" type="matrix" values="0 0 0 0 0 0 0 0 0 0 0 0 0 0 0 0 0 0 127 0" result="hardAlpha"/>
<feOffset/>
<feGaussianBlur stdDeviation="6"/>
<feComposite in2="hardAlpha" operator="out"/>
<feColorMatrix type="matrix" values="0 0 0 0 0.892029 0 0 0 0 1 0 0 0 0 0.22878 0 0 0 0.5 0"/>
<feBlend mode="normal" in2="BackgroundImageFix" result="effect1_dropShadow_144_458"/>
<feBlend mode="normal" in="SourceGraphic" in2="effect1_dropShadow_144_458" result="shape"/>
</filter>
<filter id="filter1_d_144_458" x="398" y="46.5" width="167" height="158" filterUnits="userSpaceOnUse" color-interpolation-filters="sRGB">
<feFlood flood-opacity="0" result="BackgroundImageFix"/>
<feColorMatrix in="SourceAlpha" type="matrix" values="0 0 0 0 0 0 0 0 0 0 0 0 0 0 0 0 0 0 127 0" result="hardAlpha"/>
<feOffset/>
<feGaussianBlur stdDeviation="6"/>
<feComposite in2="hardAlpha" operator="out"/>
<feColorMatrix type="matrix" values="0 0 0 0 0.892029 0 0 0 0 1 0 0 0 0 0.22878 0 0 0 0.5 0"/>
<feBlend mode="normal" in2="BackgroundImageFix" result="effect1_dropShadow_144_458"/>
<feBlend mode="normal" in="SourceGraphic" in2="effect1_dropShadow_144_458" result="shape"/>
</filter>
<radialGradient id="paint0_radial_144_458" cx="0" cy="0" r="1" gradientTransform="matrix(-79.661 15.378 -16.5343 -381.013 122.436 113.199)" gradientUnits="userSpaceOnUse">
<stop stop-color="white"/>
<stop offset="1" stop-color="#E3FF3A" stop-opacity="0"/>
</radialGradient>
<radialGradient id="paint1_radial_144_458" cx="0" cy="0" r="1" gradientTransform="matrix(79.661 -15.378 16.5343 381.013 442.564 116.801)" gradientUnits="userSpaceOnUse">
<stop stop-color="white"/>
<stop offset="1" stop-color="#E3FF3A" stop-opacity="0"/>
</radialGradient>
<radialGradient id="paint2_radial_144_458" cx="0" cy="0" r="1" gradientUnits="userSpaceOnUse" gradientTransform="translate(283 -115) rotate(90.0822) scale(348 380.859)">
<stop stop-color="#242424"/>
<stop offset="0.615425" stop-color="#212121"/>
</radialGradient>
<clipPath id="clip0_144_458">
<rect width="181" height="126" fill="white" transform="translate(373 126) rotate(-180)"/>
</clipPath>
</defs>
</svg>
