<svg width="611" height="436" viewBox="0 0 611 436" fill="none" xmlns="http://www.w3.org/2000/svg">
<path d="M320.616 89.4048L305.136 98.4048V18.4048L320.616 9.40479V89.4048Z" fill="#0A0A0C" stroke="white" stroke-opacity="0.055" stroke-width="0.7"/>
<path d="M289.656 89.4048L305.136 98.4048V18.4048L289.656 9.40479V89.4048Z" fill="#0A0A0C" stroke="white" stroke-opacity="0.055" stroke-width="0.7"/>
<path d="M305.136 0.404785L320.616 9.40479L305.136 18.4048L289.656 9.40479L305.136 0.404785Z" fill="#111113" stroke="white" stroke-opacity="0.075" stroke-width="0.7"/>
<path d="M344.696 103.405L329.216 112.405V32.4048L344.696 23.4048V103.405Z" fill="#0A0A0C" stroke="white" stroke-opacity="0.055" stroke-width="0.7"/>
<path d="M313.736 103.405L329.216 112.405V32.4048L313.736 23.4048V103.405Z" fill="#0A0A0C" stroke="white" stroke-opacity="0.055" stroke-width="0.7"/>
<path d="M329.216 14.4048L344.696 23.4048L329.216 32.4048L313.736 23.4048L329.216 14.4048Z" fill="#111113" stroke="white" stroke-opacity="0.075" stroke-width="0.7"/>
<path d="M296.536 103.405L281.056 112.405V32.4048L296.536 23.4048V103.405Z" fill="#0A0A0C" stroke="white" stroke-opacity="0.055" stroke-width="0.7"/>
<path d="M265.576 103.405L281.056 112.405V32.4048L265.576 23.4048V103.405Z" fill="#0A0A0C" stroke="white" stroke-opacity="0.055" stroke-width="0.7"/>
<path d="M281.056 14.4048L296.536 23.4048L281.056 32.4048L265.576 23.4048L281.056 14.4048Z" fill="#111113" stroke="white" stroke-opacity="0.075" stroke-width="0.7"/>
<path d="M368.776 117.405L353.296 126.405V46.4048L368.776 37.4048V117.405Z" fill="#0A0A0C" stroke="white" stroke-opacity="0.055" stroke-width="0.7"/>
<path d="M337.816 117.405L353.296 126.405V46.4048L337.816 37.4048V117.405Z" fill="#0A0A0C" stroke="white" stroke-opacity="0.055" stroke-width="0.7"/>
<path d="M353.296 28.4048L368.776 37.4048L353.296 46.4048L337.816 37.4048L353.296 28.4048Z" fill="#111113" stroke="white" stroke-opacity="0.075" stroke-width="0.7"/>
<path d="M320.616 117.405L305.136 126.405V46.4048L320.616 37.4048V117.405Z" fill="#0A0A0C" stroke="white" stroke-opacity="0.055" stroke-width="0.7"/>
<path d="M289.656 117.405L305.136 126.405V46.4048L289.656 37.4048V117.405Z" fill="#0A0A0C" stroke="white" stroke-opacity="0.055" stroke-width="0.7"/>
<path d="M305.136 28.4048L320.616 37.4048L305.136 46.4048L289.656 37.4048L305.136 28.4048Z" fill="#111113" stroke="white" stroke-opacity="0.075" stroke-width="0.7"/>
<path d="M272.456 117.405L256.976 126.405V46.4048L272.456 37.4048V117.405Z" fill="#0A0A0C" stroke="white" stroke-opacity="0.055" stroke-width="0.7"/>
<path d="M241.496 117.405L256.976 126.405V46.4048L241.496 37.4048V117.405Z" fill="#0A0A0C" stroke="white" stroke-opacity="0.055" stroke-width="0.7"/>
<path d="M256.976 28.4048L272.456 37.4048L256.976 46.4048L241.496 37.4048L256.976 28.4048Z" fill="#111113" stroke="white" stroke-opacity="0.075" stroke-width="0.7"/>
<path d="M392.856 131.405L377.376 140.405V60.4048L392.856 51.4048V131.405Z" fill="#0A0A0C" stroke="white" stroke-opacity="0.055" stroke-width="0.7"/>
<path d="M361.896 131.405L377.376 140.405V60.4048L361.896 51.4048V131.405Z" fill="#0A0A0C" stroke="white" stroke-opacity="0.055" stroke-width="0.7"/>
<path d="M377.376 42.4048L392.856 51.4048L377.376 60.4048L361.896 51.4048L377.376 42.4048Z" fill="#111113" stroke="white" stroke-opacity="0.075" stroke-width="0.7"/>
<path d="M344.696 131.405L329.216 140.405V60.4048L344.696 51.4048V131.405Z" fill="#0A0A0C" stroke="white" stroke-opacity="0.055" stroke-width="0.7"/>
<path d="M313.736 131.405L329.216 140.405V60.4048L313.736 51.4048V131.405Z" fill="#0A0A0C" stroke="white" stroke-opacity="0.055" stroke-width="0.7"/>
<path d="M329.216 42.4048L344.696 51.4048L329.216 60.4048L313.736 51.4048L329.216 42.4048Z" fill="#111113" stroke="white" stroke-opacity="0.075" stroke-width="0.7"/>
<path d="M296.536 131.405L281.056 140.405V60.4048L296.536 51.4048V131.405Z" fill="#0A0A0C" stroke="white" stroke-opacity="0.055" stroke-width="0.7"/>
<path d="M265.576 131.405L281.056 140.405V60.4048L265.576 51.4048V131.405Z" fill="#0A0A0C" stroke="white" stroke-opacity="0.055" stroke-width="0.7"/>
<path d="M281.056 42.4048L296.536 51.4048L281.056 60.4048L265.576 51.4048L281.056 42.4048Z" fill="#111113" stroke="white" stroke-opacity="0.075" stroke-width="0.7"/>
<path d="M248.376 131.405L232.896 140.405V60.4048L248.376 51.4048V131.405Z" fill="#0A0A0C" stroke="white" stroke-opacity="0.055" stroke-width="0.7"/>
<path d="M217.416 131.405L232.896 140.405V60.4048L217.416 51.4048V131.405Z" fill="#0A0A0C" stroke="white" stroke-opacity="0.055" stroke-width="0.7"/>
<path d="M232.896 42.4048L248.376 51.4048L232.896 60.4048L217.416 51.4048L232.896 42.4048Z" fill="#111113" stroke="white" stroke-opacity="0.075" stroke-width="0.7"/>
<path d="M416.936 145.405L401.456 154.405V74.4048L416.936 65.4048V145.405Z" fill="#0A0A0C" stroke="white" stroke-opacity="0.055" stroke-width="0.7"/>
<path d="M385.976 145.405L401.456 154.405V74.4048L385.976 65.4048V145.405Z" fill="#0A0A0C" stroke="white" stroke-opacity="0.055" stroke-width="0.7"/>
<path d="M401.456 56.4048L416.936 65.4048L401.456 74.4048L385.976 65.4048L401.456 56.4048Z" fill="#111113" stroke="white" stroke-opacity="0.075" stroke-width="0.7"/>
<path d="M368.776 145.405L353.296 154.405V74.4048L368.776 65.4048V145.405Z" fill="#0A0A0C" stroke="white" stroke-opacity="0.055" stroke-width="0.7"/>
<path d="M337.816 145.405L353.296 154.405V74.4048L337.816 65.4048V145.405Z" fill="#0A0A0C" stroke="white" stroke-opacity="0.055" stroke-width="0.7"/>
<path d="M353.296 56.4048L368.776 65.4048L353.296 74.4048L337.816 65.4048L353.296 56.4048Z" fill="#111113" stroke="white" stroke-opacity="0.075" stroke-width="0.7"/>
<path d="M320.616 145.405L305.136 154.405V74.4048L320.616 65.4048V145.405Z" fill="#0A0A0C" stroke="white" stroke-opacity="0.055" stroke-width="0.7"/>
<path d="M289.656 145.405L305.136 154.405V74.4048L289.656 65.4048V145.405Z" fill="#0A0A0C" stroke="white" stroke-opacity="0.055" stroke-width="0.7"/>
<path d="M305.136 56.4048L320.616 65.4048L305.136 74.4048L289.656 65.4048L305.136 56.4048Z" fill="#111113" stroke="white" stroke-opacity="0.075" stroke-width="0.7"/>
<path d="M272.456 145.405L256.976 154.405V74.4048L272.456 65.4048V145.405Z" fill="#0A0A0C" stroke="white" stroke-opacity="0.055" stroke-width="0.7"/>
<path d="M241.496 145.405L256.976 154.405V74.4048L241.496 65.4048V145.405Z" fill="#0A0A0C" stroke="white" stroke-opacity="0.055" stroke-width="0.7"/>
<path d="M256.976 56.4048L272.456 65.4048L256.976 74.4048L241.496 65.4048L256.976 56.4048Z" fill="#111113" stroke="white" stroke-opacity="0.075" stroke-width="0.7"/>
<path d="M224.296 145.405L208.816 154.405V74.4048L224.296 65.4048V145.405Z" fill="#0A0A0C" stroke="white" stroke-opacity="0.055" stroke-width="0.7"/>
<path d="M193.336 145.405L208.816 154.405V74.4048L193.336 65.4048V145.405Z" fill="#0A0A0C" stroke="white" stroke-opacity="0.055" stroke-width="0.7"/>
<path d="M208.816 56.4048L224.296 65.4048L208.816 74.4048L193.336 65.4048L208.816 56.4048Z" fill="#111113" stroke="white" stroke-opacity="0.075" stroke-width="0.7"/>
<path d="M441.016 159.405L425.536 168.405V88.4048L441.016 79.4048V159.405Z" fill="#0A0A0C" stroke="white" stroke-opacity="0.055" stroke-width="0.7"/>
<path d="M410.056 159.405L425.536 168.405V88.4048L410.056 79.4048V159.405Z" fill="#0A0A0C" stroke="white" stroke-opacity="0.055" stroke-width="0.7"/>
<path d="M425.536 70.4048L441.016 79.4048L425.536 88.4048L410.056 79.4048L425.536 70.4048Z" fill="#111113" stroke="white" stroke-opacity="0.075" stroke-width="0.7"/>
<path d="M392.856 159.405L377.376 168.405V88.4048L392.856 79.4048V159.405Z" fill="#0A0A0C" stroke="white" stroke-opacity="0.055" stroke-width="0.7"/>
<path d="M361.896 159.405L377.376 168.405V88.4048L361.896 79.4048V159.405Z" fill="#0A0A0C" stroke="white" stroke-opacity="0.055" stroke-width="0.7"/>
<path d="M377.376 70.4048L392.856 79.4048L377.376 88.4048L361.896 79.4048L377.376 70.4048Z" fill="#111113" stroke="white" stroke-opacity="0.075" stroke-width="0.7"/>
<path d="M344.696 159.405L329.216 168.405V88.4048L344.696 79.4048V159.405Z" fill="#0A0A0C" stroke="white" stroke-opacity="0.055" stroke-width="0.7"/>
<path d="M313.736 159.405L329.216 168.405V88.4048L313.736 79.4048V159.405Z" fill="#0A0A0C" stroke="white" stroke-opacity="0.055" stroke-width="0.7"/>
<path d="M329.216 70.4048L344.696 79.4048L329.216 88.4048L313.736 79.4048L329.216 70.4048Z" fill="#111113" stroke="white" stroke-opacity="0.075" stroke-width="0.7"/>
<path d="M296.536 159.405L281.056 168.405V88.4048L296.536 79.4048V159.405Z" fill="#0A0A0C" stroke="white" stroke-opacity="0.055" stroke-width="0.7"/>
<path d="M265.576 159.405L281.056 168.405V88.4048L265.576 79.4048V159.405Z" fill="#0A0A0C" stroke="white" stroke-opacity="0.055" stroke-width="0.7"/>
<path d="M281.056 70.4048L296.536 79.4048L281.056 88.4048L265.576 79.4048L281.056 70.4048Z" fill="#111113" stroke="white" stroke-opacity="0.075" stroke-width="0.7"/>
<path d="M248.376 159.405L232.896 168.405V88.4048L248.376 79.4048V159.405Z" fill="#0A0A0C" stroke="white" stroke-opacity="0.055" stroke-width="0.7"/>
<path d="M217.416 159.405L232.896 168.405V88.4048L217.416 79.4048V159.405Z" fill="#0A0A0C" stroke="white" stroke-opacity="0.055" stroke-width="0.7"/>
<path d="M232.896 70.4048L248.376 79.4048L232.896 88.4048L217.416 79.4048L232.896 70.4048Z" fill="#111113" stroke="white" stroke-opacity="0.075" stroke-width="0.7"/>
<path d="M200.216 159.405L184.736 168.405V88.4048L200.216 79.4048V159.405Z" fill="#0A0A0C" stroke="white" stroke-opacity="0.055" stroke-width="0.7"/>
<path d="M169.256 159.405L184.736 168.405V88.4048L169.256 79.4048V159.405Z" fill="#0A0A0C" stroke="white" stroke-opacity="0.055" stroke-width="0.7"/>
<path d="M184.736 70.4048L200.216 79.4048L184.736 88.4048L169.256 79.4048L184.736 70.4048Z" fill="#111113" stroke="white" stroke-opacity="0.075" stroke-width="0.7"/>
<path d="M465.096 173.405L449.616 182.405V102.405L465.096 93.4048V173.405Z" fill="#0A0A0C" stroke="white" stroke-opacity="0.055" stroke-width="0.7"/>
<path d="M434.136 173.405L449.616 182.405V102.405L434.136 93.4048V173.405Z" fill="#0A0A0C" stroke="white" stroke-opacity="0.055" stroke-width="0.7"/>
<path d="M449.616 84.4048L465.096 93.4048L449.616 102.405L434.136 93.4048L449.616 84.4048Z" fill="#111113" stroke="white" stroke-opacity="0.075" stroke-width="0.7"/>
<path d="M416.936 173.405L401.456 182.405V102.405L416.936 93.4048V173.405Z" fill="#0A0A0C" stroke="white" stroke-opacity="0.055" stroke-width="0.7"/>
<path d="M385.976 173.405L401.456 182.405V102.405L385.976 93.4048V173.405Z" fill="#0A0A0C" stroke="white" stroke-opacity="0.055" stroke-width="0.7"/>
<path d="M401.456 84.4048L416.936 93.4048L401.456 102.405L385.976 93.4048L401.456 84.4048Z" fill="#111113" stroke="white" stroke-opacity="0.075" stroke-width="0.7"/>
<path d="M368.776 173.405L353.296 182.405V102.405L368.776 93.4048V173.405Z" fill="#0A0A0C" stroke="white" stroke-opacity="0.055" stroke-width="0.7"/>
<path d="M337.816 173.405L353.296 182.405V102.405L337.816 93.4048V173.405Z" fill="#0A0A0C" stroke="white" stroke-opacity="0.055" stroke-width="0.7"/>
<path d="M353.296 84.4048L368.776 93.4048L353.296 102.405L337.816 93.4048L353.296 84.4048Z" fill="#111113" stroke="white" stroke-opacity="0.075" stroke-width="0.7"/>
<path d="M320.616 173.405L305.136 182.405V102.405L320.616 93.4048V173.405Z" fill="#0A0A0C" stroke="white" stroke-opacity="0.055" stroke-width="0.7"/>
<path d="M289.656 173.405L305.136 182.405V102.405L289.656 93.4048V173.405Z" fill="#0A0A0C" stroke="white" stroke-opacity="0.055" stroke-width="0.7"/>
<path d="M305.136 84.4048L320.616 93.4048L305.136 102.405L289.656 93.4048L305.136 84.4048Z" fill="#111113" stroke="white" stroke-opacity="0.075" stroke-width="0.7"/>
<path d="M272.456 173.405L256.976 182.405V102.405L272.456 93.4048V173.405Z" fill="#0A0A0C" stroke="white" stroke-opacity="0.055" stroke-width="0.7"/>
<path d="M241.496 173.405L256.976 182.405V102.405L241.496 93.4048V173.405Z" fill="#0A0A0C" stroke="white" stroke-opacity="0.055" stroke-width="0.7"/>
<path d="M256.976 84.4048L272.456 93.4048L256.976 102.405L241.496 93.4048L256.976 84.4048Z" fill="#111113" stroke="white" stroke-opacity="0.075" stroke-width="0.7"/>
<path d="M224.296 173.405L208.816 182.405V102.405L224.296 93.4048V173.405Z" fill="#0A0A0C" stroke="white" stroke-opacity="0.055" stroke-width="0.7"/>
<path d="M193.336 173.405L208.816 182.405V102.405L193.336 93.4048V173.405Z" fill="#0A0A0C" stroke="white" stroke-opacity="0.055" stroke-width="0.7"/>
<path d="M208.816 84.4048L224.296 93.4048L208.816 102.405L193.336 93.4048L208.816 84.4048Z" fill="#111113" stroke="white" stroke-opacity="0.075" stroke-width="0.7"/>
<path d="M176.136 173.405L160.656 182.405V102.405L176.136 93.4048V173.405Z" fill="#0A0A0C" stroke="white" stroke-opacity="0.055" stroke-width="0.7"/>
<path d="M145.176 173.405L160.656 182.405V102.405L145.176 93.4048V173.405Z" fill="#0A0A0C" stroke="white" stroke-opacity="0.055" stroke-width="0.7"/>
<path d="M160.656 84.4048L176.136 93.4048L160.656 102.405L145.176 93.4048L160.656 84.4048Z" fill="#111113" stroke="white" stroke-opacity="0.075" stroke-width="0.7"/>
<path d="M489.176 187.405L473.696 196.405V116.405L489.176 107.405V187.405Z" fill="#0A0A0C" stroke="white" stroke-opacity="0.055" stroke-width="0.7"/>
<path d="M458.216 187.405L473.696 196.405V116.405L458.216 107.405V187.405Z" fill="#0A0A0C" stroke="white" stroke-opacity="0.055" stroke-width="0.7"/>
<path d="M473.696 98.4048L489.176 107.405L473.696 116.405L458.216 107.405L473.696 98.4048Z" fill="#111113" stroke="white" stroke-opacity="0.075" stroke-width="0.7"/>
<path d="M441.016 187.405L425.536 196.405V116.405L441.016 107.405V187.405Z" fill="#0A0A0C" stroke="white" stroke-opacity="0.055" stroke-width="0.7"/>
<path d="M410.056 187.405L425.536 196.405V116.405L410.056 107.405V187.405Z" fill="#0A0A0C" stroke="white" stroke-opacity="0.055" stroke-width="0.7"/>
<path d="M425.536 98.4048L441.016 107.405L425.536 116.405L410.056 107.405L425.536 98.4048Z" fill="#111113" stroke="white" stroke-opacity="0.075" stroke-width="0.7"/>
<path d="M392.856 187.405L377.376 196.405V116.405L392.856 107.405V187.405Z" fill="#0A0A0C" stroke="white" stroke-opacity="0.055" stroke-width="0.7"/>
<path d="M361.896 187.405L377.376 196.405V116.405L361.896 107.405V187.405Z" fill="#0A0A0C" stroke="white" stroke-opacity="0.055" stroke-width="0.7"/>
<path d="M377.376 98.4048L392.856 107.405L377.376 116.405L361.896 107.405L377.376 98.4048Z" fill="#111113" stroke="white" stroke-opacity="0.075" stroke-width="0.7"/>
<path d="M344.696 187.405L329.216 196.405V116.405L344.696 107.405V187.405Z" fill="#0A0A0C" stroke="white" stroke-opacity="0.055" stroke-width="0.7"/>
<path d="M313.736 187.405L329.216 196.405V116.405L313.736 107.405V187.405Z" fill="#0A0A0C" stroke="white" stroke-opacity="0.055" stroke-width="0.7"/>
<path d="M329.216 98.4048L344.696 107.405L329.216 116.405L313.736 107.405L329.216 98.4048Z" fill="#111113" stroke="white" stroke-opacity="0.075" stroke-width="0.7"/>
<path d="M296.536 187.405L281.056 196.405V116.405L296.536 107.405V187.405Z" fill="#0A0A0C" stroke="white" stroke-opacity="0.055" stroke-width="0.7"/>
<path d="M265.576 187.405L281.056 196.405V116.405L265.576 107.405V187.405Z" fill="#0A0A0C" stroke="white" stroke-opacity="0.055" stroke-width="0.7"/>
<path d="M281.056 98.4048L296.536 107.405L281.056 116.405L265.576 107.405L281.056 98.4048Z" fill="#111113" stroke="white" stroke-opacity="0.075" stroke-width="0.7"/>
<path d="M248.376 187.405L232.896 196.405V116.405L248.376 107.405V187.405Z" fill="#0A0A0C" stroke="white" stroke-opacity="0.055" stroke-width="0.7"/>
<path d="M217.416 187.405L232.896 196.405V116.405L217.416 107.405V187.405Z" fill="#0A0A0C" stroke="white" stroke-opacity="0.055" stroke-width="0.7"/>
<path d="M232.896 98.4048L248.376 107.405L232.896 116.405L217.416 107.405L232.896 98.4048Z" fill="#111113" stroke="white" stroke-opacity="0.075" stroke-width="0.7"/>
<path d="M200.216 187.405L184.736 196.405V116.405L200.216 107.405V187.405Z" fill="#0A0A0C" stroke="white" stroke-opacity="0.055" stroke-width="0.7"/>
<path d="M169.256 187.405L184.736 196.405V116.405L169.256 107.405V187.405Z" fill="#0A0A0C" stroke="white" stroke-opacity="0.055" stroke-width="0.7"/>
<path d="M184.736 98.4048L200.216 107.405L184.736 116.405L169.256 107.405L184.736 98.4048Z" fill="#111113" stroke="white" stroke-opacity="0.075" stroke-width="0.7"/>
<path d="M152.056 187.405L136.576 196.405V116.405L152.056 107.405V187.405Z" fill="#0A0A0C" stroke="white" stroke-opacity="0.055" stroke-width="0.7"/>
<path d="M121.096 187.405L136.576 196.405V116.405L121.096 107.405V187.405Z" fill="#0A0A0C" stroke="white" stroke-opacity="0.055" stroke-width="0.7"/>
<path d="M136.576 98.4048L152.056 107.405L136.576 116.405L121.096 107.405L136.576 98.4048Z" fill="#111113" stroke="white" stroke-opacity="0.075" stroke-width="0.7"/>
<path d="M513.256 201.405L497.776 210.405V130.405L513.256 121.405V201.405Z" fill="#0A0A0C" stroke="white" stroke-opacity="0.055" stroke-width="0.7"/>
<path d="M482.296 201.405L497.776 210.405V130.405L482.296 121.405V201.405Z" fill="#0A0A0C" stroke="white" stroke-opacity="0.055" stroke-width="0.7"/>
<path d="M497.776 112.405L513.256 121.405L497.776 130.405L482.296 121.405L497.776 112.405Z" fill="#111113" stroke="white" stroke-opacity="0.075" stroke-width="0.7"/>
<path d="M465.096 201.405L449.616 210.405V130.405L465.096 121.405V201.405Z" fill="#0A0A0C" stroke="white" stroke-opacity="0.055" stroke-width="0.7"/>
<path d="M434.136 201.405L449.616 210.405V130.405L434.136 121.405V201.405Z" fill="#0A0A0C" stroke="white" stroke-opacity="0.055" stroke-width="0.7"/>
<path d="M449.616 112.405L465.096 121.405L449.616 130.405L434.136 121.405L449.616 112.405Z" fill="#111113" stroke="white" stroke-opacity="0.075" stroke-width="0.7"/>
<path d="M416.936 201.405L401.456 210.405V130.405L416.936 121.405V201.405Z" fill="#0A0A0C" stroke="white" stroke-opacity="0.055" stroke-width="0.7"/>
<path d="M385.976 201.405L401.456 210.405V130.405L385.976 121.405V201.405Z" fill="#0A0A0C" stroke="white" stroke-opacity="0.055" stroke-width="0.7"/>
<path d="M401.456 112.405L416.936 121.405L401.456 130.405L385.976 121.405L401.456 112.405Z" fill="#111113" stroke="white" stroke-opacity="0.075" stroke-width="0.7"/>
<path d="M368.776 201.405L353.296 210.405V130.405L368.776 121.405V201.405Z" fill="#0A0A0C" stroke="white" stroke-opacity="0.055" stroke-width="0.7"/>
<path d="M337.816 201.405L353.296 210.405V130.405L337.816 121.405V201.405Z" fill="#0A0A0C" stroke="white" stroke-opacity="0.055" stroke-width="0.7"/>
<path d="M353.296 112.405L368.776 121.405L353.296 130.405L337.816 121.405L353.296 112.405Z" fill="#111113" stroke="white" stroke-opacity="0.075" stroke-width="0.7"/>
<path d="M320.616 201.405L305.136 210.405V130.405L320.616 121.405V201.405Z" fill="#0A0A0C" stroke="white" stroke-opacity="0.055" stroke-width="0.7"/>
<path d="M289.656 201.405L305.136 210.405V130.405L289.656 121.405V201.405Z" fill="#0A0A0C" stroke="white" stroke-opacity="0.055" stroke-width="0.7"/>
<path d="M305.136 112.405L320.616 121.405L305.136 130.405L289.656 121.405L305.136 112.405Z" fill="#111113" stroke="white" stroke-opacity="0.075" stroke-width="0.7"/>
<path d="M272.456 201.405L256.976 210.405V130.405L272.456 121.405V201.405Z" fill="#0A0A0C" stroke="white" stroke-opacity="0.055" stroke-width="0.7"/>
<path d="M241.496 201.405L256.976 210.405V130.405L241.496 121.405V201.405Z" fill="#0A0A0C" stroke="white" stroke-opacity="0.055" stroke-width="0.7"/>
<path d="M256.976 112.405L272.456 121.405L256.976 130.405L241.496 121.405L256.976 112.405Z" fill="#111113" stroke="white" stroke-opacity="0.075" stroke-width="0.7"/>
<path d="M224.296 201.405L208.816 210.405V130.405L224.296 121.405V201.405Z" fill="#0A0A0C" stroke="white" stroke-opacity="0.055" stroke-width="0.7"/>
<path d="M193.336 201.405L208.816 210.405V130.405L193.336 121.405V201.405Z" fill="#0A0A0C" stroke="white" stroke-opacity="0.055" stroke-width="0.7"/>
<path d="M208.816 112.405L224.296 121.405L208.816 130.405L193.336 121.405L208.816 112.405Z" fill="#111113" stroke="white" stroke-opacity="0.075" stroke-width="0.7"/>
<path d="M176.136 201.405L160.656 210.405V130.405L176.136 121.405V201.405Z" fill="#0A0A0C" stroke="white" stroke-opacity="0.055" stroke-width="0.7"/>
<path d="M145.176 201.405L160.656 210.405V130.405L145.176 121.405V201.405Z" fill="#0A0A0C" stroke="white" stroke-opacity="0.055" stroke-width="0.7"/>
<path d="M160.656 112.405L176.136 121.405L160.656 130.405L145.176 121.405L160.656 112.405Z" fill="#111113" stroke="white" stroke-opacity="0.075" stroke-width="0.7"/>
<path d="M127.976 201.405L112.496 210.405V130.405L127.976 121.405V201.405Z" fill="#0A0A0C" stroke="white" stroke-opacity="0.055" stroke-width="0.7"/>
<path d="M97.0161 201.405L112.496 210.405V130.405L97.0161 121.405V201.405Z" fill="#0A0A0C" stroke="white" stroke-opacity="0.055" stroke-width="0.7"/>
<path d="M112.496 112.405L127.976 121.405L112.496 130.405L97.0161 121.405L112.496 112.405Z" fill="#111113" stroke="white" stroke-opacity="0.075" stroke-width="0.7"/>
<path d="M537.336 215.405L521.856 224.405V144.405L537.336 135.405V215.405Z" fill="#0A0A0C" stroke="white" stroke-opacity="0.055" stroke-width="0.7"/>
<path d="M506.376 215.405L521.856 224.405V144.405L506.376 135.405V215.405Z" fill="#0A0A0C" stroke="white" stroke-opacity="0.055" stroke-width="0.7"/>
<path d="M521.856 126.405L537.336 135.405L521.856 144.405L506.376 135.405L521.856 126.405Z" fill="#111113" stroke="white" stroke-opacity="0.075" stroke-width="0.7"/>
<path d="M489.176 215.405L473.696 224.405V144.405L489.176 135.405V215.405Z" fill="#0A0A0C" stroke="white" stroke-opacity="0.055" stroke-width="0.7"/>
<path d="M458.216 215.405L473.696 224.405V144.405L458.216 135.405V215.405Z" fill="#0A0A0C" stroke="white" stroke-opacity="0.055" stroke-width="0.7"/>
<path d="M473.696 126.405L489.176 135.405L473.696 144.405L458.216 135.405L473.696 126.405Z" fill="#111113" stroke="white" stroke-opacity="0.075" stroke-width="0.7"/>
<path d="M441.016 215.405L425.536 224.405V144.405L441.016 135.405V215.405Z" fill="#0A0A0C" stroke="white" stroke-opacity="0.055" stroke-width="0.7"/>
<path d="M410.056 215.405L425.536 224.405V144.405L410.056 135.405V215.405Z" fill="#0A0A0C" stroke="white" stroke-opacity="0.055" stroke-width="0.7"/>
<path d="M425.536 126.405L441.016 135.405L425.536 144.405L410.056 135.405L425.536 126.405Z" fill="#111113" stroke="white" stroke-opacity="0.075" stroke-width="0.7"/>
<path d="M392.856 215.405L377.376 224.405V144.405L392.856 135.405V215.405Z" fill="#0A0A0C" stroke="white" stroke-opacity="0.055" stroke-width="0.7"/>
<path d="M361.896 215.405L377.376 224.405V144.405L361.896 135.405V215.405Z" fill="#0A0A0C" stroke="white" stroke-opacity="0.055" stroke-width="0.7"/>
<path d="M377.376 126.405L392.856 135.405L377.376 144.405L361.896 135.405L377.376 126.405Z" fill="#111113" stroke="white" stroke-opacity="0.075" stroke-width="0.7"/>
<path d="M344.696 215.405L329.216 224.405V144.405L344.696 135.405V215.405Z" fill="#0A0A0C" stroke="white" stroke-opacity="0.055" stroke-width="0.7"/>
<path d="M313.736 215.405L329.216 224.405V144.405L313.736 135.405V215.405Z" fill="#0A0A0C" stroke="white" stroke-opacity="0.055" stroke-width="0.7"/>
<path d="M329.216 126.405L344.696 135.405L329.216 144.405L313.736 135.405L329.216 126.405Z" fill="#111113" stroke="white" stroke-opacity="0.075" stroke-width="0.7"/>
<path d="M296.536 215.072L281.056 224.072V144.072L296.536 135.072V215.072Z" fill="#0A0A0C" stroke="white" stroke-opacity="0.055" stroke-width="0.7"/>
<path d="M265.576 215.072L281.056 224.072V144.072L265.576 135.072V215.072Z" fill="#0A0A0C" stroke="white" stroke-opacity="0.055" stroke-width="0.7"/>
<path d="M281.056 126.072L296.536 135.072L281.056 144.072L265.576 135.072L281.056 126.072Z" fill="#111113" stroke="white" stroke-opacity="0.076" stroke-width="0.7"/>
<path d="M248.376 215.405L232.896 224.405V144.405L248.376 135.405V215.405Z" fill="#0A0A0C" stroke="white" stroke-opacity="0.055" stroke-width="0.7"/>
<path d="M217.416 215.405L232.896 224.405V144.405L217.416 135.405V215.405Z" fill="#0A0A0C" stroke="white" stroke-opacity="0.055" stroke-width="0.7"/>
<path d="M232.896 126.405L248.376 135.405L232.896 144.405L217.416 135.405L232.896 126.405Z" fill="#111113" stroke="white" stroke-opacity="0.075" stroke-width="0.7"/>
<path d="M200.216 215.405L184.736 224.405V144.405L200.216 135.405V215.405Z" fill="#0A0A0C" stroke="white" stroke-opacity="0.055" stroke-width="0.7"/>
<path d="M169.256 215.405L184.736 224.405V144.405L169.256 135.405V215.405Z" fill="#0A0A0C" stroke="white" stroke-opacity="0.055" stroke-width="0.7"/>
<path d="M184.736 126.405L200.216 135.405L184.736 144.405L169.256 135.405L184.736 126.405Z" fill="#111113" stroke="white" stroke-opacity="0.075" stroke-width="0.7"/>
<path d="M152.056 215.405L136.576 224.405V144.405L152.056 135.405V215.405Z" fill="#0A0A0C" stroke="white" stroke-opacity="0.055" stroke-width="0.7"/>
<path d="M121.096 215.405L136.576 224.405V144.405L121.096 135.405V215.405Z" fill="#0A0A0C" stroke="white" stroke-opacity="0.055" stroke-width="0.7"/>
<path d="M136.576 126.405L152.056 135.405L136.576 144.405L121.096 135.405L136.576 126.405Z" fill="#111113" stroke="white" stroke-opacity="0.075" stroke-width="0.7"/>
<path d="M103.896 215.405L88.4163 224.405V144.405L103.896 135.405V215.405Z" fill="#0A0A0C" stroke="white" stroke-opacity="0.055" stroke-width="0.7"/>
<path d="M72.9363 215.405L88.4163 224.405V144.405L72.9363 135.405V215.405Z" fill="#0A0A0C" stroke="white" stroke-opacity="0.055" stroke-width="0.7"/>
<path d="M88.4163 126.405L103.896 135.405L88.4163 144.405L72.9363 135.405L88.4163 126.405Z" fill="#111113" stroke="white" stroke-opacity="0.075" stroke-width="0.7"/>
<path d="M561.416 229.405L545.936 238.405V158.405L561.416 149.405V229.405Z" fill="#0A0A0C" stroke="white" stroke-opacity="0.055" stroke-width="0.7"/>
<path d="M530.456 229.405L545.936 238.405V158.405L530.456 149.405V229.405Z" fill="#0A0A0C" stroke="white" stroke-opacity="0.055" stroke-width="0.7"/>
<path d="M545.936 140.405L561.416 149.405L545.936 158.405L530.456 149.405L545.936 140.405Z" fill="#111113" stroke="white" stroke-opacity="0.075" stroke-width="0.7"/>
<path d="M513.256 229.405L497.776 238.405V158.405L513.256 149.405V229.405Z" fill="#0A0A0C" stroke="white" stroke-opacity="0.055" stroke-width="0.7"/>
<path d="M482.296 229.405L497.776 238.405V158.405L482.296 149.405V229.405Z" fill="#0A0A0C" stroke="white" stroke-opacity="0.055" stroke-width="0.7"/>
<path d="M497.776 140.405L513.256 149.405L497.776 158.405L482.296 149.405L497.776 140.405Z" fill="#111113" stroke="white" stroke-opacity="0.075" stroke-width="0.7"/>
<path d="M465.096 229.405L449.616 238.405V158.405L465.096 149.405V229.405Z" fill="#0A0A0C" stroke="white" stroke-opacity="0.055" stroke-width="0.7"/>
<path d="M434.136 229.405L449.616 238.405V158.405L434.136 149.405V229.405Z" fill="#0A0A0C" stroke="white" stroke-opacity="0.055" stroke-width="0.7"/>
<path d="M449.616 140.405L465.096 149.405L449.616 158.405L434.136 149.405L449.616 140.405Z" fill="#111113" stroke="white" stroke-opacity="0.075" stroke-width="0.7"/>
<path d="M416.936 229.405L401.456 238.405V158.405L416.936 149.405V229.405Z" fill="#0A0A0C" stroke="white" stroke-opacity="0.055" stroke-width="0.7"/>
<path d="M385.976 229.405L401.456 238.405V158.405L385.976 149.405V229.405Z" fill="#0A0A0C" stroke="white" stroke-opacity="0.055" stroke-width="0.7"/>
<path d="M401.456 140.405L416.936 149.405L401.456 158.405L385.976 149.405L401.456 140.405Z" fill="#111113" stroke="white" stroke-opacity="0.075" stroke-width="0.7"/>
<path d="M368.776 229.405L353.296 238.405V158.405L368.776 149.405V229.405Z" fill="#0A0A0C" stroke="white" stroke-opacity="0.055" stroke-width="0.7"/>
<path d="M337.816 229.405L353.296 238.405V158.405L337.816 149.405V229.405Z" fill="#0A0A0C" stroke="white" stroke-opacity="0.055" stroke-width="0.7"/>
<path d="M353.296 140.405L368.776 149.405L353.296 158.405L337.816 149.405L353.296 140.405Z" fill="#111113" stroke="white" stroke-opacity="0.075" stroke-width="0.7"/>
<path d="M320.616 208.831L305.136 217.831V137.831L320.616 128.831V208.831Z" fill="#0B0B0D" stroke="white" stroke-opacity="0.055" stroke-width="0.7"/>
<path d="M289.656 208.831L305.136 217.831V137.831L289.656 128.831V208.831Z" fill="#0B0B0D" stroke="white" stroke-opacity="0.055" stroke-width="0.7"/>
<path d="M305.136 119.831L320.616 128.831L305.136 137.831L289.656 128.831L305.136 119.831Z" fill="#121214" stroke="white" stroke-opacity="0.107" stroke-width="0.7"/>
<path d="M272.456 208.831L256.976 217.831V137.831L272.456 128.831V208.831Z" fill="#0B0B0D" stroke="white" stroke-opacity="0.055" stroke-width="0.7"/>
<path d="M241.496 208.831L256.976 217.831V137.831L241.496 128.831V208.831Z" fill="#0B0B0D" stroke="white" stroke-opacity="0.055" stroke-width="0.7"/>
<path d="M256.976 119.831L272.456 128.831L256.976 137.831L241.496 128.831L256.976 119.831Z" fill="#121214" stroke="white" stroke-opacity="0.107" stroke-width="0.7"/>
<path d="M224.296 229.405L208.816 238.405V158.405L224.296 149.405V229.405Z" fill="#0A0A0C" stroke="white" stroke-opacity="0.055" stroke-width="0.7"/>
<path d="M193.336 229.405L208.816 238.405V158.405L193.336 149.405V229.405Z" fill="#0A0A0C" stroke="white" stroke-opacity="0.055" stroke-width="0.7"/>
<path d="M208.816 140.405L224.296 149.405L208.816 158.405L193.336 149.405L208.816 140.405Z" fill="#111113" stroke="white" stroke-opacity="0.075" stroke-width="0.7"/>
<path d="M176.136 229.405L160.656 238.405V158.405L176.136 149.405V229.405Z" fill="#0A0A0C" stroke="white" stroke-opacity="0.055" stroke-width="0.7"/>
<path d="M145.176 229.405L160.656 238.405V158.405L145.176 149.405V229.405Z" fill="#0A0A0C" stroke="white" stroke-opacity="0.055" stroke-width="0.7"/>
<path d="M160.656 140.405L176.136 149.405L160.656 158.405L145.176 149.405L160.656 140.405Z" fill="#111113" stroke="white" stroke-opacity="0.075" stroke-width="0.7"/>
<path d="M127.976 229.405L112.496 238.405V158.405L127.976 149.405V229.405Z" fill="#0A0A0C" stroke="white" stroke-opacity="0.055" stroke-width="0.7"/>
<path d="M97.0161 229.405L112.496 238.405V158.405L97.0161 149.405V229.405Z" fill="#0A0A0C" stroke="white" stroke-opacity="0.055" stroke-width="0.7"/>
<path d="M112.496 140.405L127.976 149.405L112.496 158.405L97.0161 149.405L112.496 140.405Z" fill="#111113" stroke="white" stroke-opacity="0.075" stroke-width="0.7"/>
<path d="M79.8162 229.405L64.3362 238.405V158.405L79.8162 149.405V229.405Z" fill="#0A0A0C" stroke="white" stroke-opacity="0.055" stroke-width="0.7"/>
<path d="M48.8562 229.405L64.3362 238.405V158.405L48.8562 149.405V229.405Z" fill="#0A0A0C" stroke="white" stroke-opacity="0.055" stroke-width="0.7"/>
<path d="M64.3362 140.405L79.8162 149.405L64.3362 158.405L48.8562 149.405L64.3362 140.405Z" fill="#111113" stroke="white" stroke-opacity="0.075" stroke-width="0.7"/>
<path d="M585.496 243.405L570.016 252.405V172.405L585.496 163.405V243.405Z" fill="#0A0A0C" stroke="white" stroke-opacity="0.055" stroke-width="0.7"/>
<path d="M554.536 243.405L570.016 252.405V172.405L554.536 163.405V243.405Z" fill="#0A0A0C" stroke="white" stroke-opacity="0.055" stroke-width="0.7"/>
<path d="M570.016 154.405L585.496 163.405L570.016 172.405L554.536 163.405L570.016 154.405Z" fill="#111113" stroke="white" stroke-opacity="0.075" stroke-width="0.7"/>
<path d="M537.336 243.405L521.856 252.405V172.405L537.336 163.405V243.405Z" fill="#0A0A0C" stroke="white" stroke-opacity="0.055" stroke-width="0.7"/>
<path d="M506.376 243.405L521.856 252.405V172.405L506.376 163.405V243.405Z" fill="#0A0A0C" stroke="white" stroke-opacity="0.055" stroke-width="0.7"/>
<path d="M521.856 154.405L537.336 163.405L521.856 172.405L506.376 163.405L521.856 154.405Z" fill="#111113" stroke="white" stroke-opacity="0.075" stroke-width="0.7"/>
<path d="M489.176 243.405L473.696 252.405V172.405L489.176 163.405V243.405Z" fill="#0A0A0C" stroke="white" stroke-opacity="0.055" stroke-width="0.7"/>
<path d="M458.216 243.405L473.696 252.405V172.405L458.216 163.405V243.405Z" fill="#0A0A0C" stroke="white" stroke-opacity="0.055" stroke-width="0.7"/>
<path d="M473.696 154.405L489.176 163.405L473.696 172.405L458.216 163.405L473.696 154.405Z" fill="#111113" stroke="white" stroke-opacity="0.075" stroke-width="0.7"/>
<path d="M441.016 243.405L425.536 252.405V172.405L441.016 163.405V243.405Z" fill="#0A0A0C" stroke="white" stroke-opacity="0.055" stroke-width="0.7"/>
<path d="M410.056 243.405L425.536 252.405V172.405L410.056 163.405V243.405Z" fill="#0A0A0C" stroke="white" stroke-opacity="0.055" stroke-width="0.7"/>
<path d="M425.536 154.405L441.016 163.405L425.536 172.405L410.056 163.405L425.536 154.405Z" fill="#111113" stroke="white" stroke-opacity="0.075" stroke-width="0.7"/>
<path d="M392.856 243.405L377.376 252.405V172.405L392.856 163.405V243.405Z" fill="#0A0A0C" stroke="white" stroke-opacity="0.055" stroke-width="0.7"/>
<path d="M361.896 243.405L377.376 252.405V172.405L361.896 163.405V243.405Z" fill="#0A0A0C" stroke="white" stroke-opacity="0.055" stroke-width="0.7"/>
<path d="M377.376 154.405L392.856 163.405L377.376 172.405L361.896 163.405L377.376 154.405Z" fill="#111113" stroke="white" stroke-opacity="0.075" stroke-width="0.7"/>
<path d="M349.096 198.405L333.616 207.405V127.405L349.096 118.405V198.405Z" fill="#0B0B0D" stroke="white" stroke-opacity="0.055" stroke-width="0.7"/>
<path d="M318.136 198.405L333.616 207.405V127.405L318.136 118.405V198.405Z" fill="#0B0B0D" stroke="white" stroke-opacity="0.055" stroke-width="0.7"/>
<path d="M333.616 109.405L349.096 118.405L333.616 127.405L318.136 118.405L333.616 109.405Z" fill="#121214" stroke="white" stroke-opacity="0.107" stroke-width="0.7"/>
<path d="M296.096 140.405L280.616 149.405V69.4048L296.096 60.4048V140.405Z" fill="#101013" stroke="white" stroke-opacity="0.055" stroke-width="0.7"/>
<path d="M265.136 140.405L280.616 149.405V69.4048L265.136 60.4048V140.405Z" fill="#101013" stroke="white" stroke-opacity="0.055" stroke-width="0.7"/>
<path d="M280.616 51.4048L296.096 60.4048L280.616 69.4048L265.136 60.4048L280.616 51.4048Z" fill="#1B1B1E" stroke="white" stroke-opacity="0.259" stroke-width="0.7"/>
<path d="M248.096 170.405L232.616 179.405V99.4048L248.096 90.4048V170.405Z" fill="#0B0B0D" stroke="white" stroke-opacity="0.055" stroke-width="0.7"/>
<path d="M217.136 170.405L232.616 179.405V99.4048L217.136 90.4048V170.405Z" fill="#0B0B0D" stroke="white" stroke-opacity="0.055" stroke-width="0.7"/>
<path d="M232.616 81.4048L248.096 90.4048L232.616 99.4048L217.136 90.4048L232.616 81.4048Z" fill="#121214" stroke="white" stroke-opacity="0.107" stroke-width="0.7"/>
<path d="M200.216 243.405L184.736 252.405V172.405L200.216 163.405V243.405Z" fill="#0A0A0C" stroke="white" stroke-opacity="0.055" stroke-width="0.7"/>
<path d="M169.256 243.405L184.736 252.405V172.405L169.256 163.405V243.405Z" fill="#0A0A0C" stroke="white" stroke-opacity="0.055" stroke-width="0.7"/>
<path d="M184.736 154.405L200.216 163.405L184.736 172.405L169.256 163.405L184.736 154.405Z" fill="#111113" stroke="white" stroke-opacity="0.075" stroke-width="0.7"/>
<path d="M152.056 243.405L136.576 252.405V172.405L152.056 163.405V243.405Z" fill="#0A0A0C" stroke="white" stroke-opacity="0.055" stroke-width="0.7"/>
<path d="M121.096 243.405L136.576 252.405V172.405L121.096 163.405V243.405Z" fill="#0A0A0C" stroke="white" stroke-opacity="0.055" stroke-width="0.7"/>
<path d="M136.576 154.405L152.056 163.405L136.576 172.405L121.096 163.405L136.576 154.405Z" fill="#111113" stroke="white" stroke-opacity="0.075" stroke-width="0.7"/>
<path d="M103.896 243.405L88.4163 252.405V172.405L103.896 163.405V243.405Z" fill="#0A0A0C" stroke="white" stroke-opacity="0.055" stroke-width="0.7"/>
<path d="M72.9363 243.405L88.4163 252.405V172.405L72.9363 163.405V243.405Z" fill="#0A0A0C" stroke="white" stroke-opacity="0.055" stroke-width="0.7"/>
<path d="M88.4163 154.405L103.896 163.405L88.4163 172.405L72.9363 163.405L88.4163 154.405Z" fill="#111113" stroke="white" stroke-opacity="0.075" stroke-width="0.7"/>
<path d="M55.7364 243.405L40.2563 252.405V172.405L55.7364 163.405V243.405Z" fill="#0A0A0C" stroke="white" stroke-opacity="0.055" stroke-width="0.7"/>
<path d="M24.7764 243.405L40.2563 252.405V172.405L24.7764 163.405V243.405Z" fill="#0A0A0C" stroke="white" stroke-opacity="0.055" stroke-width="0.7"/>
<path d="M40.2563 154.405L55.7364 163.405L40.2563 172.405L24.7764 163.405L40.2563 154.405Z" fill="#111113" stroke="white" stroke-opacity="0.075" stroke-width="0.7"/>
<path d="M609.576 257.405L594.096 266.405V186.405L609.576 177.405V257.405Z" fill="#0A0A0C" stroke="white" stroke-opacity="0.055" stroke-width="0.7"/>
<path d="M578.616 257.405L594.096 266.405V186.405L578.616 177.405V257.405Z" fill="#0A0A0C" stroke="white" stroke-opacity="0.055" stroke-width="0.7"/>
<path d="M594.096 168.405L609.576 177.405L594.096 186.405L578.616 177.405L594.096 168.405Z" fill="#111113" stroke="white" stroke-opacity="0.075" stroke-width="0.7"/>
<path d="M561.416 257.405L545.936 266.405V186.405L561.416 177.405V257.405Z" fill="#0A0A0C" stroke="white" stroke-opacity="0.055" stroke-width="0.7"/>
<path d="M530.456 257.405L545.936 266.405V186.405L530.456 177.405V257.405Z" fill="#0A0A0C" stroke="white" stroke-opacity="0.055" stroke-width="0.7"/>
<path d="M545.936 168.405L561.416 177.405L545.936 186.405L530.456 177.405L545.936 168.405Z" fill="#111113" stroke="white" stroke-opacity="0.075" stroke-width="0.7"/>
<path d="M513.256 257.405L497.776 266.405V186.405L513.256 177.405V257.405Z" fill="#0A0A0C" stroke="white" stroke-opacity="0.055" stroke-width="0.7"/>
<path d="M482.296 257.405L497.776 266.405V186.405L482.296 177.405V257.405Z" fill="#0A0A0C" stroke="white" stroke-opacity="0.055" stroke-width="0.7"/>
<path d="M497.776 168.405L513.256 177.405L497.776 186.405L482.296 177.405L497.776 168.405Z" fill="#111113" stroke="white" stroke-opacity="0.075" stroke-width="0.7"/>
<path d="M465.096 257.405L449.616 266.405V186.405L465.096 177.405V257.405Z" fill="#0A0A0C" stroke="white" stroke-opacity="0.055" stroke-width="0.7"/>
<path d="M434.136 257.405L449.616 266.405V186.405L434.136 177.405V257.405Z" fill="#0A0A0C" stroke="white" stroke-opacity="0.055" stroke-width="0.7"/>
<path d="M449.616 168.405L465.096 177.405L449.616 186.405L434.136 177.405L449.616 168.405Z" fill="#111113" stroke="white" stroke-opacity="0.075" stroke-width="0.7"/>
<path d="M416.936 257.405L401.456 266.405V186.405L416.936 177.405V257.405Z" fill="#0A0A0C" stroke="white" stroke-opacity="0.055" stroke-width="0.7"/>
<path d="M385.976 257.405L401.456 266.405V186.405L385.976 177.405V257.405Z" fill="#0A0A0C" stroke="white" stroke-opacity="0.055" stroke-width="0.7"/>
<path d="M401.456 168.405L416.936 177.405L401.456 186.405L385.976 177.405L401.456 168.405Z" fill="#111113" stroke="white" stroke-opacity="0.075" stroke-width="0.7"/>
<path d="M368.736 242.13L353.256 251.13V171.13L368.736 162.13V242.13Z" fill="#0A0A0C" stroke="white" stroke-opacity="0.055" stroke-width="0.7"/>
<path d="M337.776 242.13L353.256 251.13V171.13L337.776 162.13V242.13Z" fill="#0A0A0C" stroke="white" stroke-opacity="0.055" stroke-width="0.7"/>
<path d="M353.256 153.13L368.736 162.13L353.256 171.13L337.776 162.13L353.256 153.13Z" fill="#111113" stroke="white" stroke-opacity="0.076" stroke-width="0.7"/>
<path d="M320.616 166.405L305.136 175.405V95.4048L320.616 86.4048V166.405Z" fill="#101013" stroke="white" stroke-opacity="0.055" stroke-width="0.7"/>
<path d="M289.656 166.405L305.136 175.405V95.4048L289.656 86.4048V166.405Z" fill="#101013" stroke="white" stroke-opacity="0.055" stroke-width="0.7"/>
<path d="M305.136 77.4048L320.616 86.4048L305.136 95.4048L289.656 86.4048L305.136 77.4048Z" fill="#1B1B1E" stroke="white" stroke-opacity="0.259" stroke-width="0.7"/>
<path d="M272.096 155.405L256.616 164.405V84.4048L272.096 75.4048V155.405Z" fill="#101013" stroke="white" stroke-opacity="0.055" stroke-width="0.7"/>
<path d="M241.136 155.405L256.616 164.405V84.4048L241.136 75.4048V155.405Z" fill="#101013" stroke="white" stroke-opacity="0.055" stroke-width="0.7"/>
<path d="M256.616 66.4048L272.096 75.4048L256.616 84.4048L241.136 75.4048L256.616 66.4048Z" fill="#1B1B1E" stroke="white" stroke-opacity="0.259" stroke-width="0.7"/>
<path d="M224.296 222.072L208.816 231.072V151.072L224.296 142.072V222.072Z" fill="#0A0A0C" stroke="white" stroke-opacity="0.055" stroke-width="0.7"/>
<path d="M193.336 222.072L208.816 231.072V151.072L193.336 142.072V222.072Z" fill="#0A0A0C" stroke="white" stroke-opacity="0.055" stroke-width="0.7"/>
<path d="M208.816 133.072L224.296 142.072L208.816 151.072L193.336 142.072L208.816 133.072Z" fill="#111113" stroke="white" stroke-opacity="0.076" stroke-width="0.7"/>
<path d="M176.136 257.405L160.656 266.405V186.405L176.136 177.405V257.405Z" fill="#0A0A0C" stroke="white" stroke-opacity="0.055" stroke-width="0.7"/>
<path d="M145.176 257.405L160.656 266.405V186.405L145.176 177.405V257.405Z" fill="#0A0A0C" stroke="white" stroke-opacity="0.055" stroke-width="0.7"/>
<path d="M160.656 168.405L176.136 177.405L160.656 186.405L145.176 177.405L160.656 168.405Z" fill="#111113" stroke="white" stroke-opacity="0.075" stroke-width="0.7"/>
<path d="M127.976 257.405L112.496 266.405V186.405L127.976 177.405V257.405Z" fill="#0A0A0C" stroke="white" stroke-opacity="0.055" stroke-width="0.7"/>
<path d="M97.0161 257.405L112.496 266.405V186.405L97.0161 177.405V257.405Z" fill="#0A0A0C" stroke="white" stroke-opacity="0.055" stroke-width="0.7"/>
<path d="M112.496 168.405L127.976 177.405L112.496 186.405L97.0161 177.405L112.496 168.405Z" fill="#111113" stroke="white" stroke-opacity="0.075" stroke-width="0.7"/>
<path d="M79.8162 257.405L64.3362 266.405V186.405L79.8162 177.405V257.405Z" fill="#0A0A0C" stroke="white" stroke-opacity="0.055" stroke-width="0.7"/>
<path d="M48.8562 257.405L64.3362 266.405V186.405L48.8562 177.405V257.405Z" fill="#0A0A0C" stroke="white" stroke-opacity="0.055" stroke-width="0.7"/>
<path d="M64.3362 168.405L79.8162 177.405L64.3362 186.405L48.8562 177.405L64.3362 168.405Z" fill="#111113" stroke="white" stroke-opacity="0.075" stroke-width="0.7"/>
<path d="M31.6562 257.405L16.1763 266.405V186.405L31.6562 177.405V257.405Z" fill="#0A0A0C" stroke="white" stroke-opacity="0.055" stroke-width="0.7"/>
<path d="M0.696289 257.405L16.1763 266.405V186.405L0.696289 177.405V257.405Z" fill="#0A0A0C" stroke="white" stroke-opacity="0.055" stroke-width="0.7"/>
<path d="M16.1763 168.405L31.6563 177.405L16.1763 186.405L0.696289 177.405L16.1763 168.405Z" fill="#111113" stroke="white" stroke-opacity="0.075" stroke-width="0.7"/>
<path d="M585.496 271.405L570.016 280.405V200.405L585.496 191.405V271.405Z" fill="#0A0A0C" stroke="white" stroke-opacity="0.055" stroke-width="0.7"/>
<path d="M554.536 271.405L570.016 280.405V200.405L554.536 191.405V271.405Z" fill="#0A0A0C" stroke="white" stroke-opacity="0.055" stroke-width="0.7"/>
<path d="M570.016 182.405L585.496 191.405L570.016 200.405L554.536 191.405L570.016 182.405Z" fill="#111113" stroke="white" stroke-opacity="0.075" stroke-width="0.7"/>
<path d="M537.336 271.405L521.856 280.405V200.405L537.336 191.405V271.405Z" fill="#0A0A0C" stroke="white" stroke-opacity="0.055" stroke-width="0.7"/>
<path d="M506.376 271.405L521.856 280.405V200.405L506.376 191.405V271.405Z" fill="#0A0A0C" stroke="white" stroke-opacity="0.055" stroke-width="0.7"/>
<path d="M521.856 182.405L537.336 191.405L521.856 200.405L506.376 191.405L521.856 182.405Z" fill="#111113" stroke="white" stroke-opacity="0.075" stroke-width="0.7"/>
<path d="M489.176 271.405L473.696 280.405V200.405L489.176 191.405V271.405Z" fill="#0A0A0C" stroke="white" stroke-opacity="0.055" stroke-width="0.7"/>
<path d="M458.216 271.405L473.696 280.405V200.405L458.216 191.405V271.405Z" fill="#0A0A0C" stroke="white" stroke-opacity="0.055" stroke-width="0.7"/>
<path d="M473.696 182.405L489.176 191.405L473.696 200.405L458.216 191.405L473.696 182.405Z" fill="#111113" stroke="white" stroke-opacity="0.075" stroke-width="0.7"/>
<path d="M441.016 271.405L425.536 280.405V200.405L441.016 191.405V271.405Z" fill="#0A0A0C" stroke="white" stroke-opacity="0.055" stroke-width="0.7"/>
<path d="M410.056 271.405L425.536 280.405V200.405L410.056 191.405V271.405Z" fill="#0A0A0C" stroke="white" stroke-opacity="0.055" stroke-width="0.7"/>
<path d="M425.536 182.405L441.016 191.405L425.536 200.405L410.056 191.405L425.536 182.405Z" fill="#111113" stroke="white" stroke-opacity="0.075" stroke-width="0.7"/>
<path d="M392.856 240.405L377.376 249.405V169.405L392.856 160.405V240.405Z" fill="#0A0A0C" stroke="white" stroke-opacity="0.055" stroke-width="0.7"/>
<path d="M361.896 240.405L377.376 249.405V169.405L361.896 160.405V240.405Z" fill="#0A0A0C" stroke="white" stroke-opacity="0.055" stroke-width="0.7"/>
<path d="M377.376 151.405L392.856 160.405L377.376 169.405L361.896 160.405L377.376 151.405Z" fill="#111113" stroke="white" stroke-opacity="0.075" stroke-width="0.7"/>
<path d="M349.096 226.405L333.616 235.405V155.405L349.096 146.405V226.405Z" fill="#0B0B0D" stroke="white" stroke-opacity="0.055" stroke-width="0.7"/>
<path d="M318.136 226.405L333.616 235.405V155.405L318.136 146.405V226.405Z" fill="#0B0B0D" stroke="white" stroke-opacity="0.055" stroke-width="0.7"/>
<path d="M333.616 137.405L349.096 146.405L333.616 155.405L318.136 146.405L333.616 137.405Z" fill="#121214" stroke="white" stroke-opacity="0.107" stroke-width="0.7"/>
<path d="M296.536 125.68L281.056 134.68V54.6797L296.536 45.6797V125.68Z" fill="#101013" stroke="white" stroke-opacity="0.055" stroke-width="0.7"/>
<path d="M265.576 125.68L281.056 134.68V54.6797L265.576 45.6797V125.68Z" fill="#101013" stroke="white" stroke-opacity="0.055" stroke-width="0.7"/>
<path d="M281.056 36.6797L296.536 45.6797L281.056 54.6797L265.576 45.6797L281.056 36.6797Z" fill="#1B1B1E" stroke="white" stroke-opacity="0.259" stroke-width="0.7"/>
<path d="M248.096 198.405L232.616 207.405V127.405L248.096 118.405V198.405Z" fill="#0B0B0D" stroke="white" stroke-opacity="0.055" stroke-width="0.7"/>
<path d="M217.136 198.405L232.616 207.405V127.405L217.136 118.405V198.405Z" fill="#0B0B0D" stroke="white" stroke-opacity="0.055" stroke-width="0.7"/>
<path d="M232.616 109.405L248.096 118.405L232.616 127.405L217.136 118.405L232.616 109.405Z" fill="#121214" stroke="white" stroke-opacity="0.107" stroke-width="0.7"/>
<path d="M201.096 245.405L185.616 254.405V174.405L201.096 165.405V245.405Z" fill="#0A0A0C" stroke="white" stroke-opacity="0.055" stroke-width="0.7"/>
<path d="M170.136 245.405L185.616 254.405V174.405L170.136 165.405V245.405Z" fill="#0A0A0C" stroke="white" stroke-opacity="0.055" stroke-width="0.7"/>
<path d="M185.616 156.405L201.096 165.405L185.616 174.405L170.136 165.405L185.616 156.405Z" fill="#111113" stroke="white" stroke-opacity="0.075" stroke-width="0.7"/>
<path d="M152.056 271.405L136.576 280.405V200.405L152.056 191.405V271.405Z" fill="#0A0A0C" stroke="white" stroke-opacity="0.055" stroke-width="0.7"/>
<path d="M121.096 271.405L136.576 280.405V200.405L121.096 191.405V271.405Z" fill="#0A0A0C" stroke="white" stroke-opacity="0.055" stroke-width="0.7"/>
<path d="M136.576 182.405L152.056 191.405L136.576 200.405L121.096 191.405L136.576 182.405Z" fill="#111113" stroke="white" stroke-opacity="0.075" stroke-width="0.7"/>
<path d="M103.896 271.405L88.4163 280.405V200.405L103.896 191.405V271.405Z" fill="#0A0A0C" stroke="white" stroke-opacity="0.055" stroke-width="0.7"/>
<path d="M72.9363 271.405L88.4163 280.405V200.405L72.9363 191.405V271.405Z" fill="#0A0A0C" stroke="white" stroke-opacity="0.055" stroke-width="0.7"/>
<path d="M88.4163 182.405L103.896 191.405L88.4163 200.405L72.9363 191.405L88.4163 182.405Z" fill="#111113" stroke="white" stroke-opacity="0.075" stroke-width="0.7"/>
<path d="M55.7364 271.405L40.2563 280.405V200.405L55.7364 191.405V271.405Z" fill="#0A0A0C" stroke="white" stroke-opacity="0.055" stroke-width="0.7"/>
<path d="M24.7764 271.405L40.2563 280.405V200.405L24.7764 191.405V271.405Z" fill="#0A0A0C" stroke="white" stroke-opacity="0.055" stroke-width="0.7"/>
<path d="M40.2563 182.405L55.7364 191.405L40.2563 200.405L24.7764 191.405L40.2563 182.405Z" fill="#111113" stroke="white" stroke-opacity="0.075" stroke-width="0.7"/>
<path d="M561.416 285.405L545.936 294.405V214.405L561.416 205.405V285.405Z" fill="#0A0A0C" stroke="white" stroke-opacity="0.055" stroke-width="0.7"/>
<path d="M530.456 285.405L545.936 294.405V214.405L530.456 205.405V285.405Z" fill="#0A0A0C" stroke="white" stroke-opacity="0.055" stroke-width="0.7"/>
<path d="M545.936 196.405L561.416 205.405L545.936 214.405L530.456 205.405L545.936 196.405Z" fill="#111113" stroke="white" stroke-opacity="0.075" stroke-width="0.7"/>
<path d="M513.256 285.405L497.776 294.405V214.405L513.256 205.405V285.405Z" fill="#0A0A0C" stroke="white" stroke-opacity="0.055" stroke-width="0.7"/>
<path d="M482.296 285.405L497.776 294.405V214.405L482.296 205.405V285.405Z" fill="#0A0A0C" stroke="white" stroke-opacity="0.055" stroke-width="0.7"/>
<path d="M497.776 196.405L513.256 205.405L497.776 214.405L482.296 205.405L497.776 196.405Z" fill="#111113" stroke="white" stroke-opacity="0.075" stroke-width="0.7"/>
<path d="M465.096 285.405L449.616 294.405V214.405L465.096 205.405V285.405Z" fill="#0A0A0C" stroke="white" stroke-opacity="0.055" stroke-width="0.7"/>
<path d="M434.136 285.405L449.616 294.405V214.405L434.136 205.405V285.405Z" fill="#0A0A0C" stroke="white" stroke-opacity="0.055" stroke-width="0.7"/>
<path d="M449.616 196.405L465.096 205.405L449.616 214.405L434.136 205.405L449.616 196.405Z" fill="#111113" stroke="white" stroke-opacity="0.075" stroke-width="0.7"/>
<path d="M416.936 285.405L401.456 294.405V214.405L416.936 205.405V285.405Z" fill="#0A0A0C" stroke="white" stroke-opacity="0.055" stroke-width="0.7"/>
<path d="M385.976 285.405L401.456 294.405V214.405L385.976 205.405V285.405Z" fill="#0A0A0C" stroke="white" stroke-opacity="0.055" stroke-width="0.7"/>
<path d="M401.456 196.405L416.936 205.405L401.456 214.405L385.976 205.405L401.456 196.405Z" fill="#111113" stroke="white" stroke-opacity="0.075" stroke-width="0.7"/>
<path d="M368.096 252.405L352.616 261.405V181.405L368.096 172.405V252.405Z" fill="#0A0A0C" stroke="white" stroke-opacity="0.055" stroke-width="0.7"/>
<path d="M337.136 252.405L352.616 261.405V181.405L337.136 172.405V252.405Z" fill="#0A0A0C" stroke="white" stroke-opacity="0.055" stroke-width="0.7"/>
<path d="M352.616 163.405L368.096 172.405L352.616 181.405L337.136 172.405L352.616 163.405Z" fill="#111113" stroke="white" stroke-opacity="0.075" stroke-width="0.7"/>
<path d="M321.096 207.405L305.616 216.405V136.405L321.096 127.405V207.405Z" fill="#0B0B0D" stroke="white" stroke-opacity="0.055" stroke-width="0.7"/>
<path d="M290.136 207.405L305.616 216.405V136.405L290.136 127.405V207.405Z" fill="#0B0B0D" stroke="white" stroke-opacity="0.055" stroke-width="0.7"/>
<path d="M305.616 118.405L321.096 127.405L305.616 136.405L290.136 127.405L305.616 118.405Z" fill="#121214" stroke="white" stroke-opacity="0.107" stroke-width="0.7"/>
<path d="M272.176 212.405L256.696 221.405V141.405L272.176 132.405V212.405Z" fill="#0B0B0D" stroke="white" stroke-opacity="0.055" stroke-width="0.7"/>
<path d="M241.216 212.405L256.696 221.405V141.405L241.216 132.405V212.405Z" fill="#0B0B0D" stroke="white" stroke-opacity="0.055" stroke-width="0.7"/>
<path d="M256.696 123.405L272.176 132.405L256.696 141.405L241.216 132.405L256.696 123.405Z" fill="#121214" stroke="white" stroke-opacity="0.107" stroke-width="0.7"/>
<path d="M225.176 259.405L209.696 268.405V188.405L225.176 179.405V259.405Z" fill="#0A0A0C" stroke="white" stroke-opacity="0.055" stroke-width="0.7"/>
<path d="M194.216 259.405L209.696 268.405V188.405L194.216 179.405V259.405Z" fill="#0A0A0C" stroke="white" stroke-opacity="0.055" stroke-width="0.7"/>
<path d="M209.696 170.405L225.176 179.405L209.696 188.405L194.216 179.405L209.696 170.405Z" fill="#111113" stroke="white" stroke-opacity="0.075" stroke-width="0.7"/>
<path d="M176.136 285.405L160.656 294.405V214.405L176.136 205.405V285.405Z" fill="#0A0A0C" stroke="white" stroke-opacity="0.055" stroke-width="0.7"/>
<path d="M145.176 285.405L160.656 294.405V214.405L145.176 205.405V285.405Z" fill="#0A0A0C" stroke="white" stroke-opacity="0.055" stroke-width="0.7"/>
<path d="M160.656 196.405L176.136 205.405L160.656 214.405L145.176 205.405L160.656 196.405Z" fill="#111113" stroke="white" stroke-opacity="0.075" stroke-width="0.7"/>
<path d="M127.976 285.405L112.496 294.405V214.405L127.976 205.405V285.405Z" fill="#0A0A0C" stroke="white" stroke-opacity="0.055" stroke-width="0.7"/>
<path d="M97.0161 285.405L112.496 294.405V214.405L97.0161 205.405V285.405Z" fill="#0A0A0C" stroke="white" stroke-opacity="0.055" stroke-width="0.7"/>
<path d="M112.496 196.405L127.976 205.405L112.496 214.405L97.0161 205.405L112.496 196.405Z" fill="#111113" stroke="white" stroke-opacity="0.075" stroke-width="0.7"/>
<path d="M79.8162 285.405L64.3362 294.405V214.405L79.8162 205.405V285.405Z" fill="#0A0A0C" stroke="white" stroke-opacity="0.055" stroke-width="0.7"/>
<path d="M48.8562 285.405L64.3362 294.405V214.405L48.8562 205.405V285.405Z" fill="#0A0A0C" stroke="white" stroke-opacity="0.055" stroke-width="0.7"/>
<path d="M64.3362 196.405L79.8162 205.405L64.3362 214.405L48.8562 205.405L64.3362 196.405Z" fill="#111113" stroke="white" stroke-opacity="0.075" stroke-width="0.7"/>
<path d="M537.336 299.405L521.856 308.405V228.405L537.336 219.405V299.405Z" fill="#0A0A0C" stroke="white" stroke-opacity="0.055" stroke-width="0.7"/>
<path d="M506.376 299.405L521.856 308.405V228.405L506.376 219.405V299.405Z" fill="#0A0A0C" stroke="white" stroke-opacity="0.055" stroke-width="0.7"/>
<path d="M521.856 210.405L537.336 219.405L521.856 228.405L506.376 219.405L521.856 210.405Z" fill="#111113" stroke="white" stroke-opacity="0.075" stroke-width="0.7"/>
<path d="M489.176 299.405L473.696 308.405V228.405L489.176 219.405V299.405Z" fill="#0A0A0C" stroke="white" stroke-opacity="0.055" stroke-width="0.7"/>
<path d="M458.216 299.405L473.696 308.405V228.405L458.216 219.405V299.405Z" fill="#0A0A0C" stroke="white" stroke-opacity="0.055" stroke-width="0.7"/>
<path d="M473.696 210.405L489.176 219.405L473.696 228.405L458.216 219.405L473.696 210.405Z" fill="#111113" stroke="white" stroke-opacity="0.075" stroke-width="0.7"/>
<path d="M441.016 299.405L425.536 308.405V228.405L441.016 219.405V299.405Z" fill="#0A0A0C" stroke="white" stroke-opacity="0.055" stroke-width="0.7"/>
<path d="M410.056 299.405L425.536 308.405V228.405L410.056 219.405V299.405Z" fill="#0A0A0C" stroke="white" stroke-opacity="0.055" stroke-width="0.7"/>
<path d="M425.536 210.405L441.016 219.405L425.536 228.405L410.056 219.405L425.536 210.405Z" fill="#111113" stroke="white" stroke-opacity="0.075" stroke-width="0.7"/>
<path d="M392.856 299.405L377.376 308.405V228.405L392.856 219.405V299.405Z" fill="#0A0A0C" stroke="white" stroke-opacity="0.055" stroke-width="0.7"/>
<path d="M361.896 299.405L377.376 308.405V228.405L361.896 219.405V299.405Z" fill="#0A0A0C" stroke="white" stroke-opacity="0.055" stroke-width="0.7"/>
<path d="M377.376 210.405L392.856 219.405L377.376 228.405L361.896 219.405L377.376 210.405Z" fill="#111113" stroke="white" stroke-opacity="0.075" stroke-width="0.7"/>
<path d="M344.696 272.405L329.216 281.405V201.405L344.696 192.405V272.405Z" fill="#0A0A0C" stroke="white" stroke-opacity="0.055" stroke-width="0.7"/>
<path d="M313.736 272.405L329.216 281.405V201.405L313.736 192.405V272.405Z" fill="#0A0A0C" stroke="white" stroke-opacity="0.055" stroke-width="0.7"/>
<path d="M329.216 183.405L344.696 192.405L329.216 201.405L313.736 192.405L329.216 183.405Z" fill="#111113" stroke="white" stroke-opacity="0.075" stroke-width="0.7"/>
<path d="M296.096 243.405L280.616 252.405V172.405L296.096 163.405V243.405Z" fill="#0A0A0C" stroke="white" stroke-opacity="0.055" stroke-width="0.7"/>
<path d="M265.136 243.405L280.616 252.405V172.405L265.136 163.405V243.405Z" fill="#0A0A0C" stroke="white" stroke-opacity="0.055" stroke-width="0.7"/>
<path d="M280.616 154.405L296.096 163.405L280.616 172.405L265.136 163.405L280.616 154.405Z" fill="#111113" stroke="white" stroke-opacity="0.076" stroke-width="0.7"/>
<path d="M248.376 252.405L232.896 261.405V181.405L248.376 172.405V252.405Z" fill="#0A0A0C" stroke="white" stroke-opacity="0.055" stroke-width="0.7"/>
<path d="M217.416 252.405L232.896 261.405V181.405L217.416 172.405V252.405Z" fill="#0A0A0C" stroke="white" stroke-opacity="0.055" stroke-width="0.7"/>
<path d="M232.896 163.405L248.376 172.405L232.896 181.405L217.416 172.405L232.896 163.405Z" fill="#111113" stroke="white" stroke-opacity="0.075" stroke-width="0.7"/>
<path d="M200.216 299.405L184.736 308.405V228.405L200.216 219.405V299.405Z" fill="#0A0A0C" stroke="white" stroke-opacity="0.055" stroke-width="0.7"/>
<path d="M169.256 299.405L184.736 308.405V228.405L169.256 219.405V299.405Z" fill="#0A0A0C" stroke="white" stroke-opacity="0.055" stroke-width="0.7"/>
<path d="M184.736 210.405L200.216 219.405L184.736 228.405L169.256 219.405L184.736 210.405Z" fill="#111113" stroke="white" stroke-opacity="0.075" stroke-width="0.7"/>
<path d="M152.056 299.405L136.576 308.405V228.405L152.056 219.405V299.405Z" fill="#0A0A0C" stroke="white" stroke-opacity="0.055" stroke-width="0.7"/>
<path d="M121.096 299.405L136.576 308.405V228.405L121.096 219.405V299.405Z" fill="#0A0A0C" stroke="white" stroke-opacity="0.055" stroke-width="0.7"/>
<path d="M136.576 210.405L152.056 219.405L136.576 228.405L121.096 219.405L136.576 210.405Z" fill="#111113" stroke="white" stroke-opacity="0.075" stroke-width="0.7"/>
<path d="M103.896 299.405L88.4163 308.405V228.405L103.896 219.405V299.405Z" fill="#0A0A0C" stroke="white" stroke-opacity="0.055" stroke-width="0.7"/>
<path d="M72.9363 299.405L88.4163 308.405V228.405L72.9363 219.405V299.405Z" fill="#0A0A0C" stroke="white" stroke-opacity="0.055" stroke-width="0.7"/>
<path d="M88.4163 210.405L103.896 219.405L88.4163 228.405L72.9363 219.405L88.4163 210.405Z" fill="#111113" stroke="white" stroke-opacity="0.075" stroke-width="0.7"/>
<path d="M513.256 313.405L497.776 322.405V242.405L513.256 233.405V313.405Z" fill="#0A0A0C" stroke="white" stroke-opacity="0.055" stroke-width="0.7"/>
<path d="M482.296 313.405L497.776 322.405V242.405L482.296 233.405V313.405Z" fill="#0A0A0C" stroke="white" stroke-opacity="0.055" stroke-width="0.7"/>
<path d="M497.776 224.405L513.256 233.405L497.776 242.405L482.296 233.405L497.776 224.405Z" fill="#111113" stroke="white" stroke-opacity="0.075" stroke-width="0.7"/>
<path d="M465.096 313.405L449.616 322.405V242.405L465.096 233.405V313.405Z" fill="#0A0A0C" stroke="white" stroke-opacity="0.055" stroke-width="0.7"/>
<path d="M434.136 313.405L449.616 322.405V242.405L434.136 233.405V313.405Z" fill="#0A0A0C" stroke="white" stroke-opacity="0.055" stroke-width="0.7"/>
<path d="M449.616 224.405L465.096 233.405L449.616 242.405L434.136 233.405L449.616 224.405Z" fill="#111113" stroke="white" stroke-opacity="0.075" stroke-width="0.7"/>
<path d="M416.936 313.405L401.456 322.405V242.405L416.936 233.405V313.405Z" fill="#0A0A0C" stroke="white" stroke-opacity="0.055" stroke-width="0.7"/>
<path d="M385.976 313.405L401.456 322.405V242.405L385.976 233.405V313.405Z" fill="#0A0A0C" stroke="white" stroke-opacity="0.055" stroke-width="0.7"/>
<path d="M401.456 224.405L416.936 233.405L401.456 242.405L385.976 233.405L401.456 224.405Z" fill="#111113" stroke="white" stroke-opacity="0.075" stroke-width="0.7"/>
<path d="M368.776 313.405L353.296 322.405V242.405L368.776 233.405V313.405Z" fill="#0A0A0C" stroke="white" stroke-opacity="0.055" stroke-width="0.7"/>
<path d="M337.816 313.405L353.296 322.405V242.405L337.816 233.405V313.405Z" fill="#0A0A0C" stroke="white" stroke-opacity="0.055" stroke-width="0.7"/>
<path d="M353.296 224.405L368.776 233.405L353.296 242.405L337.816 233.405L353.296 224.405Z" fill="#111113" stroke="white" stroke-opacity="0.075" stroke-width="0.7"/>
<path d="M321.096 280.405L305.616 289.405V209.405L321.096 200.405V280.405Z" fill="#0A0A0C" stroke="white" stroke-opacity="0.055" stroke-width="0.7"/>
<path d="M290.136 280.405L305.616 289.405V209.405L290.136 200.405V280.405Z" fill="#0A0A0C" stroke="white" stroke-opacity="0.055" stroke-width="0.7"/>
<path d="M305.616 191.405L321.096 200.405L305.616 209.405L290.136 200.405L305.616 191.405Z" fill="#111113" stroke="white" stroke-opacity="0.075" stroke-width="0.7"/>
<path d="M272.096 269.405L256.616 278.405V198.405L272.096 189.405V269.405Z" fill="#0A0A0C" stroke="white" stroke-opacity="0.055" stroke-width="0.7"/>
<path d="M241.136 269.405L256.616 278.405V198.405L241.136 189.405V269.405Z" fill="#0A0A0C" stroke="white" stroke-opacity="0.055" stroke-width="0.7"/>
<path d="M256.616 180.405L272.096 189.405L256.616 198.405L241.136 189.405L256.616 180.405Z" fill="#111113" stroke="white" stroke-opacity="0.075" stroke-width="0.7"/>
<path d="M224.296 313.405L208.816 322.405V242.405L224.296 233.405V313.405Z" fill="#0A0A0C" stroke="white" stroke-opacity="0.055" stroke-width="0.7"/>
<path d="M193.336 313.405L208.816 322.405V242.405L193.336 233.405V313.405Z" fill="#0A0A0C" stroke="white" stroke-opacity="0.055" stroke-width="0.7"/>
<path d="M208.816 224.405L224.296 233.405L208.816 242.405L193.336 233.405L208.816 224.405Z" fill="#111113" stroke="white" stroke-opacity="0.075" stroke-width="0.7"/>
<path d="M176.136 313.405L160.656 322.405V242.405L176.136 233.405V313.405Z" fill="#0A0A0C" stroke="white" stroke-opacity="0.055" stroke-width="0.7"/>
<path d="M145.176 313.405L160.656 322.405V242.405L145.176 233.405V313.405Z" fill="#0A0A0C" stroke="white" stroke-opacity="0.055" stroke-width="0.7"/>
<path d="M160.656 224.405L176.136 233.405L160.656 242.405L145.176 233.405L160.656 224.405Z" fill="#111113" stroke="white" stroke-opacity="0.075" stroke-width="0.7"/>
<path d="M127.976 313.405L112.496 322.405V242.405L127.976 233.405V313.405Z" fill="#0A0A0C" stroke="white" stroke-opacity="0.055" stroke-width="0.7"/>
<path d="M97.0161 313.405L112.496 322.405V242.405L97.0161 233.405V313.405Z" fill="#0A0A0C" stroke="white" stroke-opacity="0.055" stroke-width="0.7"/>
<path d="M112.496 224.405L127.976 233.405L112.496 242.405L97.0161 233.405L112.496 224.405Z" fill="#111113" stroke="white" stroke-opacity="0.075" stroke-width="0.7"/>
<path d="M489.176 327.405L473.696 336.405V256.405L489.176 247.405V327.405Z" fill="#0A0A0C" stroke="white" stroke-opacity="0.055" stroke-width="0.7"/>
<path d="M458.216 327.405L473.696 336.405V256.405L458.216 247.405V327.405Z" fill="#0A0A0C" stroke="white" stroke-opacity="0.055" stroke-width="0.7"/>
<path d="M473.696 238.405L489.176 247.405L473.696 256.405L458.216 247.405L473.696 238.405Z" fill="#111113" stroke="white" stroke-opacity="0.075" stroke-width="0.7"/>
<path d="M441.016 327.405L425.536 336.405V256.405L441.016 247.405V327.405Z" fill="#0A0A0C" stroke="white" stroke-opacity="0.055" stroke-width="0.7"/>
<path d="M410.056 327.405L425.536 336.405V256.405L410.056 247.405V327.405Z" fill="#0A0A0C" stroke="white" stroke-opacity="0.055" stroke-width="0.7"/>
<path d="M425.536 238.405L441.016 247.405L425.536 256.405L410.056 247.405L425.536 238.405Z" fill="#111113" stroke="white" stroke-opacity="0.075" stroke-width="0.7"/>
<path d="M392.856 327.405L377.376 336.405V256.405L392.856 247.405V327.405Z" fill="#0A0A0C" stroke="white" stroke-opacity="0.055" stroke-width="0.7"/>
<path d="M361.896 327.405L377.376 336.405V256.405L361.896 247.405V327.405Z" fill="#0A0A0C" stroke="white" stroke-opacity="0.055" stroke-width="0.7"/>
<path d="M377.376 238.405L392.856 247.405L377.376 256.405L361.896 247.405L377.376 238.405Z" fill="#111113" stroke="white" stroke-opacity="0.075" stroke-width="0.7"/>
<path d="M344.696 327.405L329.216 336.405V256.405L344.696 247.405V327.405Z" fill="#0A0A0C" stroke="white" stroke-opacity="0.055" stroke-width="0.7"/>
<path d="M313.736 327.405L329.216 336.405V256.405L313.736 247.405V327.405Z" fill="#0A0A0C" stroke="white" stroke-opacity="0.055" stroke-width="0.7"/>
<path d="M329.216 238.405L344.696 247.405L329.216 256.405L313.736 247.405L329.216 238.405Z" fill="#111113" stroke="white" stroke-opacity="0.075" stroke-width="0.7"/>
<path d="M296.536 327.405L281.056 336.405V256.405L296.536 247.405V327.405Z" fill="#0A0A0C" stroke="white" stroke-opacity="0.055" stroke-width="0.7"/>
<path d="M265.576 327.405L281.056 336.405V256.405L265.576 247.405V327.405Z" fill="#0A0A0C" stroke="white" stroke-opacity="0.055" stroke-width="0.7"/>
<path d="M281.056 238.405L296.536 247.405L281.056 256.405L265.576 247.405L281.056 238.405Z" fill="#111113" stroke="white" stroke-opacity="0.075" stroke-width="0.7"/>
<path d="M248.376 327.405L232.896 336.405V256.405L248.376 247.405V327.405Z" fill="#0A0A0C" stroke="white" stroke-opacity="0.055" stroke-width="0.7"/>
<path d="M217.416 327.405L232.896 336.405V256.405L217.416 247.405V327.405Z" fill="#0A0A0C" stroke="white" stroke-opacity="0.055" stroke-width="0.7"/>
<path d="M232.896 238.405L248.376 247.405L232.896 256.405L217.416 247.405L232.896 238.405Z" fill="#111113" stroke="white" stroke-opacity="0.075" stroke-width="0.7"/>
<path d="M200.216 327.405L184.736 336.405V256.405L200.216 247.405V327.405Z" fill="#0A0A0C" stroke="white" stroke-opacity="0.055" stroke-width="0.7"/>
<path d="M169.256 327.405L184.736 336.405V256.405L169.256 247.405V327.405Z" fill="#0A0A0C" stroke="white" stroke-opacity="0.055" stroke-width="0.7"/>
<path d="M184.736 238.405L200.216 247.405L184.736 256.405L169.256 247.405L184.736 238.405Z" fill="#111113" stroke="white" stroke-opacity="0.075" stroke-width="0.7"/>
<path d="M152.056 327.405L136.576 336.405V256.405L152.056 247.405V327.405Z" fill="#0A0A0C" stroke="white" stroke-opacity="0.055" stroke-width="0.7"/>
<path d="M121.096 327.405L136.576 336.405V256.405L121.096 247.405V327.405Z" fill="#0A0A0C" stroke="white" stroke-opacity="0.055" stroke-width="0.7"/>
<path d="M136.576 238.405L152.056 247.405L136.576 256.405L121.096 247.405L136.576 238.405Z" fill="#111113" stroke="white" stroke-opacity="0.075" stroke-width="0.7"/>
<path d="M465.096 341.405L449.616 350.405V270.405L465.096 261.405V341.405Z" fill="#0A0A0C" stroke="white" stroke-opacity="0.055" stroke-width="0.7"/>
<path d="M434.136 341.405L449.616 350.405V270.405L434.136 261.405V341.405Z" fill="#0A0A0C" stroke="white" stroke-opacity="0.055" stroke-width="0.7"/>
<path d="M449.616 252.405L465.096 261.405L449.616 270.405L434.136 261.405L449.616 252.405Z" fill="#111113" stroke="white" stroke-opacity="0.075" stroke-width="0.7"/>
<path d="M416.936 341.405L401.456 350.405V270.405L416.936 261.405V341.405Z" fill="#0A0A0C" stroke="white" stroke-opacity="0.055" stroke-width="0.7"/>
<path d="M385.976 341.405L401.456 350.405V270.405L385.976 261.405V341.405Z" fill="#0A0A0C" stroke="white" stroke-opacity="0.055" stroke-width="0.7"/>
<path d="M401.456 252.405L416.936 261.405L401.456 270.405L385.976 261.405L401.456 252.405Z" fill="#111113" stroke="white" stroke-opacity="0.075" stroke-width="0.7"/>
<path d="M368.776 341.405L353.296 350.405V270.405L368.776 261.405V341.405Z" fill="#0A0A0C" stroke="white" stroke-opacity="0.055" stroke-width="0.7"/>
<path d="M337.816 341.405L353.296 350.405V270.405L337.816 261.405V341.405Z" fill="#0A0A0C" stroke="white" stroke-opacity="0.055" stroke-width="0.7"/>
<path d="M353.296 252.405L368.776 261.405L353.296 270.405L337.816 261.405L353.296 252.405Z" fill="#111113" stroke="white" stroke-opacity="0.075" stroke-width="0.7"/>
<path d="M320.616 341.405L305.136 350.405V270.405L320.616 261.405V341.405Z" fill="#0A0A0C" stroke="white" stroke-opacity="0.055" stroke-width="0.7"/>
<path d="M289.656 341.405L305.136 350.405V270.405L289.656 261.405V341.405Z" fill="#0A0A0C" stroke="white" stroke-opacity="0.055" stroke-width="0.7"/>
<path d="M305.136 252.405L320.616 261.405L305.136 270.405L289.656 261.405L305.136 252.405Z" fill="#111113" stroke="white" stroke-opacity="0.075" stroke-width="0.7"/>
<path d="M272.456 341.405L256.976 350.405V270.405L272.456 261.405V341.405Z" fill="#0A0A0C" stroke="white" stroke-opacity="0.055" stroke-width="0.7"/>
<path d="M241.496 341.405L256.976 350.405V270.405L241.496 261.405V341.405Z" fill="#0A0A0C" stroke="white" stroke-opacity="0.055" stroke-width="0.7"/>
<path d="M256.976 252.405L272.456 261.405L256.976 270.405L241.496 261.405L256.976 252.405Z" fill="#111113" stroke="white" stroke-opacity="0.075" stroke-width="0.7"/>
<path d="M224.296 341.405L208.816 350.405V270.405L224.296 261.405V341.405Z" fill="#0A0A0C" stroke="white" stroke-opacity="0.055" stroke-width="0.7"/>
<path d="M193.336 341.405L208.816 350.405V270.405L193.336 261.405V341.405Z" fill="#0A0A0C" stroke="white" stroke-opacity="0.055" stroke-width="0.7"/>
<path d="M208.816 252.405L224.296 261.405L208.816 270.405L193.336 261.405L208.816 252.405Z" fill="#111113" stroke="white" stroke-opacity="0.075" stroke-width="0.7"/>
<path d="M176.136 341.405L160.656 350.405V270.405L176.136 261.405V341.405Z" fill="#0A0A0C" stroke="white" stroke-opacity="0.055" stroke-width="0.7"/>
<path d="M145.176 341.405L160.656 350.405V270.405L145.176 261.405V341.405Z" fill="#0A0A0C" stroke="white" stroke-opacity="0.055" stroke-width="0.7"/>
<path d="M160.656 252.405L176.136 261.405L160.656 270.405L145.176 261.405L160.656 252.405Z" fill="#111113" stroke="white" stroke-opacity="0.075" stroke-width="0.7"/>
<path d="M441.016 355.405L425.536 364.405V284.405L441.016 275.405V355.405Z" fill="#0A0A0C" stroke="white" stroke-opacity="0.055" stroke-width="0.7"/>
<path d="M410.056 355.405L425.536 364.405V284.405L410.056 275.405V355.405Z" fill="#0A0A0C" stroke="white" stroke-opacity="0.055" stroke-width="0.7"/>
<path d="M425.536 266.405L441.016 275.405L425.536 284.405L410.056 275.405L425.536 266.405Z" fill="#111113" stroke="white" stroke-opacity="0.075" stroke-width="0.7"/>
<path d="M392.856 355.405L377.376 364.405V284.405L392.856 275.405V355.405Z" fill="#0A0A0C" stroke="white" stroke-opacity="0.055" stroke-width="0.7"/>
<path d="M361.896 355.405L377.376 364.405V284.405L361.896 275.405V355.405Z" fill="#0A0A0C" stroke="white" stroke-opacity="0.055" stroke-width="0.7"/>
<path d="M377.376 266.405L392.856 275.405L377.376 284.405L361.896 275.405L377.376 266.405Z" fill="#111113" stroke="white" stroke-opacity="0.075" stroke-width="0.7"/>
<path d="M344.696 355.405L329.216 364.405V284.405L344.696 275.405V355.405Z" fill="#0A0A0C" stroke="white" stroke-opacity="0.055" stroke-width="0.7"/>
<path d="M313.736 355.405L329.216 364.405V284.405L313.736 275.405V355.405Z" fill="#0A0A0C" stroke="white" stroke-opacity="0.055" stroke-width="0.7"/>
<path d="M329.216 266.405L344.696 275.405L329.216 284.405L313.736 275.405L329.216 266.405Z" fill="#111113" stroke="white" stroke-opacity="0.075" stroke-width="0.7"/>
<path d="M296.536 355.405L281.056 364.405V284.405L296.536 275.405V355.405Z" fill="#0A0A0C" stroke="white" stroke-opacity="0.055" stroke-width="0.7"/>
<path d="M265.576 355.405L281.056 364.405V284.405L265.576 275.405V355.405Z" fill="#0A0A0C" stroke="white" stroke-opacity="0.055" stroke-width="0.7"/>
<path d="M281.056 266.405L296.536 275.405L281.056 284.405L265.576 275.405L281.056 266.405Z" fill="#111113" stroke="white" stroke-opacity="0.075" stroke-width="0.7"/>
<path d="M248.376 355.405L232.896 364.405V284.405L248.376 275.405V355.405Z" fill="#0A0A0C" stroke="white" stroke-opacity="0.055" stroke-width="0.7"/>
<path d="M217.416 355.405L232.896 364.405V284.405L217.416 275.405V355.405Z" fill="#0A0A0C" stroke="white" stroke-opacity="0.055" stroke-width="0.7"/>
<path d="M232.896 266.405L248.376 275.405L232.896 284.405L217.416 275.405L232.896 266.405Z" fill="#111113" stroke="white" stroke-opacity="0.075" stroke-width="0.7"/>
<path d="M200.216 355.405L184.736 364.405V284.405L200.216 275.405V355.405Z" fill="#0A0A0C" stroke="white" stroke-opacity="0.055" stroke-width="0.7"/>
<path d="M169.256 355.405L184.736 364.405V284.405L169.256 275.405V355.405Z" fill="#0A0A0C" stroke="white" stroke-opacity="0.055" stroke-width="0.7"/>
<path d="M184.736 266.405L200.216 275.405L184.736 284.405L169.256 275.405L184.736 266.405Z" fill="#111113" stroke="white" stroke-opacity="0.075" stroke-width="0.7"/>
<path d="M416.936 369.405L401.456 378.405V298.405L416.936 289.405V369.405Z" fill="#0A0A0C" stroke="white" stroke-opacity="0.055" stroke-width="0.7"/>
<path d="M385.976 369.405L401.456 378.405V298.405L385.976 289.405V369.405Z" fill="#0A0A0C" stroke="white" stroke-opacity="0.055" stroke-width="0.7"/>
<path d="M401.456 280.405L416.936 289.405L401.456 298.405L385.976 289.405L401.456 280.405Z" fill="#111113" stroke="white" stroke-opacity="0.075" stroke-width="0.7"/>
<path d="M368.776 369.405L353.296 378.405V298.405L368.776 289.405V369.405Z" fill="#0A0A0C" stroke="white" stroke-opacity="0.055" stroke-width="0.7"/>
<path d="M337.816 369.405L353.296 378.405V298.405L337.816 289.405V369.405Z" fill="#0A0A0C" stroke="white" stroke-opacity="0.055" stroke-width="0.7"/>
<path d="M353.296 280.405L368.776 289.405L353.296 298.405L337.816 289.405L353.296 280.405Z" fill="#111113" stroke="white" stroke-opacity="0.075" stroke-width="0.7"/>
<path d="M320.616 369.405L305.136 378.405V298.405L320.616 289.405V369.405Z" fill="#0A0A0C" stroke="white" stroke-opacity="0.055" stroke-width="0.7"/>
<path d="M289.656 369.405L305.136 378.405V298.405L289.656 289.405V369.405Z" fill="#0A0A0C" stroke="white" stroke-opacity="0.055" stroke-width="0.7"/>
<path d="M305.136 280.405L320.616 289.405L305.136 298.405L289.656 289.405L305.136 280.405Z" fill="#111113" stroke="white" stroke-opacity="0.075" stroke-width="0.7"/>
<path d="M272.456 369.405L256.976 378.405V298.405L272.456 289.405V369.405Z" fill="#0A0A0C" stroke="white" stroke-opacity="0.055" stroke-width="0.7"/>
<path d="M241.496 369.405L256.976 378.405V298.405L241.496 289.405V369.405Z" fill="#0A0A0C" stroke="white" stroke-opacity="0.055" stroke-width="0.7"/>
<path d="M256.976 280.405L272.456 289.405L256.976 298.405L241.496 289.405L256.976 280.405Z" fill="#111113" stroke="white" stroke-opacity="0.075" stroke-width="0.7"/>
<path d="M224.296 369.405L208.816 378.405V298.405L224.296 289.405V369.405Z" fill="#0A0A0C" stroke="white" stroke-opacity="0.055" stroke-width="0.7"/>
<path d="M193.336 369.405L208.816 378.405V298.405L193.336 289.405V369.405Z" fill="#0A0A0C" stroke="white" stroke-opacity="0.055" stroke-width="0.7"/>
<path d="M208.816 280.405L224.296 289.405L208.816 298.405L193.336 289.405L208.816 280.405Z" fill="#111113" stroke="white" stroke-opacity="0.075" stroke-width="0.7"/>
<path d="M392.856 383.405L377.376 392.405V312.405L392.856 303.405V383.405Z" fill="#0A0A0C" stroke="white" stroke-opacity="0.055" stroke-width="0.7"/>
<path d="M361.896 383.405L377.376 392.405V312.405L361.896 303.405V383.405Z" fill="#0A0A0C" stroke="white" stroke-opacity="0.055" stroke-width="0.7"/>
<path d="M377.376 294.405L392.856 303.405L377.376 312.405L361.896 303.405L377.376 294.405Z" fill="#111113" stroke="white" stroke-opacity="0.075" stroke-width="0.7"/>
<path d="M344.696 383.405L329.216 392.405V312.405L344.696 303.405V383.405Z" fill="#0A0A0C" stroke="white" stroke-opacity="0.055" stroke-width="0.7"/>
<path d="M313.736 383.405L329.216 392.405V312.405L313.736 303.405V383.405Z" fill="#0A0A0C" stroke="white" stroke-opacity="0.055" stroke-width="0.7"/>
<path d="M329.216 294.405L344.696 303.405L329.216 312.405L313.736 303.405L329.216 294.405Z" fill="#111113" stroke="white" stroke-opacity="0.075" stroke-width="0.7"/>
<path d="M296.536 383.405L281.056 392.405V312.405L296.536 303.405V383.405Z" fill="#0A0A0C" stroke="white" stroke-opacity="0.055" stroke-width="0.7"/>
<path d="M265.576 383.405L281.056 392.405V312.405L265.576 303.405V383.405Z" fill="#0A0A0C" stroke="white" stroke-opacity="0.055" stroke-width="0.7"/>
<path d="M281.056 294.405L296.536 303.405L281.056 312.405L265.576 303.405L281.056 294.405Z" fill="#111113" stroke="white" stroke-opacity="0.075" stroke-width="0.7"/>
<path d="M248.376 383.405L232.896 392.405V312.405L248.376 303.405V383.405Z" fill="#0A0A0C" stroke="white" stroke-opacity="0.055" stroke-width="0.7"/>
<path d="M217.416 383.405L232.896 392.405V312.405L217.416 303.405V383.405Z" fill="#0A0A0C" stroke="white" stroke-opacity="0.055" stroke-width="0.7"/>
<path d="M232.896 294.405L248.376 303.405L232.896 312.405L217.416 303.405L232.896 294.405Z" fill="#111113" stroke="white" stroke-opacity="0.075" stroke-width="0.7"/>
<path d="M368.776 397.405L353.296 406.405V326.405L368.776 317.405V397.405Z" fill="#0A0A0C" stroke="white" stroke-opacity="0.055" stroke-width="0.7"/>
<path d="M337.816 397.405L353.296 406.405V326.405L337.816 317.405V397.405Z" fill="#0A0A0C" stroke="white" stroke-opacity="0.055" stroke-width="0.7"/>
<path d="M353.296 308.405L368.776 317.405L353.296 326.405L337.816 317.405L353.296 308.405Z" fill="#111113" stroke="white" stroke-opacity="0.075" stroke-width="0.7"/>
<path d="M320.616 397.405L305.136 406.405V326.405L320.616 317.405V397.405Z" fill="#0A0A0C" stroke="white" stroke-opacity="0.055" stroke-width="0.7"/>
<path d="M289.656 397.405L305.136 406.405V326.405L289.656 317.405V397.405Z" fill="#0A0A0C" stroke="white" stroke-opacity="0.055" stroke-width="0.7"/>
<path d="M305.136 308.405L320.616 317.405L305.136 326.405L289.656 317.405L305.136 308.405Z" fill="#111113" stroke="white" stroke-opacity="0.075" stroke-width="0.7"/>
<path d="M272.456 397.405L256.976 406.405V326.405L272.456 317.405V397.405Z" fill="#0A0A0C" stroke="white" stroke-opacity="0.055" stroke-width="0.7"/>
<path d="M241.496 397.405L256.976 406.405V326.405L241.496 317.405V397.405Z" fill="#0A0A0C" stroke="white" stroke-opacity="0.055" stroke-width="0.7"/>
<path d="M256.976 308.405L272.456 317.405L256.976 326.405L241.496 317.405L256.976 308.405Z" fill="#111113" stroke="white" stroke-opacity="0.075" stroke-width="0.7"/>
<path d="M344.696 411.405L329.216 420.405V340.405L344.696 331.405V411.405Z" fill="#0A0A0C" stroke="white" stroke-opacity="0.055" stroke-width="0.7"/>
<path d="M313.736 411.405L329.216 420.405V340.405L313.736 331.405V411.405Z" fill="#0A0A0C" stroke="white" stroke-opacity="0.055" stroke-width="0.7"/>
<path d="M329.216 322.405L344.696 331.405L329.216 340.405L313.736 331.405L329.216 322.405Z" fill="#111113" stroke="white" stroke-opacity="0.075" stroke-width="0.7"/>
<path d="M296.536 411.405L281.056 420.405V340.405L296.536 331.405V411.405Z" fill="#0A0A0C" stroke="white" stroke-opacity="0.055" stroke-width="0.7"/>
<path d="M265.576 411.405L281.056 420.405V340.405L265.576 331.405V411.405Z" fill="#0A0A0C" stroke="white" stroke-opacity="0.055" stroke-width="0.7"/>
<path d="M281.056 322.405L296.536 331.405L281.056 340.405L265.576 331.405L281.056 322.405Z" fill="#111113" stroke="white" stroke-opacity="0.075" stroke-width="0.7"/>
<path d="M320.616 425.405L305.136 434.405V354.405L320.616 345.405V425.405Z" fill="#0A0A0C" stroke="white" stroke-opacity="0.055" stroke-width="0.7"/>
<path d="M289.656 425.405L305.136 434.405V354.405L289.656 345.405V425.405Z" fill="#0A0A0C" stroke="white" stroke-opacity="0.055" stroke-width="0.7"/>
<path d="M305.136 336.405L320.616 345.405L305.136 354.405L289.656 345.405L305.136 336.405Z" fill="#111113" stroke="white" stroke-opacity="0.075" stroke-width="0.7"/>
</svg>
