<svg width="1133" height="836" viewBox="0 0 1133 836" fill="none" xmlns="http://www.w3.org/2000/svg">
<path fill-rule="evenodd" clip-rule="evenodd" d="M403.697 452.679C400.278 436.899 387.321 424 371.174 424H314C297.431 424 284 437.431 284 454V806C284 822.569 297.431 836 314 836H518C534.569 836 548 822.569 548 806V607.706C548 592.194 536.049 579.534 521.056 575.553C462.342 559.962 416.642 512.424 403.697 452.679Z" fill="#212121"/>
<path d="M868 24C868 10.7452 878.745 0 892 0H1106C1119.25 0 1130 10.7452 1130 24V133C1130 146.255 1119.25 157 1106 157H892C878.745 157 868 146.255 868 133V24Z" fill="#212121"/>
<path d="M868 209C868 195.745 878.745 185 892 185H1106C1119.25 185 1130 195.745 1130 209V396H892C878.745 396 868 385.255 868 372V209Z" fill="#212121"/>
<path d="M286 30C286 13.4315 299.431 0 316 0H812C828.569 0 842 13.4315 842 30V366C842 382.569 828.569 396 812 396H316C299.431 396 286 382.569 286 366V30Z" fill="#212121"/>
<path d="M0 0H238C251.255 0 262 10.7452 262 24V836H24C10.7452 836 0 825.255 0 812V0Z" fill="#212121"/>
<mask id="path-9-inside-1_234_29" fill="white">
<path fill-rule="evenodd" clip-rule="evenodd" d="M606.137 579.765C591.055 583.686 579 596.381 579 611.964V806C579 822.569 592.431 836 609 836H1132C1132.55 836 1133 835.552 1133 835V459C1133 442.431 1119.57 429 1103 429H756.612C740.536 429 727.611 441.792 724.126 457.486C710.885 517.124 664.973 564.466 606.137 579.765Z"/>
</mask>
<path fill-rule="evenodd" clip-rule="evenodd" d="M606.137 579.765C591.055 583.686 579 596.381 579 611.964V806C579 822.569 592.431 836 609 836H1132C1132.55 836 1133 835.552 1133 835V459C1133 442.431 1119.57 429 1103 429H756.612C740.536 429 727.611 441.792 724.126 457.486C710.885 517.124 664.973 564.466 606.137 579.765Z" fill="#212121"/>
<path d="M724.126 457.486L723.15 457.269L724.126 457.486ZM579 806H580V611.964H579H578V806H579ZM1132 836V835H609V836V837H1132V836ZM1133 835H1132V836V837C1133.1 837 1134 836.105 1134 835H1133ZM1133 459H1132V835H1133H1134V459H1133ZM756.612 429V430H1103V429V428H756.612V429ZM724.126 457.486L723.15 457.269C709.991 516.54 664.359 563.593 605.885 578.797L606.137 579.765L606.388 580.733C665.587 565.34 711.78 517.709 725.102 457.703L724.126 457.486ZM1133 459H1134C1134 441.879 1120.12 428 1103 428V429V430C1119.02 430 1132 442.984 1132 459H1133ZM579 611.964H580C580 596.932 591.647 584.566 606.388 580.733L606.137 579.765L605.885 578.797C590.464 582.807 578 595.829 578 611.964H579ZM756.612 429V428C739.966 428 726.712 441.224 723.15 457.269L724.126 457.486L725.102 457.703C728.509 442.36 741.106 430 756.612 430V429ZM579 806H578C578 823.121 591.879 837 609 837V836V835C592.984 835 580 822.016 580 806H579Z" fill="white" fill-opacity="0.15" mask="url(#path-9-inside-1_234_29)"/>
<path d="M431 424H705C705 499.663 643.663 561 568 561C492.337 561 431 499.663 431 424Z" fill="#212121"/>
</svg>
